<?xml version="1.0" standalone="no"?>
<!DOCTYPE svg PUBLIC "-//W3C//DTD SVG 1.1//EN" "http://www.w3.org/Graphics/SVG/1.1/DTD/svg11.dtd" >
<svg xmlns="http://www.w3.org/2000/svg" xmlns:xlink="http://www.w3.org/1999/xlink" version="1.1">
<metadata>
Created by FontForge 20200314 at Fri Jul  5 21:05:49 2019
 By Unknown
Copyright (c) 2019 by www.fontiran.com (Moslem Ebrahimi). All rights reserved.
</metadata>
<defs>
<font id="dana-fanum-bold" horiz-adv-x="0" >
  <font-face 
    font-family="dana-fanum"
    font-weight="700"
    font-stretch="normal"
    units-per-em="1000"
    panose-1="0 0 8 0 0 0 0 0 0 0"
    ascent="800"
    descent="-200"
    x-height="499"
    cap-height="684"
    bbox="-145 -668 1515 1099"
    underline-thickness="26"
    underline-position="-250"
    unicode-range="U+000D-FEFF"
  />
<missing-glyph horiz-adv-x="300" 
d="M267 521v-542h-234v542h234zM233 479h-166v-458h166v458z" />
    <glyph glyph-name="uni06C0" unicode="&#x647;&#x654;" horiz-adv-x="492" 
d="M419.5 310q23.5 -48 23.5 -108q0 -55 -26 -102t-71 -74.5t-99 -27.5t-99 27.5t-71.5 74.5t-26.5 102q0 47 22.5 94.5t61.5 86.5l18 18l-26 25l87 102l131 -122q52 -48 75.5 -96zM299.5 155q20.5 19 20.5 47q0 23 -12 43.5t-49 55.5l-13 12l-17 -17q-32 -32 -44 -52.5
t-12 -41.5q0 -28 21 -47t53 -19t52.5 19zM187 631q36 2 69.5 5t33.5 8q0 4 -11.5 7t-25.5 5.5t-23 4.5q-48 8 -70 23.5t-22 43.5q0 20 13 56q16 42 45 63.5t67 21.5q23 0 45 -7l37 -12l-19 -69l-38 12q-15 5 -27 5q-38 0 -54 -42l-2 -8q0 -7 8 -10.5t31 -8.5
q42 -8 63.5 -16.5t32.5 -24t11 -43.5q0 -36 -19 -53.5t-58.5 -24t-124.5 -11.5l-6 72z" />
    <glyph glyph-name="uniFBA5" unicode="&#xfeea;&#x654;" horiz-adv-x="543" arabic-form="final" 
d="M548 142v-142h-19q-53 0 -98.5 24t-76.5 66l-101 -16q-6 -1 -18 -1q-55 0 -105.5 39t-69.5 95q-10 29 -10 62q0 62 35.5 114.5t93.5 71.5l130 42v35h126v-304q0 -36 27 -61t67 -25h19zM309 226v2v130l-90 -32q-21 -7 -31.5 -22t-10.5 -33q0 -23 19.5 -41.5t45.5 -14.5z
M231 628q36 2 69.5 5t33.5 8q0 4 -11.5 7t-25.5 5.5t-23 4.5q-48 8 -70 23.5t-22 43.5q0 20 13 56q16 42 45 63.5t67 21.5q23 0 45 -7l37 -12l-19 -69l-38 12q-15 5 -27 5q-38 0 -54 -42l-2 -8q0 -7 8 -10.5t31 -8.5q42 -8 63.5 -16.5t32.5 -24t11 -43.5q0 -36 -19 -53.5
t-58.5 -24t-124.5 -11.5l-6 72z" />
    <glyph glyph-name="uniFEF5" unicode="&#xfedf;&#xfe82;" horiz-adv-x="592" arabic-form="isolated" 
d="M523 98q-22 -45 -66 -71.5t-106 -26.5h-249v142h249q39 0 52.5 13t12.5 37l-19 495l126 6l19 -495q3 -55 -19 -100zM132 188l-82 440l124 26l82 -441zM46.5 778q25.5 26 66.5 26q7 0 23 -2l101 -19q4 -1 12 -1q27 0 27 24v4l64 5v-23q0 -43 -25.5 -69t-66.5 -26
q-7 0 -23 2l-101 19q-4 1 -12 1q-27 0 -27 -24v-4l-64 -5v23q0 43 25.5 69z" />
    <glyph glyph-name="uniFEF6" unicode="&#xfee0;&#xfe82;" horiz-adv-x="622" arabic-form="final" 
d="M627 142v-142h-20q-74 0 -124 45q-51 -45 -132 -45h-249v142h249q39 0 52.5 13t12.5 37l-19 495l126 6l19 -489q1 -35 17.5 -48.5t47.5 -13.5h20zM132 188l-82 440l124 26l82 -441zM49.5 771q25.5 26 66.5 26q7 0 23 -2l101 -19q4 -1 12 -1q27 0 27 24v4l64 5v-23
q0 -43 -25.5 -69t-66.5 -26q-7 0 -23 2l-101 19q-4 1 -12 1q-27 0 -27 -24v-4l-64 -5v23q0 43 25.5 69z" />
    <glyph glyph-name="uniFEF7" unicode="&#xfedf;&#xfe84;" horiz-adv-x="592" arabic-form="isolated" 
d="M523 98q-22 -45 -66 -71.5t-106 -26.5h-249v142h249q39 0 52.5 13t12.5 37l-19 495l126 6l19 -495q3 -55 -19 -100zM132 188l-82 440l124 26l82 -441zM177 714q-8 -2 -11 -2l-157 -37l-15 69l70 17q-12 19 -16 37q-3 14 -3 28q0 45 31.5 77.5t77.5 32.5q25 0 85 -12
l-12 -69q-49 9 -74 9q-20 0 -32.5 -11.5t-12.5 -28.5q0 -18 15 -30.5t35 -10.5l112 27l15 -70z" />
    <glyph glyph-name="uniFEF8" unicode="&#xfee0;&#xfe84;" horiz-adv-x="622" arabic-form="final" 
d="M627 142v-142h-20q-74 0 -124 45q-51 -45 -132 -45h-249v142h249q39 0 52.5 13t12.5 37l-19 495l126 6l19 -489q1 -35 17.5 -48.5t47.5 -13.5h20zM132 188l-82 440l124 26l82 -441zM177 708q-8 -2 -11 -2l-157 -37l-15 69l70 17q-12 19 -16 37q-3 14 -3 28
q0 45 31.5 77.5t77.5 32.5q25 0 85 -12l-12 -69q-49 9 -74 9q-20 0 -32.5 -11.5t-12.5 -28.5q0 -18 15 -30.5t35 -10.5l112 27l15 -70z" />
    <glyph glyph-name="uniFEF9" unicode="&#xfedf;&#xfe88;" horiz-adv-x="592" arabic-form="isolated" 
d="M523 98q-22 -45 -66 -71.5t-106 -26.5h-249v142h249q39 0 52.5 13t12.5 37l-19 495l126 6l19 -495q3 -55 -19 -100zM132 188l-82 440l124 26l82 -441zM225 -249q-8 -2 -11 -2l-157 -37l-15 69l70 17q-12 19 -16 37q-3 14 -3 28q0 45 31.5 77.5t77.5 32.5q25 0 85 -12
l-12 -69q-49 9 -74 9q-20 0 -32.5 -11.5t-12.5 -28.5q0 -18 15 -30.5t35 -10.5l112 27l15 -70z" />
    <glyph glyph-name="uniFEFA" unicode="&#xfee0;&#xfe88;" horiz-adv-x="622" arabic-form="final" 
d="M627 142v-142h-20q-74 0 -124 45q-51 -45 -132 -45h-249v142h249q39 0 52.5 13t12.5 37l-19 495l126 6l19 -489q1 -35 17.5 -48.5t47.5 -13.5h20zM132 188l-82 440l124 26l82 -441zM229 -249q-8 -2 -11 -2l-157 -37l-15 69l70 17q-12 19 -16 37q-3 14 -3 28
q0 45 31.5 77.5t77.5 32.5q25 0 85 -12l-12 -69q-49 9 -74 9q-20 0 -32.5 -11.5t-12.5 -28.5q0 -18 15 -30.5t35 -10.5l112 27l15 -70z" />
    <glyph glyph-name="uniFEFB" unicode="&#xfedf;&#xfe8e;" horiz-adv-x="592" arabic-form="isolated" 
d="M523 98q-22 -45 -66 -71.5t-106 -26.5h-249v142h249q39 0 52.5 13t12.5 37l-19 495l126 6l19 -495q3 -55 -19 -100zM132 188l-82 440l124 26l82 -441z" />
    <glyph glyph-name="uniFEFC" unicode="&#xfee0;&#xfe8e;" horiz-adv-x="622" arabic-form="final" 
d="M627 142v-142h-20q-74 0 -124 45q-51 -45 -132 -45h-249v142h249q39 0 52.5 13t12.5 37l-19 495l126 6l19 -489q1 -35 17.5 -48.5t47.5 -13.5h20zM132 188l-82 440l124 26l82 -441z" />
    <glyph glyph-name="uni06440671" unicode="&#xfedf;&#xfb51;" horiz-adv-x="592" 
d="M523 98q-22 -45 -66 -71.5t-106 -26.5h-249v142h249q39 0 52.5 13t12.5 37l-19 495l126 6l19 -495q3 -55 -19 -100zM132 188l-82 440l124 26l82 -441zM299.5 879q28.5 -31 28.5 -78q0 -41 -30 -71t-70 -30h-139q-13 0 -21 -6t-25 -29l-54 41q24 33 41.5 47.5t40.5 18.5
l33 45q34 46 60 69.5t64 23.5q43 0 71.5 -31zM254.5 781.5q11.5 8.5 11.5 23.5q0 16 -11 26t-27 10q-17 0 -30.5 -11.5t-36.5 -41.5l-11 -15h78q15 0 26.5 8.5z" />
    <glyph glyph-name="uni06440671.fina" unicode="&#xfee0;&#xfb51;" horiz-adv-x="622" 
d="M627 142v-142h-20q-74 0 -124 45q-51 -45 -132 -45h-249v142h249q39 0 52.5 13t12.5 37l-19 495l126 6l19 -489q1 -35 17.5 -48.5t47.5 -13.5h20zM132 188l-82 440l124 26l82 -441zM299.5 879q28.5 -31 28.5 -78q0 -41 -30 -71t-70 -30h-139q-13 0 -21 -6t-25 -29l-54 41
q24 33 41.5 47.5t40.5 18.5l33 45q34 46 60 69.5t64 23.5q43 0 71.5 -31zM254.5 781.5q11.5 8.5 11.5 23.5q0 16 -11 26t-27 10q-17 0 -30.5 -11.5t-36.5 -41.5l-11 -15h78q15 0 26.5 8.5z" />
    <glyph glyph-name="uniFDF2.001" unicode="&#xfedf;&#xfee0;&#xfeea;" horiz-adv-x="1111" 
d="M701 937h-61v162h61v-162zM550 766q-25 24 -25 61q0 15 4 27l14 55l54 -15l-11 -50q-1 -3 -1 -9q0 -21 29 -21q13 0 20 5.5t7 11.5l2 65h53l2 -65q0 -6 7 -11.5t20 -5.5q35 0 29 27l-17 70l56 17l20 -73q4 -12 4 -27q0 -37 -26 -61.5t-66 -24.5q-17 0 -32 5.5t-23 15.5
q-21 -21 -56 -21q-39 0 -64 24zM1021.5 98q-22.5 -45 -66.5 -71.5t-105 -26.5h-33q-74 0 -124 45q-51 -45 -132 -45h-32q-53 0 -98.5 24t-76.5 66l-101 -16q-6 -1 -18 -1q-55 0 -105.5 39t-69.5 95q-10 29 -10 62q0 62 35.5 114.5t93.5 71.5l130 42v35h126v-304
q0 -36 27 -61t67 -25h32q39 0 52.5 13t12.5 37l-19 495l126 6l19 -489q1 -35 17.5 -48.5t47.5 -13.5h33q39 0 52.5 13.5t12.5 36.5l-19 495l126 6l19 -495q3 -55 -19.5 -100zM309 226v2v130l-90 -32q-21 -7 -31.5 -22t-10.5 -33q0 -23 19.5 -41.5t45.5 -14.5z" />
    <glyph glyph-name="uni0621" unicode="&#x621;" horiz-adv-x="486" arabic-form="isolated" 
d="M436 45l-365 -68l-21 124l68 13q-11 23 -15 47q-3 17 -3 34q0 63 38.5 112t100.5 61q4 1 14 1q42 0 129 -19l-30 -121q-65 15 -90 15q-24 0 -37.5 -14.5t-13.5 -34.5q0 -23 18 -38t45 -13l141 27z" />
    <glyph glyph-name="uni0622" unicode="&#x622;" horiz-adv-x="318" arabic-form="isolated" 
d="M218 593l22 -591l-126 -6l-23 591zM25.5 711q25.5 26 66.5 26q7 0 23 -2l101 -19q4 -1 12 -1q27 0 27 24v4l64 5v-23q0 -43 -25.5 -69t-66.5 -26q-7 0 -23 2l-101 19q-4 1 -12 1q-27 0 -27 -24v-4l-64 -5v23q0 43 25.5 69z" />
    <glyph glyph-name="uni0623" unicode="&#x623;" horiz-adv-x="318" arabic-form="isolated" 
d="M218 593l22 -591l-126 -6l-23 591zM185 677q-8 -2 -11 -2l-157 -37l-15 69l70 17q-12 19 -16 37q-3 14 -3 28q0 45 31.5 77.5t77.5 32.5q25 0 85 -12l-12 -69q-49 9 -74 9q-20 0 -32.5 -11.5t-12.5 -28.5q0 -18 15 -30.5t35 -10.5l112 27l15 -70z" />
    <glyph glyph-name="uni0624" unicode="&#x624;" horiz-adv-x="533" arabic-form="isolated" 
d="M483 -6q0 -77 -35 -122.5t-108 -73t-208 -54.5l-25 138q118 25 166 38.5t66 32.5t17 55q-48 -8 -107 -8q-56 0 -100 26t-68.5 73t-24.5 106t25.5 110.5t71 82.5t101.5 31q85 0 142 -63.5t68 -166.5l17 -162q2 -15 2 -43zM249 142q51 0 93 7l-3 32q-5 51 -27 78.5
t-56 27.5t-53.5 -24t-19.5 -59q0 -62 66 -62zM303 505q-8 -2 -11 -2l-157 -37l-15 69l70 17q-12 19 -16 37q-3 14 -3 28q0 45 31.5 77.5t77.5 32.5q25 0 85 -12l-12 -69q-49 9 -74 9q-20 0 -32.5 -11.5t-12.5 -28.5q0 -18 15 -30.5t35 -10.5l112 27l15 -70z" />
    <glyph glyph-name="uni0625" unicode="&#x625;" horiz-adv-x="297" arabic-form="isolated" 
d="M201 693l26 -691l-126 -6l-27 691zM193 -275q-8 -2 -11 -2l-157 -37l-15 69l70 17q-12 19 -16 37q-3 14 -3 28q0 45 31.5 77.5t77.5 32.5q25 0 85 -12l-12 -69q-49 9 -74 9q-20 0 -32.5 -11.5t-12.5 -28.5q0 -18 15 -30.5t35 -10.5l112 27l15 -70z" />
    <glyph glyph-name="uni0626" unicode="&#x626;" horiz-adv-x="736" arabic-form="isolated" 
d="M319 -247q-82 0 -142.5 37.5t-93 106t-32.5 158.5q0 99 38 210l120 -47q-33 -96 -33 -166q0 -76 36.5 -116.5t104.5 -40.5q34 0 66 8q75 17 121.5 33t46.5 24q-1 3 -12 7t-22 7t-16 5q-42 12 -64 19q-69 23 -103.5 57.5t-34.5 92.5q0 34 14 82q26 85 88 142.5t143 57.5
q30 0 61 -9l65 -18l-33 -137l-65 18q-18 5 -31 5q-33 0 -56 -19t-35.5 -42t-15.5 -37q-4 -18 -4 -22q0 -16 13.5 -24t52.5 -20q7 -2 12 -4t10 -3q61 -18 88.5 -30t45.5 -32.5t25 -57.5q2 -9 2 -27q0 -72 -70.5 -125t-197.5 -82q-52 -11 -92 -11zM290 402q-8 -2 -11 -2
l-157 -37l-15 69l70 17q-12 19 -16 37q-3 14 -3 28q0 45 31.5 77.5t77.5 32.5q25 0 85 -12l-12 -69q-49 9 -74 9q-20 0 -32.5 -11.5t-12.5 -28.5q0 -18 15 -30.5t35 -10.5l112 27l15 -70z" />
    <glyph glyph-name="uni0627" unicode="&#x627;" horiz-adv-x="297" arabic-form="isolated" 
d="M201 693l26 -691l-126 -6l-27 691z" />
    <glyph glyph-name="uni0628" unicode="&#x628;" horiz-adv-x="968" arabic-form="isolated" 
d="M689 146q49 4 71 13q19 9 26.5 17.5t7.5 24.5q0 13 -8 42l-38 139l122 36l38 -139q11 -42 11 -77q0 -60 -28 -105t-81 -68q-30 -13 -62.5 -19t-90 -8t-172.5 -2v142q155 0 204 4zM312 2q-58 2 -90.5 8t-62.5 19q-53 23 -80.5 68t-27.5 104q0 34 9 70l38 146l122 -37
l-39 -151q-5 -18 -5 -29q0 -14 8 -23.5t25 -17.5q22 -9 73 -13t203 -4v-142q-115 0 -173 2zM392 -148l92 93l93 -93l-93 -92z" />
    <glyph glyph-name="uni0629" unicode="&#x629;" horiz-adv-x="493" arabic-form="isolated" 
d="M419.5 310q23.5 -48 23.5 -108q0 -55 -26 -102t-71 -74.5t-99 -27.5t-99 27.5t-71.5 74.5t-26.5 102q0 47 22.5 94.5t61.5 86.5l18 18l-26 25l87 102l131 -122q52 -48 75.5 -96zM299.5 155q20.5 19 20.5 47q0 23 -12 43.5t-49 55.5l-13 12l-17 -17q-32 -32 -44 -52.5
t-12 -41.5q0 -28 21 -47t53 -19t52.5 19zM53 612l81 82l83 -82l-83 -82zM253 612l81 82l83 -82l-83 -82z" />
    <glyph glyph-name="uni062A" unicode="&#x62a;" horiz-adv-x="968" arabic-form="isolated" 
d="M689 146q49 4 71 13q19 9 26.5 17.5t7.5 24.5q0 13 -8 42l-38 139l122 36l38 -139q11 -42 11 -77q0 -60 -28 -105t-81 -68q-30 -13 -62.5 -19t-90 -8t-172.5 -2v142q155 0 204 4zM312 2q-58 2 -90.5 8t-62.5 19q-53 23 -80.5 68t-27.5 104q0 34 9 70l38 146l122 -37
l-39 -151q-5 -18 -5 -29q0 -14 8 -23.5t25 -17.5q22 -9 73 -13t203 -4v-142q-115 0 -173 2zM302 430l81 82l83 -82l-83 -82zM502 430l81 82l83 -82l-83 -82z" />
    <glyph glyph-name="uni062B" unicode="&#x62b;" horiz-adv-x="968" arabic-form="isolated" 
d="M689 146q49 4 71 13q19 9 26.5 17.5t7.5 24.5q0 13 -8 42l-38 139l122 36l38 -139q11 -42 11 -77q0 -60 -28 -105t-81 -68q-30 -13 -62.5 -19t-90 -8t-172.5 -2v142q155 0 204 4zM312 2q-58 2 -90.5 8t-62.5 19q-53 23 -80.5 68t-27.5 104q0 34 9 70l38 146l122 -37
l-39 -151q-5 -18 -5 -29q0 -14 8 -23.5t25 -17.5q22 -9 73 -13t203 -4v-142q-115 0 -173 2zM417 575l67 67l67 -67l-67 -68zM303 430l81 82l83 -82l-83 -82zM502 430l81 82l83 -82l-83 -82z" />
    <glyph glyph-name="uni062C" unicode="&#x62c;" horiz-adv-x="730" arabic-form="isolated" 
d="M675 -274l-258 -71q-39 -10 -79 -10q-98 0 -174 57.5t-103 155.5q-11 42 -11 80q0 99 65 178.5t186 112.5l212 54l-165 83q-22 12 -48 12q-25 0 -47 -12.5t-37 -36.5l-17 -32l-110 69l19 36q34 57 83.5 87.5t106.5 30.5t112 -30l261 -146l-18 -164l-319 -88
q-81 -21 -119 -62.5t-38 -92.5q0 -17 5 -39q13 -50 56.5 -81t100.5 -31q21 0 51 7l252 70zM319 -45l92 93l93 -93l-93 -92z" />
    <glyph glyph-name="uni062D" unicode="&#x62d;" horiz-adv-x="730" arabic-form="isolated" 
d="M675 -274l-258 -71q-39 -10 -79 -10q-98 0 -174 57.5t-103 155.5q-11 42 -11 80q0 99 65 178.5t186 112.5l212 54l-165 83q-22 12 -48 12q-25 0 -47 -12.5t-37 -36.5l-17 -32l-110 69l19 36q34 57 83.5 87.5t106.5 30.5t112 -30l261 -146l-18 -164l-319 -88
q-81 -21 -119 -62.5t-38 -92.5q0 -17 5 -39q13 -50 56.5 -81t100.5 -31q21 0 51 7l252 70z" />
    <glyph glyph-name="uni062E" unicode="&#x62e;" horiz-adv-x="730" arabic-form="isolated" 
d="M675 -274l-258 -71q-39 -10 -79 -10q-98 0 -174 57.5t-103 155.5q-11 42 -11 80q0 99 65 178.5t186 112.5l212 54l-165 83q-22 12 -48 12q-25 0 -47 -12.5t-37 -36.5l-17 -32l-110 69l19 36q34 57 83.5 87.5t106.5 30.5t112 -30l261 -146l-18 -164l-319 -88
q-81 -21 -119 -62.5t-38 -92.5q0 -17 5 -39q13 -50 56.5 -81t100.5 -31q21 0 51 7l252 70zM209 654l92 93l93 -93l-93 -92z" />
    <glyph glyph-name="uni062F" unicode="&#x62f;" horiz-adv-x="561" arabic-form="isolated" 
d="M144 18.5q-40 18.5 -62.5 50.5t-24.5 70q-1 15 -1 65h116q0 -28 2 -41q1 -12 10.5 -16.5t29.5 -4.5h114q57 0 57 34q0 7 -4 21q-18 50 -61 122.5t-93 144.5l103 84q60 -82 109 -168.5t64 -149.5q7 -27 7 -57q0 -76 -52.5 -124.5t-146.5 -48.5h-75q-52 0 -92 18.5z" />
    <glyph glyph-name="uni0630" unicode="&#x630;" horiz-adv-x="561" arabic-form="isolated" 
d="M144 18.5q-40 18.5 -62.5 50.5t-24.5 70q-1 15 -1 65h116q0 -28 2 -41q1 -12 10.5 -16.5t29.5 -4.5h114q57 0 57 34q0 7 -4 21q-18 50 -61 122.5t-93 144.5l103 84q60 -82 109 -168.5t64 -149.5q7 -27 7 -57q0 -76 -52.5 -124.5t-146.5 -48.5h-75q-52 0 -92 18.5z
M187 665l92 93l93 -93l-93 -92z" />
    <glyph glyph-name="uni0631" unicode="&#x631;" horiz-adv-x="366" arabic-form="isolated" 
d="M117.5 -84q35.5 13 54 31.5t18.5 51.5q0 7 -2 23l-40 287l125 19l40 -289q3 -25 3 -47q0 -70 -32.5 -116t-92.5 -75.5t-158 -56.5l-33 137q82 22 117.5 35z" />
    <glyph glyph-name="uni0632" unicode="&#x632;" horiz-adv-x="366" arabic-form="isolated" 
d="M117.5 -84q35.5 13 54 31.5t18.5 51.5q0 7 -2 23l-40 287l125 19l40 -289q3 -25 3 -47q0 -70 -32.5 -116t-92.5 -75.5t-158 -56.5l-33 137q82 22 117.5 35zM109 496l92 93l93 -93l-93 -92z" />
    <glyph glyph-name="uni0633" unicode="&#x633;" horiz-adv-x="1225" arabic-form="isolated" 
d="M1175 192q0 -57 -24.5 -100.5t-68 -67.5t-99.5 -24q-72 0 -120 46q-49 -46 -123 -46q-35 0 -67 13q2 -73 -27 -121t-86.5 -77.5t-148.5 -50.5q-52 -11 -92 -11q-82 0 -142.5 37.5t-93 106t-32.5 158.5q0 99 38 210l120 -47q-33 -96 -33 -166q0 -76 36.5 -116.5
t104.5 -40.5q34 0 66 8q69 16 100.5 26.5t47.5 28.5t16 50q0 8 -2 26l-41 275l125 20l17 -114q10 -42 30.5 -57.5t63.5 -15.5q39 0 51.5 13t12.5 39v124h119v-124q0 -28 13.5 -40t46.5 -12q32 0 48.5 11.5t16.5 39.5q0 16 -6 40l-40 149l122 36l40 -149q11 -42 11 -77z" />
    <glyph glyph-name="uni0634" unicode="&#x634;" horiz-adv-x="1225" arabic-form="isolated" 
d="M1175 192q0 -57 -24.5 -100.5t-68 -67.5t-99.5 -24q-72 0 -120 46q-49 -46 -123 -46q-35 0 -67 13q2 -73 -27 -121t-86.5 -77.5t-148.5 -50.5q-52 -11 -92 -11q-82 0 -142.5 37.5t-93 106t-32.5 158.5q0 99 38 210l120 -47q-33 -96 -33 -166q0 -76 36.5 -116.5
t104.5 -40.5q34 0 66 8q69 16 100.5 26.5t47.5 28.5t16 50q0 8 -2 26l-41 275l125 20l17 -114q10 -42 30.5 -57.5t63.5 -15.5q39 0 51.5 13t12.5 39v124h119v-124q0 -28 13.5 -40t46.5 -12q32 0 48.5 11.5t16.5 39.5q0 16 -6 40l-40 149l122 36l40 -149q11 -42 11 -77z
M788 642l67 67l67 -67l-67 -68zM674 497l81 82l83 -82l-83 -82zM873 497l81 82l83 -82l-83 -82z" />
    <glyph glyph-name="uni0635" unicode="&#x635;" horiz-adv-x="1302" arabic-form="isolated" 
d="M1150.5 399.5q47.5 -29.5 74.5 -80t27 -112.5q0 -55 -28.5 -102.5t-76 -76t-102.5 -28.5h-318h-17q-17 0 -37 5q0 -70 -29.5 -116.5t-86.5 -75t-146 -49.5q-52 -11 -92 -11q-82 0 -142.5 37.5t-93 106t-32.5 158.5q0 99 38 210l120 -47q-33 -96 -33 -166
q0 -76 36.5 -116.5t104.5 -40.5q34 0 66 8q69 16 100.5 26.5t47.5 28.5t16 50q0 8 -2 26l-41 275l125 20l11 -74q9 -49 17 -73t19 -32t30 -8h21h2l62 86q56 77 91 117t74 62t89 22q58 0 105.5 -29.5zM1100.5 162.5q24.5 20.5 24.5 44.5q0 35 -22 57.5t-58 22.5
q-23 0 -42.5 -12.5t-42.5 -40.5t-64 -86l-4 -6h153q31 0 55.5 20.5z" />
    <glyph glyph-name="uni0636" unicode="&#x636;" horiz-adv-x="1302" arabic-form="isolated" 
d="M1150.5 399.5q47.5 -29.5 74.5 -80t27 -112.5q0 -55 -28.5 -102.5t-76 -76t-102.5 -28.5h-318h-17q-17 0 -37 5q0 -70 -29.5 -116.5t-86.5 -75t-146 -49.5q-52 -11 -92 -11q-82 0 -142.5 37.5t-93 106t-32.5 158.5q0 99 38 210l120 -47q-33 -96 -33 -166
q0 -76 36.5 -116.5t104.5 -40.5q34 0 66 8q69 16 100.5 26.5t47.5 28.5t16 50q0 8 -2 26l-41 275l125 20l11 -74q9 -49 17 -73t19 -32t30 -8h21h2l62 86q56 77 91 117t74 62t89 22q58 0 105.5 -29.5zM1100.5 162.5q24.5 20.5 24.5 44.5q0 35 -22 57.5t-58 22.5
q-23 0 -42.5 -12.5t-42.5 -40.5t-64 -86l-4 -6h153q31 0 55.5 20.5zM943 594l92 93l93 -93l-93 -92z" />
    <glyph glyph-name="uni0637" unicode="&#x637;" horiz-adv-x="716" arabic-form="isolated" 
d="M564.5 399.5q47.5 -29.5 74.5 -80t27 -112.5q0 -55 -28.5 -102.5t-76 -76t-102.5 -28.5h-409v142h93l28 39l-20 506l127 6l14 -353q40 46 79 67.5t88 21.5q58 0 105.5 -29.5zM514.5 162.5q24.5 20.5 24.5 44.5q0 35 -22 57.5t-58 22.5q-23 0 -42.5 -12.5t-42.5 -40.5
t-64 -86l-4 -6h153q31 0 55.5 20.5z" />
    <glyph glyph-name="uni0638" unicode="&#x638;" horiz-adv-x="716" arabic-form="isolated" 
d="M564.5 399.5q47.5 -29.5 74.5 -80t27 -112.5q0 -55 -28.5 -102.5t-76 -76t-102.5 -28.5h-409v142h93l28 39l-20 506l127 6l14 -353q40 46 79 67.5t88 21.5q58 0 105.5 -29.5zM514.5 162.5q24.5 20.5 24.5 44.5q0 35 -22 57.5t-58 22.5q-23 0 -42.5 -12.5t-42.5 -40.5
t-64 -86l-4 -6h153q31 0 55.5 20.5zM384 601l92 93l93 -93l-93 -92z" />
    <glyph glyph-name="uni0639" unicode="&#x639;" horiz-adv-x="644" arabic-form="isolated" 
d="M594 -246l-268 -27q-9 -1 -26 -1q-67 0 -124.5 34t-91.5 93t-34 130q0 70 35.5 129.5t96.5 94.5q-23 38 -30 79q-4 19 -4 41q0 50 21.5 94.5t60 74.5t87.5 39q16 2 26 2q59 0 150 -24l-33 -137q-91 24 -121 19q-30 -6 -47.5 -24t-17.5 -43q0 -31 22.5 -51.5t54.5 -20.5
q11 0 16 1l170 31l22 -140l-267 -49q-53 -10 -84.5 -42.5t-31.5 -74.5q0 -34 19 -61.5t51 -41.5t67 -11l269 28z" />
    <glyph glyph-name="uni063A" unicode="&#x63a;" horiz-adv-x="644" arabic-form="isolated" 
d="M594 -246l-268 -27q-9 -1 -26 -1q-67 0 -124.5 34t-91.5 93t-34 130q0 70 35.5 129.5t96.5 94.5q-23 38 -30 79q-4 19 -4 41q0 50 21.5 94.5t60 74.5t87.5 39q16 2 26 2q59 0 150 -24l-33 -137q-91 24 -121 19q-30 -6 -47.5 -24t-17.5 -43q0 -31 22.5 -51.5t54.5 -20.5
q11 0 16 1l170 31l22 -140l-267 -49q-53 -10 -84.5 -42.5t-31.5 -74.5q0 -34 19 -61.5t51 -41.5t67 -11l269 28zM244 678l92 93l93 -93l-93 -92z" />
    <glyph glyph-name="uni0641" unicode="&#x641;" horiz-adv-x="975" arabic-form="isolated" 
d="M924 174q0 -60 -24 -98t-80 -57t-152 -19h-189q-113 0 -169.5 2t-89 8t-61.5 19q-53 23 -80.5 68t-27.5 104q0 34 9 70l38 146l122 -37l-39 -151q-5 -18 -5 -29q0 -14 8 -23.5t25 -17.5q22 -9 73 -13t203 -4h185q63 0 90 3.5t35.5 14.5t6.5 36q-75 -3 -101 -3
q-81 0 -130 45.5t-50 126.5q-1 99 49 164t144 65q53 0 96 -27.5t69.5 -77t30.5 -113.5l13 -173q1 -10 1 -29zM652 339.5q16 -16.5 49 -16.5q48 0 90 4l-3 39q-5 48 -26 74t-54 26t-52.5 -23.5t-19.5 -57.5q0 -29 16 -45.5zM622 747l92 93l93 -93l-93 -92z" />
    <glyph glyph-name="uni0642" unicode="&#x642;" horiz-adv-x="753" arabic-form="isolated" 
d="M319 -247q-82 0 -142.5 37.5t-93 106t-32.5 158.5q0 99 38 210l120 -47q-33 -96 -33 -166q0 -76 36.5 -116.5t104.5 -40.5q34 0 66 8q103 21 147.5 41t42.5 55l-1 18q-48 -8 -105 -8q-55 0 -99 26t-69 72t-25 105q0 60 25.5 111.5t71.5 82.5t103 31q85 0 141.5 -63.5
t67.5 -166.5l17 -161q2 -16 2 -44q0 -70 -29.5 -114t-91.5 -72t-170 -52q-52 -11 -92 -11zM561 159l-3 31q-5 51 -28 78.5t-58 27.5q-32 0 -51 -24t-19 -59q0 -30 16 -46.5t49 -16.5q49 0 94 9zM283 567l81 82l83 -82l-83 -82zM483 567l81 82l83 -82l-83 -82z" />
    <glyph glyph-name="uni0643" unicode="&#x643;" horiz-adv-x="970" arabic-form="isolated" 
d="M826 285q42 -64 42 -129q0 -56 -32 -96q-22 -28 -57.5 -44t-82.5 -16h-217q-113 0 -169.5 2t-89 8t-61.5 19q-53 23 -80.5 68t-27.5 104q0 34 9 70l38 146l122 -37l-39 -151q-5 -18 -5 -29q0 -14 8 -23.5t25 -17.5q22 -9 73 -13t203 -4h213q20 0 28 7q13 11 13 26
q0 13 -9 25l-220 312l28 107l362 133l45 -132l-277 -102z" />
    <glyph glyph-name="uni0644" unicode="&#x644;" horiz-adv-x="720" arabic-form="isolated" 
d="M315 -248q-81 0 -141.5 37.5t-92.5 106t-32 158.5q0 96 39 210l120 -48q-32 -92 -32 -165q0 -76 35.5 -117.5t102.5 -41.5q30 0 66 9q76 19 106.5 31t44.5 36t12 73l-25 646l127 6l25 -645q3 -88 -24.5 -143t-84.5 -87t-151 -54q-51 -12 -95 -12z" />
    <glyph glyph-name="uni0645" unicode="&#x645;" horiz-adv-x="588" arabic-form="isolated" 
d="M512.5 324q25.5 -50 25.5 -112q0 -76 -36 -142q-19 -36 -50.5 -55.5t-67.5 -19.5q-32 0 -60 14l-148 76l19 -380l-126 -5l-19 499l86 58l33 -17l44 86q23 44 62.5 68.5t84.5 24.5q43 0 79 -20q48 -25 73.5 -75zM427 216q0 42 -33 61q-13 7 -26 7q-39 0 -65 -52l-25 -48
l114 -58q4 -3 5.5 -3.5t4.5 4.5q25 50 25 89z" />
    <glyph glyph-name="uni0646" unicode="&#x646;" horiz-adv-x="723" arabic-form="isolated" 
d="M319 -247q-82 0 -142.5 37.5t-93 106t-32.5 158.5q0 99 38 210l120 -47q-33 -96 -33 -166q0 -76 36.5 -116.5t104.5 -40.5q34 0 66 8q69 16 100.5 26.5t47.5 28.5t16 50q0 8 -2 26l-41 275l125 20q34 -229 40 -275q4 -25 4 -52q0 -69 -30 -114.5t-86.5 -74t-145.5 -49.5
q-52 -11 -92 -11zM255 333l92 93l93 -93l-93 -92z" />
    <glyph glyph-name="uni0647" unicode="&#x647;" horiz-adv-x="493" arabic-form="isolated" 
d="M419.5 310q23.5 -48 23.5 -108q0 -55 -26 -102t-71 -74.5t-99 -27.5t-99 27.5t-71.5 74.5t-26.5 102q0 47 22.5 94.5t61.5 86.5l18 18l-26 25l87 102l131 -122q52 -48 75.5 -96zM299.5 155q20.5 19 20.5 47q0 23 -12 43.5t-49 55.5l-13 12l-17 -17q-32 -32 -44 -52.5
t-12 -41.5q0 -28 21 -47t53 -19t52.5 19z" />
    <glyph glyph-name="uni0648" unicode="&#x648;" horiz-adv-x="533" arabic-form="isolated" 
d="M483 -6q0 -77 -35 -122.5t-108 -73t-208 -54.5l-25 138q118 25 166 38.5t66 32.5t17 55q-48 -8 -107 -8q-56 0 -100 26t-68.5 73t-24.5 106t25.5 110.5t71 82.5t101.5 31q85 0 142 -63.5t68 -166.5l17 -162q2 -15 2 -43zM249 142q51 0 93 7l-3 32q-5 51 -27 78.5
t-56 27.5t-53.5 -24t-19.5 -59q0 -62 66 -62z" />
    <glyph glyph-name="uni0649" unicode="&#x649;" horiz-adv-x="736" arabic-form="isolated" 
d="M319 -247q-82 0 -142.5 37.5t-93 106t-32.5 158.5q0 99 38 210l120 -47q-33 -96 -33 -166q0 -76 36.5 -116.5t104.5 -40.5q34 0 66 8q75 17 121.5 33t46.5 24q-1 3 -12 7t-22 7t-16 5q-42 12 -64 19q-69 23 -103.5 57.5t-34.5 92.5q0 34 14 82q26 85 88 142.5t143 57.5
q30 0 61 -9l65 -18l-33 -137l-65 18q-18 5 -31 5q-33 0 -56 -19t-35.5 -42t-15.5 -37q-4 -18 -4 -22q0 -16 13.5 -24t52.5 -20q7 -2 12 -4t10 -3q61 -18 88.5 -30t45.5 -32.5t25 -57.5q2 -9 2 -27q0 -72 -70.5 -125t-197.5 -82q-52 -11 -92 -11z" />
    <glyph glyph-name="uni064A" unicode="&#x64a;" horiz-adv-x="736" arabic-form="isolated" 
d="M319 -247q-82 0 -142.5 37.5t-93 106t-32.5 158.5q0 99 38 210l120 -47q-33 -96 -33 -166q0 -76 36.5 -116.5t104.5 -40.5q34 0 66 8q75 17 121.5 33t46.5 24q-1 3 -12 7t-22 7t-16 5q-42 12 -64 19q-69 23 -103.5 57.5t-34.5 92.5q0 34 14 82q26 85 88 142.5t143 57.5
q30 0 61 -9l65 -18l-33 -137l-65 18q-18 5 -31 5q-33 0 -56 -19t-35.5 -42t-15.5 -37q-4 -18 -4 -22q0 -16 13.5 -24t52.5 -20q7 -2 12 -4t10 -3q61 -18 88.5 -30t45.5 -32.5t25 -57.5q2 -9 2 -27q0 -72 -70.5 -125t-197.5 -82q-52 -11 -92 -11z" />
    <glyph glyph-name="uni066E.init" unicode="&#x66e;" horiz-adv-x="334" 
d="M74 142q43 0 63.5 12t20.5 42q0 15 -6 37l-40 149l122 36l40 -149q10 -39 10 -76q0 -88 -58 -140.5t-152 -52.5h-79v142h79z" />
    <glyph glyph-name="uni066E.medi" unicode="&#x66e;" horiz-adv-x="309" 
d="M314 0q-78 0 -126 40q-51 -40 -130 -40h-63v142h63q39 0 53 10t12 34v2l-11 123l126 12l11 -123v-1q3 -34 16 -45.5t49 -11.5v-142z" />
    <glyph glyph-name="uni066E.fina" unicode="&#x66e;" horiz-adv-x="977" 
d="M982 0q-78 0 -127 40q-51 -40 -129 -40h-241v142h241q38 0 52.5 10.5t12.5 33.5v2l-11 123l126 12l11 -123v-1q3 -34 16 -45.5t49 -11.5v-142zM312 2q-58 2 -90.5 8t-62.5 19q-53 23 -80.5 68t-27.5 104q0 34 9 70l38 146l122 -37l-39 -151q-5 -18 -5 -29q0 -14 8 -23.5
t25 -17.5q22 -9 73 -13t203 -4v-142q-115 0 -173 2z" />
    <glyph glyph-name="uni066F.fina" unicode="&#x66f;" horiz-adv-x="740" 
d="M319 -247q-82 0 -142.5 37.5t-93 106t-32.5 158.5q0 99 38 210l120 -47q-33 -96 -33 -166q0 -76 36.5 -116.5t104.5 -40.5q34 0 66 8q91 20 141 39t48 47l-1 11h-104q-88 0 -140.5 55.5t-52.5 149.5q0 59 25.5 110.5t71 82.5t102.5 31q84 0 141 -64t68 -167l6 -56h57
v-142h-44v-18q-3 -63 -34.5 -103t-92 -66t-163.5 -49q-52 -11 -92 -11zM556 183q-5 51 -26.5 77.5t-55.5 26.5t-53.5 -23.5t-19.5 -58.5q0 -33 14.5 -48t51.5 -15h93z" />
    <glyph glyph-name="uni0671" unicode="&#x671;" horiz-adv-x="318" arabic-form="isolated" 
d="M218 593l22 -591l-126 -6l-23 591zM295.5 806q28.5 -31 28.5 -78q0 -41 -30 -71t-70 -30h-139q-13 0 -21 -6t-25 -29l-54 41q24 33 41.5 47.5t40.5 18.5l33 45q34 46 60 69.5t64 23.5q43 0 71.5 -31zM250.5 708.5q11.5 8.5 11.5 23.5q0 16 -11 26t-27 10
q-17 0 -30.5 -11.5t-36.5 -41.5l-11 -15h78q15 0 26.5 8.5z" />
    <glyph glyph-name="uni067E" unicode="&#x67e;" horiz-adv-x="968" arabic-form="isolated" 
d="M689 146q49 4 71 13q19 9 26.5 17.5t7.5 24.5q0 13 -8 42l-38 139l122 36l38 -139q11 -42 11 -77q0 -60 -28 -105t-81 -68q-30 -13 -62.5 -19t-90 -8t-172.5 -2v142q155 0 204 4zM312 2q-58 2 -90.5 8t-62.5 19q-53 23 -80.5 68t-27.5 104q0 34 9 70l38 146l122 -37
l-39 -151q-5 -18 -5 -29q0 -14 8 -23.5t25 -17.5q22 -9 73 -13t203 -4v-142q-115 0 -173 2zM424 -288l67 67l67 -67l-67 -68zM310 -144l81 82l83 -82l-83 -82zM509 -144l81 82l83 -82l-83 -82z" />
    <glyph glyph-name="uni0686" unicode="&#x686;" horiz-adv-x="730" arabic-form="isolated" 
d="M675 -274l-258 -71q-39 -10 -79 -10q-98 0 -174 57.5t-103 155.5q-11 42 -11 80q0 99 65 178.5t186 112.5l212 54l-165 83q-22 12 -48 12q-25 0 -47 -12.5t-37 -36.5l-17 -32l-110 69l19 36q34 57 83.5 87.5t106.5 30.5t112 -30l261 -146l-18 -164l-319 -88
q-81 -21 -119 -62.5t-38 -92.5q0 -17 5 -39q13 -50 56.5 -81t100.5 -31q21 0 51 7l252 70zM496 -41l-85 45l45 83l84 -44zM294 38l84 -44l-44 -84l-85 45zM443 -157l-85 45l45 83l84 -44z" />
    <glyph glyph-name="uni0698" unicode="&#x698;" horiz-adv-x="379" arabic-form="isolated" 
d="M117.5 -84q35.5 13 54 31.5t18.5 51.5q0 7 -2 23l-40 287l125 19l40 -289q3 -25 3 -47q0 -70 -32.5 -116t-92.5 -75.5t-158 -56.5l-33 137q82 22 117.5 35zM131 623l67 67l67 -67l-67 -68zM17 478l81 82l83 -82l-83 -82zM216 478l81 82l83 -82l-83 -82z" />
    <glyph glyph-name="uni06A1.init" unicode="&#x6a1;" horiz-adv-x="491" 
d="M440 174q0 -60 -24 -98t-80 -57t-152 -19h-189v142h191q63 0 90 3.5t35.5 14.5t6.5 36q-75 -3 -101 -3q-81 0 -130 45.5t-50 126.5q-1 99 49 164t144 65q53 0 96 -27.5t69.5 -77t30.5 -113.5l13 -173q1 -10 1 -29zM168 339.5q16 -16.5 49 -16.5q48 0 90 4l-3 39
q-5 48 -26 74t-54 26t-52.5 -23.5t-19.5 -57.5q0 -29 16 -45.5z" />
    <glyph glyph-name="uni06A1.medi" unicode="&#x6a1;" horiz-adv-x="490" 
d="M495 142v-142h-58q-91 0 -189 37q-49 -17 -101.5 -27t-99.5 -10h-52v142h52q23 0 35 1q-34 44 -30 82l6 59q5 52 33 92.5t70.5 63.5t92.5 23q57 0 102.5 -31t69.5 -81.5t21 -106.5l-3 -46q-1 -27 -24 -56h17h58zM244 173q63 19 74 40l4 32q4 29 -16.5 53t-53.5 24
q-27 0 -47.5 -17.5t-22.5 -44.5l-4 -41q20 -27 66 -46z" />
    <glyph glyph-name="uni06A1.fina" unicode="&#x6a1;" horiz-adv-x="975" 
d="M980 142v-142h-58q-91 0 -189 37q-49 -17 -101.5 -27t-99.5 -10h-52q-113 0 -169.5 2t-89 8t-62.5 19q-53 23 -80.5 68t-27.5 104q0 34 9 70l38 146l122 -37l-39 -151q-5 -18 -5 -29q0 -14 8 -23.5t25 -17.5q22 -9 73 -13t203 -4h47q23 0 35 1q-34 44 -30 82l6 59
q5 52 33 92.5t70.5 63.5t92.5 23q57 0 102.5 -31t69.5 -81.5t21 -106.5l-3 -46q-1 -27 -24 -56h17h58zM729 173q63 19 74 40l4 32q4 29 -16.5 53t-53.5 24q-27 0 -47.5 -17.5t-22.5 -44.5l-4 -41q20 -27 66 -46z" />
    <glyph glyph-name="uni06A4" unicode="&#x6a4;" horiz-adv-x="975" arabic-form="isolated" 
d="M924 174q0 -60 -24 -98t-80 -57t-152 -19h-189q-113 0 -169.5 2t-89 8t-61.5 19q-53 23 -80.5 68t-27.5 104q0 34 9 70l38 146l122 -37l-39 -151q-5 -18 -5 -29q0 -14 8 -23.5t25 -17.5q22 -9 73 -13t203 -4h185q63 0 90 3.5t35.5 14.5t6.5 36q-75 -3 -101 -3
q-81 0 -130 45.5t-50 126.5q-1 99 49 164t144 65q53 0 96 -27.5t69.5 -77t30.5 -113.5l13 -173q1 -10 1 -29zM652 339.5q16 -16.5 49 -16.5q48 0 90 4l-3 39q-5 48 -26 74t-54 26t-52.5 -23.5t-19.5 -57.5q0 -29 16 -45.5zM649 863l67 67l67 -67l-67 -68zM535 718l81 82
l83 -82l-83 -82zM734 718l81 82l83 -82l-83 -82z" />
    <glyph glyph-name="uni06A9" unicode="&#x6a9;" horiz-adv-x="970" arabic-form="isolated" 
d="M826 285q42 -64 42 -129q0 -56 -32 -96q-22 -28 -57.5 -44t-82.5 -16h-217q-113 0 -169.5 2t-89 8t-61.5 19q-53 23 -80.5 68t-27.5 104q0 34 9 70l38 146l122 -37l-39 -151q-5 -18 -5 -29q0 -14 8 -23.5t25 -17.5q22 -9 73 -13t203 -4h213q20 0 28 7q13 11 13 26
q0 13 -9 25l-220 312l28 107l362 133l45 -132l-277 -102z" />
    <glyph glyph-name="uni06AF" unicode="&#x6af;" horiz-adv-x="970" arabic-form="isolated" 
d="M826 285q42 -64 42 -129q0 -56 -32 -96q-22 -28 -57.5 -44t-82.5 -16h-217q-113 0 -169.5 2t-89 8t-61.5 19q-53 23 -80.5 68t-27.5 104q0 34 9 70l38 146l122 -37l-39 -151q-5 -18 -5 -29q0 -14 8 -23.5t25 -17.5q22 -9 73 -13t203 -4h213q20 0 28 7q13 11 13 26
q0 13 -9 25l-220 312l28 107l362 133l45 -132l-277 -102zM777 884l31 -87l-244 -88l-31 87z" />
    <glyph glyph-name="uni06CC" unicode="&#x6cc;" horiz-adv-x="736" arabic-form="isolated" 
d="M319 -247q-82 0 -142.5 37.5t-93 106t-32.5 158.5q0 99 38 210l120 -47q-33 -96 -33 -166q0 -76 36.5 -116.5t104.5 -40.5q34 0 66 8q75 17 121.5 33t46.5 24q-1 3 -12 7t-22 7t-16 5q-42 12 -64 19q-69 23 -103.5 57.5t-34.5 92.5q0 34 14 82q26 85 88 142.5t143 57.5
q30 0 61 -9l65 -18l-33 -137l-65 18q-18 5 -31 5q-33 0 -56 -19t-35.5 -42t-15.5 -37q-4 -18 -4 -22q0 -16 13.5 -24t52.5 -20q7 -2 12 -4t10 -3q61 -18 88.5 -30t45.5 -32.5t25 -57.5q2 -9 2 -27q0 -72 -70.5 -125t-197.5 -82q-52 -11 -92 -11z" />
    <glyph glyph-name="uniFB51" unicode="&#x671;" horiz-adv-x="287" arabic-form="final" 
d="M167.5 22q-42.5 22 -63 71.5t-23.5 133.5l-14 360l126 6l14 -366q2 -43 6 -59t18 -21t51 -5h10v-142h-10q-72 0 -114.5 22zM299.5 820q28.5 -31 28.5 -78q0 -41 -30 -71t-70 -30h-139q-13 0 -21 -6t-25 -29l-54 41q24 33 41.5 47.5t40.5 18.5l33 45q34 46 60 69.5
t64 23.5q43 0 71.5 -31zM254.5 722.5q11.5 8.5 11.5 23.5q0 16 -11 26t-27 10q-17 0 -30.5 -11.5t-36.5 -41.5l-11 -15h78q15 0 26.5 8.5z" />
    <glyph glyph-name="uniFB57" unicode="&#x67e;" horiz-adv-x="977" arabic-form="final" 
d="M982 0q-78 0 -127 40q-51 -40 -129 -40h-241v142h241q38 0 52.5 10.5t12.5 33.5v2l-11 123l126 12l11 -123v-1q3 -34 16 -45.5t49 -11.5v-142zM312 2q-58 2 -90.5 8t-62.5 19q-53 23 -80.5 68t-27.5 104q0 34 9 70l38 146l122 -37l-39 -151q-5 -18 -5 -29q0 -14 8 -23.5
t25 -17.5q22 -9 73 -13t203 -4v-142q-115 0 -173 2zM424 -291l67 67l67 -67l-67 -68zM310 -147l81 82l83 -82l-83 -82zM509 -147l81 82l83 -82l-83 -82z" />
    <glyph glyph-name="uniFB58" unicode="&#x67e;" horiz-adv-x="408" arabic-form="initial" 
d="M148 142q42 0 62.5 12t20.5 42q0 16 -6 37l-39 149l121 36l42 -156q10 -36 10 -70q0 -58 -27 -101.5t-75 -67t-109 -23.5h-153v142h153zM40 -291l67 67l67 -67l-67 -68zM-74 -147l81 82l83 -82l-83 -82zM125 -147l81 82l83 -82l-83 -82z" />
    <glyph glyph-name="uniFB59" unicode="&#x67e;" horiz-adv-x="422" arabic-form="medial" 
d="M427 0q-78 0 -126 40q-51 -40 -130 -40h-176v142h176q39 0 53 10t12 34v2l-11 123l126 12l11 -123v-6q4 -32 16.5 -42t48.5 -10v-142zM119 -289l67 67l67 -67l-67 -68zM5 -145l81 82l83 -82l-83 -82zM204 -145l81 82l83 -82l-83 -82z" />
    <glyph glyph-name="uniFB6B" unicode="&#x6a4;" horiz-adv-x="975" arabic-form="final" 
d="M980 142v-142h-58q-91 0 -189 37q-49 -17 -101.5 -27t-99.5 -10h-52q-113 0 -169.5 2t-89 8t-62.5 19q-53 23 -80.5 68t-27.5 104q0 34 9 70l38 146l122 -37l-39 -151q-5 -18 -5 -29q0 -14 8 -23.5t25 -17.5q22 -9 73 -13t203 -4h47q23 0 35 1q-34 44 -30 82l6 59
q5 52 33 92.5t70.5 63.5t92.5 23q57 0 102.5 -31t69.5 -81.5t21 -106.5l-3 -46q-1 -27 -24 -56h17h58zM729 173q63 19 74 40l4 32q4 29 -16.5 53t-53.5 24q-27 0 -47.5 -17.5t-22.5 -44.5l-4 -41q20 -27 66 -46zM676 736l67 67l67 -67l-67 -68zM562 591l81 82l83 -82
l-83 -82zM761 591l81 82l83 -82l-83 -82z" />
    <glyph glyph-name="uniFB6C" unicode="&#x6a4;" horiz-adv-x="491" arabic-form="initial" 
d="M228 797l-68 68l68 66l66 -66zM127 638l-81 81l81 82l83 -82zM245 719l81 82l83 -82l-83 -81zM440 174q0 -60 -24 -98t-80 -57t-152 -19h-189v142h191q63 0 90 3.5t35.5 14.5t6.5 36q-75 -3 -101 -3q-81 0 -130 45.5t-50 126.5q-1 99 49 164t144 65q53 0 96 -27.5
t69.5 -77t30.5 -113.5l13 -173q1 -10 1 -29zM168 339.5q16 -16.5 49 -16.5q48 0 90 4l-3 39q-5 48 -26 74t-54 26t-52.5 -23.5t-19.5 -57.5q0 -29 16 -45.5z" />
    <glyph glyph-name="uniFB6D" unicode="&#x6a4;" horiz-adv-x="490" arabic-form="medial" 
d="M252 664l-67 68l67 66l67 -66zM152 505l-81 81l81 82l82 -82zM270 586l81 82l82 -82l-82 -81zM495 142v-142h-58q-91 0 -189 37q-49 -17 -101.5 -27t-99.5 -10h-52v142h52q23 0 35 1q-34 44 -30 82l6 59q5 52 33 92.5t70.5 63.5t92.5 23q57 0 102.5 -31t69.5 -81.5
t21 -106.5l-3 -46q-1 -27 -24 -56h17h58zM244 173q63 19 74 40l4 32q4 29 -16.5 53t-53.5 24q-27 0 -47.5 -17.5t-22.5 -44.5l-4 -41q20 -27 66 -46z" />
    <glyph glyph-name="uniFB7B" unicode="&#x686;" horiz-adv-x="739" arabic-form="final" 
d="M744 142v-142h-37q-68 0 -121 38.5t-77 101.5l-175 -48q-81 -21 -119 -62.5t-38 -92.5q0 -17 5 -39q13 -50 56.5 -81t100.5 -31q21 0 51 7l252 70l33 -137l-258 -71q-39 -10 -79 -10q-98 0 -174 57.5t-103 155.5q-11 42 -11 80q0 99 65 178.5t186 112.5l212 54l-165 83
q-22 12 -48 12q-25 0 -47 -12.5t-37 -36.5l-17 -32l-110 69l19 36q34 57 83.5 87.5t106.5 30.5t112 -30l261 -146l-18 -164l-17 -5q23 -33 71 -33h37zM475 -45l-84 45l45 84l83 -44zM274 34l83 -44l-44 -84l-85 45zM422 -161l-85 45l45 84l84 -44z" />
    <glyph glyph-name="uniFB7C" unicode="&#x686;" horiz-adv-x="672" arabic-form="initial" 
d="M622 272l-18 -164l-291 -78q-72 -19 -146 -24.5t-167 -5.5h-5v142h6q92 0 156 4t125 21l188 45l-162 82q-24 12 -48 12q-25 0 -47.5 -12.5t-36.5 -36.5l-17 -32l-111 69l20 36q32 58 81.5 88.5t106.5 30.5q58 0 113 -31zM259 -289l67 67l67 -67l-67 -68zM145 -145l81 82
l83 -82l-83 -82zM344 -145l81 82l83 -82l-83 -82z" />
    <glyph glyph-name="uniFB7D" unicode="&#x686;" horiz-adv-x="683" arabic-form="medial" 
d="M688 142v-142h-64q-49 0 -91.5 25.5t-66.5 68.5l-156 -48q-76 -23 -156 -34.5t-154 -11.5h-5v142h6q128 2 273 40l192 50l-166 75q-22 12 -46 12q-26 0 -47.5 -13t-35.5 -37l-18 -32l-110 69l20 36q35 58 84 88t105 30q55 0 110 -29l256 -136l-18 -149q14 -4 24 -4h64z
M248 -287l67 67l67 -67l-67 -68zM134 -143l81 82l83 -82l-83 -82zM333 -143l81 82l83 -82l-83 -82z" />
    <glyph glyph-name="uniFB8B" unicode="&#x698;" horiz-adv-x="406" arabic-form="final" 
d="M205 555l-68 68l68 66l67 -66zM105 396l-82 81l82 82l82 -82zM222 477l82 82l82 -82l-82 -81zM411 0h-70q-17 0 -25 1q2 -73 -29.5 -120.5t-92.5 -78.5t-161 -58l-33 137q82 22 117.5 35t54 31.5t18.5 51.5q0 7 -2 23l-40 287l125 19l13 -96q7 -41 14 -60t15.5 -24.5
t25.5 -5.5h70v-142z" />
    <glyph glyph-name="uniFB8F" unicode="&#x6a9;" horiz-adv-x="997" arabic-form="final" 
d="M1002 142v-142h-14q-81 0 -148 64l-3 -4q-22 -28 -57.5 -44t-82.5 -16h-217q-113 0 -169.5 2t-89 8t-62.5 19q-53 23 -80.5 68t-27.5 104q0 34 9 70l38 146l122 -37l-39 -151q-5 -18 -5 -29q0 -14 8 -23.5t25 -17.5q22 -9 73 -13t203 -4h214q20 0 28 7q13 11 13 26
q0 13 -9 25l-220 312l28 107l362 133l44 -132l-276 -102l158 -233q5 -7 13 -21q43 -72 74 -97t74 -25h14z" />
    <glyph glyph-name="uniFB90" unicode="&#x6a9;" horiz-adv-x="486" arabic-form="initial" 
d="M342 285q42 -64 42 -129q0 -56 -32 -96q-22 -28 -57.5 -44t-82.5 -16h-217v142h219q20 0 28 7q13 11 13 26q0 13 -9 25l-220 312l28 107l362 133l45 -132l-277 -102z" />
    <glyph glyph-name="uniFB91" unicode="&#x6a9;" horiz-adv-x="512" arabic-form="medial" 
d="M517 142v-142h-14q-82 0 -147 65l-4 -5q-22 -28 -57.5 -44t-82.5 -16h-217v142h219q20 0 28 7q13 11 13 26q0 13 -9 25l-220 312l28 107l362 133l45 -132l-277 -102l158 -233q5 -7 13 -21q43 -72 74 -97t74 -25h14z" />
    <glyph glyph-name="uniFB93" unicode="&#x6af;" horiz-adv-x="997" arabic-form="final" 
d="M1002 142v-142h-14q-81 0 -148 64l-3 -4q-22 -28 -57.5 -44t-82.5 -16h-217q-113 0 -169.5 2t-89 8t-62.5 19q-53 23 -80.5 68t-27.5 104q0 34 9 70l38 146l122 -37l-39 -151q-5 -18 -5 -29q0 -14 8 -23.5t25 -17.5q22 -9 73 -13t203 -4h214q20 0 28 7q13 11 13 26
q0 13 -9 25l-220 312l28 107l362 133l44 -132l-276 -102l158 -233q5 -7 13 -21q43 -72 74 -97t74 -25h14zM775 883l31 -87l-244 -88l-31 87z" />
    <glyph glyph-name="uniFB94" unicode="&#x6af;" horiz-adv-x="486" arabic-form="initial" 
d="M342 285q42 -64 42 -129q0 -56 -32 -96q-22 -28 -57.5 -44t-82.5 -16h-217v142h219q20 0 28 7q13 11 13 26q0 13 -9 25l-220 312l28 107l362 133l45 -132l-277 -102zM297 880l31 -87l-244 -88l-31 87z" />
    <glyph glyph-name="uniFB95" unicode="&#x6af;" horiz-adv-x="512" arabic-form="medial" 
d="M517 142v-142h-14q-82 0 -147 65l-4 -5q-22 -28 -57.5 -44t-82.5 -16h-217v142h219q20 0 28 7q13 11 13 26q0 13 -9 25l-220 312l28 107l362 133l45 -132l-277 -102l158 -233q5 -7 13 -21q43 -72 74 -97t74 -25h14zM297 880l31 -87l-244 -88l-31 87z" />
    <glyph glyph-name="uniFB9F" unicode="&#x6ba;" horiz-adv-x="729" arabic-form="final" 
d="M734 142v-142h-24q-17 0 -37 5q0 -70 -29.5 -116.5t-86.5 -75t-146 -49.5q-52 -11 -92 -11q-82 0 -142.5 37.5t-93 106t-32.5 158.5q0 99 38 210l120 -47q-33 -96 -33 -166q0 -76 36.5 -116.5t104.5 -40.5q34 0 66 8q69 16 100.5 26.5t47.5 28.5t16 50q0 8 -2 26l-41 275
l125 20l11 -74q9 -49 17 -73t19 -32t30 -8h28z" />
    <glyph glyph-name="uniFBFD" unicode="&#x6cc;" horiz-adv-x="713" arabic-form="final" 
d="M718 0q-34 0 -48 1q4 -95 -58.5 -150t-200.5 -87q-52 -11 -92 -11q-82 0 -142.5 37.5t-93 106t-32.5 158.5q0 99 38 210l120 -47q-33 -96 -33 -166q0 -75 36.5 -116t105.5 -41q28 0 65 8q66 15 98.5 26t47.5 26t15 40q0 10 -1 15q-1 12 -37 26l-100 32l38 135
q146 -40 190.5 -50.5t83.5 -10.5v-142z" />
    <glyph glyph-name="uniFBFE" unicode="&#x6cc;" horiz-adv-x="408" arabic-form="initial" 
d="M148 142q42 0 62.5 12t20.5 42q0 16 -6 37l-39 149l121 36l42 -156q10 -36 10 -70q0 -58 -27 -101.5t-75 -67t-109 -23.5h-153v142h153zM-77 -147l81 82l83 -82l-83 -82zM123 -147l81 82l83 -82l-83 -82z" />
    <glyph glyph-name="uniFBFF" unicode="&#x6cc;" horiz-adv-x="422" arabic-form="medial" 
d="M427 0q-78 0 -126 40q-51 -40 -130 -40h-176v142h176q39 0 53 10t12 34v2l-11 123l126 12l11 -123v-6q4 -32 16.5 -42t48.5 -10v-142zM6 -148l81 82l83 -82l-83 -82zM206 -148l81 82l83 -82l-83 -82z" />
    <glyph glyph-name="uniFDF2" unicode="&#xfdf2;" horiz-adv-x="1388" arabic-form="isolated" 
d="M703 923h-60v162h60v-162zM552 752q-25 24 -25 61q0 15 4 27l14 55l54 -15l-11 -50q-6 -30 28 -30q13 0 20 5.5t7 11.5l2 66h53l2 -66q0 -6 7 -11.5t21 -5.5q18 0 24.5 7.5t3.5 19.5l-17 70l56 17l21 -73q4 -12 4 -27q0 -37 -26 -61.5t-66 -24.5q-17 0 -32 5.5t-24 15.5
q-21 -21 -56 -21q-39 0 -64 24zM1041 198q3 -55 -19 -100t-66 -71.5t-106 -26.5h-33q-74 0 -124 45q-51 -45 -132 -45h-32q-53 0 -98.5 24t-76.5 66l-101 -16q-6 -1 -18 -1q-55 0 -105.5 39t-69.5 95q-10 29 -10 62q0 62 35.5 114.5t93.5 71.5l130 42v35h126v-304
q0 -36 27 -61t67 -25h32q39 0 52.5 13t12.5 37l-19 495l126 6l19 -489q1 -35 17.5 -48.5t47.5 -13.5h33q39 0 52.5 13t12.5 37l-19 495l126 6zM1318 2l-126 -6l-27 691l127 6zM309 226v2v130l-90 -32q-21 -7 -31.5 -22t-10.5 -33q0 -23 19.5 -41.5t45.5 -14.5z" />
    <glyph glyph-name="uniFDFC" unicode="&#xfdfc;" horiz-adv-x="1564" arabic-form="isolated" 
d="M670 48q3 -88 -24.5 -143t-84.5 -87t-151 -54q-51 -12 -95 -12q-81 0 -141.5 37.5t-92.5 106t-32 158.5q0 96 39 210l120 -48q-32 -92 -32 -165q0 -76 35.5 -117.5t102.5 -41.5q30 0 66 9q76 19 106.5 31t44.5 36t12 73l-25 646l127 6zM861.5 6q-41.5 22 -61.5 71
t-24 133l-18 460l126 6l18 -466q1 -42 5.5 -58.5t19 -21.5t50.5 -5h76q43 0 63.5 12t20.5 42q0 15 -6 37l-40 149l121 36l40 -149q11 -42 11 -76q0 -88 -58 -140.5t-152 -52.5h-79q-71 1 -112.5 23zM1515 -9q0 -70 -32.5 -115.5t-93 -75t-158.5 -56.5l-33 137
q82 22 117.5 35t54 31.5t18.5 51.5q0 7 -2 23l-40 287l125 19l40 -289q4 -34 4 -48zM856 -99l83 -82l-83 -82l-81 82zM1056 -99l82 -82l-82 -82l-81 82z" />
    <glyph glyph-name="uniFE82" unicode="&#x622;" horiz-adv-x="287" arabic-form="final" 
d="M167.5 22q-42.5 22 -63 71.5t-23.5 133.5l-14 360l126 6l14 -366q2 -43 6 -59t18 -21t51 -5h10v-142h-10q-72 0 -114.5 22zM25.5 711q25.5 26 66.5 26q7 0 23 -2l101 -19q4 -1 12 -1q27 0 27 24v4l64 5v-23q0 -43 -25.5 -69t-66.5 -26q-7 0 -23 2l-101 19q-4 1 -12 1
q-27 0 -27 -24v-4l-64 -5v23q0 43 25.5 69z" />
    <glyph glyph-name="uniFE84" unicode="&#x623;" horiz-adv-x="287" arabic-form="final" 
d="M167.5 22q-42.5 22 -63 71.5t-23.5 133.5l-14 360l126 6l14 -366q2 -43 6 -59t18 -21t51 -5h10v-142h-10q-72 0 -114.5 22zM186 680q-8 -2 -11 -2l-157 -37l-15 69l70 17q-12 19 -16 37q-3 14 -3 28q0 45 31.5 77.5t77.5 32.5q25 0 85 -12l-12 -69q-49 9 -74 9
q-20 0 -32.5 -11.5t-12.5 -28.5q0 -18 15 -30.5t35 -10.5l112 27l15 -70z" />
    <glyph glyph-name="uniFE86" unicode="&#x624;" horiz-adv-x="522" arabic-form="final" 
d="M527 0h-44q1 -79 -33.5 -125t-107.5 -74.5t-210 -56.5l-25 138q117 24 164 37.5t66.5 31t18.5 49.5h-107q-88 0 -140.5 55.5t-52.5 149.5q0 59 25.5 110.5t71 82.5t102.5 31q84 0 141 -64t68 -167l6 -56h57v-142zM197.5 157q14.5 -15 51.5 -15h93l-4 41q-6 51 -27.5 77.5
t-54.5 26.5q-34 0 -53.5 -23.5t-19.5 -58.5q0 -33 14.5 -48zM305 505q-8 -2 -11 -2l-157 -37l-15 69l70 17q-12 19 -16 37q-3 14 -3 28q0 45 31.5 77.5t77.5 32.5q25 0 85 -12l-12 -69q-49 9 -74 9q-20 0 -32.5 -11.5t-12.5 -28.5q0 -18 15 -30.5t35 -10.5l112 27l15 -70z
" />
    <glyph glyph-name="uniFE88" unicode="&#x625;" horiz-adv-x="283" arabic-form="final" 
d="M163.5 22q-42.5 22 -62.5 71.5t-24 133.5l-18 460l126 6l18 -466q1 -42 5.5 -58.5t19 -21.5t50.5 -5h10v-142h-10q-72 0 -114.5 22zM182 -253q-8 -2 -11 -2l-157 -37l-15 69l70 17q-12 19 -16 37q-3 14 -3 28q0 45 31.5 77.5t77.5 32.5q25 0 85 -12l-12 -69q-49 9 -74 9
q-20 0 -32.5 -11.5t-12.5 -28.5q0 -18 15 -30.5t35 -10.5l112 27l15 -70z" />
    <glyph glyph-name="uniFE8A" unicode="&#x626;" horiz-adv-x="713" arabic-form="final" 
d="M718 0q-34 0 -48 1q4 -95 -58.5 -150t-200.5 -87q-52 -11 -92 -11q-82 0 -142.5 37.5t-93 106t-32.5 158.5q0 99 38 210l120 -47q-33 -96 -33 -166q0 -75 36.5 -116t105.5 -41q28 0 65 8q66 15 98.5 26t47.5 26t15 40q0 10 -1 15q-1 12 -37 26l-100 32l38 135
q146 -40 190.5 -50.5t83.5 -10.5v-142zM413 286q-8 -2 -11 -2l-157 -37l-15 69l70 17q-12 19 -16 37q-3 14 -3 28q0 45 31.5 77.5t77.5 32.5q25 0 85 -12l-12 -69q-49 9 -74 9q-20 0 -32.5 -11.5t-12.5 -28.5q0 -18 15 -30.5t35 -10.5l112 27l15 -70z" />
    <glyph glyph-name="uniFE8B" unicode="&#x626;" horiz-adv-x="334" arabic-form="initial" 
d="M74 142q43 0 63.5 12t20.5 42q0 15 -6 37l-40 149l122 36l40 -149q10 -39 10 -76q0 -88 -58 -140.5t-152 -52.5h-79v142h79zM190 495q-8 -2 -11 -2l-157 -37l-15 69l70 17q-12 19 -16 37q-3 14 -3 28q0 45 31.5 77.5t77.5 32.5q25 0 85 -12l-12 -69q-49 9 -74 9
q-20 0 -32.5 -11.5t-12.5 -28.5q0 -18 15 -30.5t35 -10.5l112 27l15 -70z" />
    <glyph glyph-name="uniFE8C" unicode="&#x626;" horiz-adv-x="309" arabic-form="medial" 
d="M314 0q-78 0 -126 40q-51 -40 -130 -40h-63v142h63q39 0 53 10t12 34v2l-11 123l126 12l11 -123v-1q3 -34 16 -45.5t49 -11.5v-142zM191 419q-8 -2 -11 -2l-157 -37l-15 69l70 17q-12 19 -16 37q-3 14 -3 28q0 45 31.5 77.5t77.5 32.5q25 0 85 -12l-12 -69q-49 9 -74 9
q-20 0 -32.5 -11.5t-12.5 -28.5q0 -18 15 -30.5t35 -10.5l112 27l15 -70z" />
    <glyph glyph-name="uniFE8E" unicode="&#x627;" horiz-adv-x="283" arabic-form="final" 
d="M163.5 22q-42.5 22 -62.5 71.5t-24 133.5l-18 460l126 6l18 -466q1 -42 5.5 -58.5t19 -21.5t50.5 -5h10v-142h-10q-72 0 -114.5 22z" />
    <glyph glyph-name="uniFE90" unicode="&#x628;" horiz-adv-x="977" arabic-form="final" 
d="M982 0q-78 0 -127 40q-51 -40 -129 -40h-241v142h241q38 0 52.5 10.5t12.5 33.5v2l-11 123l126 12l11 -123v-1q3 -34 16 -45.5t49 -11.5v-142zM312 2q-58 2 -90.5 8t-62.5 19q-53 23 -80.5 68t-27.5 104q0 34 9 70l38 146l122 -37l-39 -151q-5 -18 -5 -29q0 -14 8 -23.5
t25 -17.5q22 -9 73 -13t203 -4v-142q-115 0 -173 2zM406 -147l92 93l93 -93l-93 -92z" />
    <glyph glyph-name="uniFE91" unicode="&#x628;" horiz-adv-x="334" arabic-form="initial" 
d="M74 142q43 0 63.5 12t20.5 42q0 15 -6 37l-40 149l122 36l40 -149q10 -39 10 -76q0 -88 -58 -140.5t-152 -52.5h-79v142h79zM-24 -148l92 93l93 -93l-93 -92z" />
    <glyph glyph-name="uniFE92" unicode="&#x628;" horiz-adv-x="309" arabic-form="medial" 
d="M314 0q-78 0 -126 40q-51 -40 -130 -40h-63v142h63q39 0 53 10t12 34v2l-11 123l126 12l11 -123v-1q3 -34 16 -45.5t49 -11.5v-142zM44 -147l92 93l93 -93l-93 -92z" />
    <glyph glyph-name="uniFE94" unicode="&#x629;" horiz-adv-x="543" arabic-form="final" 
d="M548 142v-142h-19q-53 0 -98.5 24t-76.5 66l-101 -16q-6 -1 -18 -1q-55 0 -105.5 39t-69.5 95q-10 29 -10 62q0 62 35.5 114.5t93.5 71.5l130 42v35h126v-304q0 -36 27 -61t67 -25h19zM309 226v2v130l-90 -32q-21 -7 -31.5 -22t-10.5 -33q0 -23 19.5 -41.5t45.5 -14.5z
M94 648l81 82l83 -82l-83 -82zM294 648l81 82l83 -82l-83 -82z" />
    <glyph glyph-name="uniFE96" unicode="&#x62a;" horiz-adv-x="977" arabic-form="final" 
d="M982 0q-78 0 -127 40q-51 -40 -129 -40h-241v142h241q38 0 52.5 10.5t12.5 33.5v2l-11 123l126 12l11 -123v-1q3 -34 16 -45.5t49 -11.5v-142zM312 2q-58 2 -90.5 8t-62.5 19q-53 23 -80.5 68t-27.5 104q0 34 9 70l38 146l122 -37l-39 -151q-5 -18 -5 -29q0 -14 8 -23.5
t25 -17.5q22 -9 73 -13t203 -4v-142q-115 0 -173 2zM307 430l81 82l83 -82l-83 -82zM507 430l81 82l83 -82l-83 -82z" />
    <glyph glyph-name="uniFE97" unicode="&#x62a;" horiz-adv-x="408" arabic-form="initial" 
d="M148 142q42 0 62.5 12t20.5 42q0 16 -6 37l-39 149l121 36l42 -156q10 -36 10 -70q0 -58 -27 -101.5t-75 -67t-109 -23.5h-153v142h153zM39 566l81 82l83 -82l-83 -82zM239 566l81 82l83 -82l-83 -82z" />
    <glyph glyph-name="uniFE98" unicode="&#x62a;" horiz-adv-x="422" arabic-form="medial" 
d="M427 0q-78 0 -126 40q-51 -40 -130 -40h-176v142h176q39 0 53 10t12 34v2l-11 123l126 12l11 -123v-6q4 -32 16.5 -42t48.5 -10v-142zM25 485l81 82l83 -82l-83 -82zM225 485l81 82l83 -82l-83 -82z" />
    <glyph glyph-name="uniFE9A" unicode="&#x62b;" horiz-adv-x="977" arabic-form="final" 
d="M982 0q-78 0 -127 40q-51 -40 -129 -40h-241v142h241q38 0 52.5 10.5t12.5 33.5v2l-11 123l126 12l11 -123v-1q3 -34 16 -45.5t49 -11.5v-142zM312 2q-58 2 -90.5 8t-62.5 19q-53 23 -80.5 68t-27.5 104q0 34 9 70l38 146l122 -37l-39 -151q-5 -18 -5 -29q0 -14 8 -23.5
t25 -17.5q22 -9 73 -13t203 -4v-142q-115 0 -173 2zM424 530l67 67l67 -67l-67 -68zM310 385l81 82l83 -82l-83 -82zM509 385l81 82l83 -82l-83 -82z" />
    <glyph glyph-name="uniFE9B" unicode="&#x62b;" horiz-adv-x="408" arabic-form="initial" 
d="M148 142q42 0 62.5 12t20.5 42q0 16 -6 37l-39 149l121 36l42 -156q10 -36 10 -70q0 -58 -27 -101.5t-75 -67t-109 -23.5h-153v142h153zM126 709l67 67l67 -67l-67 -68zM12 564l81 82l83 -82l-83 -82zM211 564l81 82l83 -82l-83 -82z" />
    <glyph glyph-name="uniFE9C" unicode="&#x62b;" horiz-adv-x="422" arabic-form="medial" 
d="M427 0q-78 0 -126 40q-51 -40 -130 -40h-176v142h176q39 0 53 10t12 34v2l-11 123l126 12l11 -123v-6q4 -32 16.5 -42t48.5 -10v-142zM132 629l67 67l67 -67l-67 -68zM18 484l81 82l83 -82l-83 -82zM217 484l81 82l83 -82l-83 -82z" />
    <glyph glyph-name="uniFE9E" unicode="&#x62c;" horiz-adv-x="739" arabic-form="final" 
d="M744 142v-142h-37q-68 0 -121 38.5t-77 101.5l-175 -48q-81 -21 -119 -62.5t-38 -92.5q0 -17 5 -39q13 -50 56.5 -81t100.5 -31q21 0 51 7l252 70l33 -137l-258 -71q-39 -10 -79 -10q-98 0 -174 57.5t-103 155.5q-11 42 -11 80q0 99 65 178.5t186 112.5l212 54l-165 83
q-22 12 -48 12q-25 0 -47 -12.5t-37 -36.5l-17 -32l-110 69l19 36q34 57 83.5 87.5t106.5 30.5t112 -30l261 -146l-18 -164l-17 -5q23 -33 71 -33h37zM315 -49l92 93l93 -93l-93 -92z" />
    <glyph glyph-name="uniFE9F" unicode="&#x62c;" horiz-adv-x="672" arabic-form="initial" 
d="M622 272l-18 -164l-291 -78q-72 -19 -146 -24.5t-167 -5.5h-5v142h6q92 0 156 4t125 21l188 45l-162 82q-24 12 -48 12q-25 0 -47.5 -12.5t-36.5 -36.5l-17 -32l-111 69l20 36q32 58 81.5 88.5t106.5 30.5q58 0 113 -31zM225 -143l92 93l93 -93l-93 -92z" />
    <glyph glyph-name="uniFEA0" unicode="&#x62c;" horiz-adv-x="683" arabic-form="medial" 
d="M688 142v-142h-64q-49 0 -91.5 25.5t-66.5 68.5l-156 -48q-76 -23 -156 -34.5t-154 -11.5h-5v142h6q128 2 273 40l192 50l-166 75q-22 12 -46 12q-26 0 -47.5 -13t-35.5 -37l-18 -32l-110 69l20 36q35 58 84 88t105 30q55 0 110 -29l256 -136l-18 -149q14 -4 24 -4h64z
M225 -143l92 93l93 -93l-93 -92z" />
    <glyph glyph-name="uniFEA2" unicode="&#x62d;" horiz-adv-x="739" arabic-form="final" 
d="M744 142v-142h-37q-68 0 -121 38.5t-77 101.5l-175 -48q-81 -21 -119 -62.5t-38 -92.5q0 -17 5 -39q13 -50 56.5 -81t100.5 -31q21 0 51 7l252 70l33 -137l-258 -71q-39 -10 -79 -10q-98 0 -174 57.5t-103 155.5q-11 42 -11 80q0 99 65 178.5t186 112.5l212 54l-165 83
q-22 12 -48 12q-25 0 -47 -12.5t-37 -36.5l-17 -32l-110 69l19 36q34 57 83.5 87.5t106.5 30.5t112 -30l261 -146l-18 -164l-17 -5q23 -33 71 -33h37z" />
    <glyph glyph-name="uniFEA3" unicode="&#x62d;" horiz-adv-x="672" arabic-form="initial" 
d="M622 272l-18 -164l-291 -78q-72 -19 -146 -24.5t-167 -5.5h-5v142h6q92 0 156 4t125 21l188 45l-162 82q-24 12 -48 12q-25 0 -47.5 -12.5t-36.5 -36.5l-17 -32l-111 69l20 36q32 58 81.5 88.5t106.5 30.5q58 0 113 -31z" />
    <glyph glyph-name="uniFEA4" unicode="&#x62d;" horiz-adv-x="683" arabic-form="medial" 
d="M688 142v-142h-64q-49 0 -91.5 25.5t-66.5 68.5l-156 -48q-76 -23 -156 -34.5t-154 -11.5h-5v142h6q128 2 273 40l192 50l-166 75q-22 12 -46 12q-26 0 -47.5 -13t-35.5 -37l-18 -32l-110 69l20 36q35 58 84 88t105 30q55 0 110 -29l256 -136l-18 -149q14 -4 24 -4h64z
" />
    <glyph glyph-name="uniFEA6" unicode="&#x62e;" horiz-adv-x="739" arabic-form="final" 
d="M744 142v-142h-37q-68 0 -121 38.5t-77 101.5l-175 -48q-81 -21 -119 -62.5t-38 -92.5q0 -17 5 -39q13 -50 56.5 -81t100.5 -31q21 0 51 7l252 70l33 -137l-258 -71q-39 -10 -79 -10q-98 0 -174 57.5t-103 155.5q-11 42 -11 80q0 99 65 178.5t186 112.5l212 54l-165 83
q-22 12 -48 12q-25 0 -47 -12.5t-37 -36.5l-17 -32l-110 69l19 36q34 57 83.5 87.5t106.5 30.5t112 -30l261 -146l-18 -164l-17 -5q23 -33 71 -33h37zM209 654l92 93l93 -93l-93 -92z" />
    <glyph glyph-name="uniFEA7" unicode="&#x62e;" horiz-adv-x="672" arabic-form="initial" 
d="M622 272l-18 -164l-291 -78q-72 -19 -146 -24.5t-167 -5.5h-5v142h6q92 0 156 4t125 21l188 45l-162 82q-24 12 -48 12q-25 0 -47.5 -12.5t-36.5 -36.5l-17 -32l-111 69l20 36q32 58 81.5 88.5t106.5 30.5q58 0 113 -31zM170 604l92 93l93 -93l-93 -92z" />
    <glyph glyph-name="uniFEA8" unicode="&#x62e;" horiz-adv-x="683" arabic-form="medial" 
d="M688 142v-142h-64q-49 0 -91.5 25.5t-66.5 68.5l-156 -48q-76 -23 -156 -34.5t-154 -11.5h-5v142h6q128 2 273 40l192 50l-166 75q-22 12 -46 12q-26 0 -47.5 -13t-35.5 -37l-18 -32l-110 69l20 36q35 58 84 88t105 30q55 0 110 -29l256 -136l-18 -149q14 -4 24 -4h64z
M169 604l92 93l93 -93l-93 -92z" />
    <glyph glyph-name="uniFEAA" unicode="&#x62f;" horiz-adv-x="595" arabic-form="final" 
d="M600 142v-142h-49q-66 0 -109 45q-55 -45 -143 -45h-63q-52 0 -92 18.5t-62.5 50.5t-24.5 70q-1 15 -1 65h116q0 -28 2 -41q1 -12 10.5 -16.5t29.5 -4.5h102q57 0 57 34q0 6 -1 9l-3 12l-74 293l123 34l75 -294q13 -53 23.5 -70.5t34.5 -17.5h49z" />
    <glyph glyph-name="uniFEAC" unicode="&#x630;" horiz-adv-x="595" arabic-form="final" 
d="M600 142v-142h-49q-66 0 -109 45q-55 -45 -143 -45h-63q-52 0 -92 18.5t-62.5 50.5t-24.5 70q-1 15 -1 65h116q0 -28 2 -41q1 -12 10.5 -16.5t29.5 -4.5h102q57 0 57 34q0 6 -1 9l-3 12l-74 293l123 34l75 -294q13 -53 23.5 -70.5t34.5 -17.5h49zM264 663l92 93l93 -93
l-93 -92z" />
    <glyph glyph-name="uniFEAE" unicode="&#x631;" horiz-adv-x="341" arabic-form="final" 
d="M346 142v-142h-5q-17 0 -25 1q2 -73 -29.5 -120.5t-92.5 -78.5t-161 -58l-33 137q82 22 117.5 35t54 31.5t18.5 51.5q0 7 -2 23l-40 287l125 19l13 -96q7 -41 14 -60t15.5 -24.5t25.5 -5.5h5z" />
    <glyph glyph-name="uniFEB0" unicode="&#x632;" horiz-adv-x="341" arabic-form="final" 
d="M346 142v-142h-5q-17 0 -25 1q2 -73 -29.5 -120.5t-92.5 -78.5t-161 -58l-33 137q82 22 117.5 35t54 31.5t18.5 51.5q0 7 -2 23l-40 287l125 19l13 -96q7 -41 14 -60t15.5 -24.5t25.5 -5.5h5zM109 496l92 93l93 -93l-93 -92z" />
    <glyph glyph-name="uniFEB2" unicode="&#x633;" horiz-adv-x="1263" arabic-form="final" 
d="M1268 0q-82 0 -141 56q-24 -27 -58.5 -41.5t-75.5 -14.5q-76 0 -127 51q-51 -51 -122 -51q-37 0 -72 19q4 -75 -25 -124t-86.5 -79.5t-149.5 -51.5q-52 -11 -92 -11q-82 0 -142.5 37.5t-93 106t-32.5 158.5q0 99 38 210l120 -47q-33 -96 -33 -166q0 -76 36.5 -116.5
t104.5 -40.5q34 0 66 8q69 16 100.5 26.5t47.5 28.5t16 50q0 8 -2 26l-41 275l125 20l17 -112q9 -43 30.5 -58.5t63.5 -15.5q38 0 51.5 13t13.5 38v124h119v-124q0 -17 11.5 -33.5t49.5 -16.5q35 0 51.5 10t16.5 26q0 4 -2 12l-33 123l114 34l33 -123l2 -8
q10 -35 37.5 -55.5t63.5 -20.5v-142z" />
    <glyph glyph-name="uniFEB3" unicode="&#x633;" horiz-adv-x="771" arabic-form="initial" 
d="M720 192q0 -57 -24.5 -100.5t-68 -67.5t-99.5 -24q-71 0 -120 46q-48 -46 -123 -46q-70 0 -118 48q-50 -48 -125 -48h-47v142h47q39 0 52 13t13 37v2v124h118v-124q0 -52 60 -52q39 0 52 12.5t13 37.5v2v124h119v-124v-4q0 -24 14.5 -36t44.5 -12q33 0 49.5 11.5
t16.5 39.5q0 16 -6 40l-40 149l121 36l40 -149q11 -42 11 -77z" />
    <glyph glyph-name="uniFEB4" unicode="&#x633;" horiz-adv-x="790" arabic-form="medial" 
d="M795 0q-82 0 -141 56q-24 -27 -58 -41.5t-75 -14.5q-71 0 -124 53q-50 -53 -129 -53q-69 0 -119 52q-52 -52 -125 -52h-29v142h29q40 0 52.5 13t12.5 39v124h119v-124q3 -52 60 -52q39 0 52 13.5t13 38.5v124h118v-124q1 -21 16 -35.5t45 -14.5q68 0 68 36q0 4 -2 12
l-33 123l114 34l33 -123q1 -2 1 -6q10 -36 38 -57t64 -21v-142z" />
    <glyph glyph-name="uniFEB6" unicode="&#x634;" horiz-adv-x="1263" arabic-form="final" 
d="M1268 0q-82 0 -141 56q-24 -27 -58.5 -41.5t-75.5 -14.5q-76 0 -127 51q-51 -51 -122 -51q-37 0 -72 19q4 -75 -25 -124t-86.5 -79.5t-149.5 -51.5q-52 -11 -92 -11q-82 0 -142.5 37.5t-93 106t-32.5 158.5q0 99 38 210l120 -47q-33 -96 -33 -166q0 -76 36.5 -116.5
t104.5 -40.5q34 0 66 8q69 16 100.5 26.5t47.5 28.5t16 50q0 8 -2 26l-41 275l125 20l17 -112q9 -43 30.5 -58.5t63.5 -15.5q38 0 51.5 13t13.5 38v124h119v-124q0 -17 11.5 -33.5t49.5 -16.5q35 0 51.5 10t16.5 26q0 4 -2 12l-33 123l114 34l33 -123l2 -8
q10 -35 37.5 -55.5t63.5 -20.5v-142zM799 638l67 67l67 -67l-67 -68zM685 493l81 82l83 -82l-83 -82zM884 493l81 82l83 -82l-83 -82z" />
    <glyph glyph-name="uniFEB7" unicode="&#x634;" horiz-adv-x="771" arabic-form="initial" 
d="M720 192q0 -57 -24.5 -100.5t-68 -67.5t-99.5 -24q-71 0 -120 46q-48 -46 -123 -46q-70 0 -118 48q-50 -48 -125 -48h-47v142h47q39 0 52 13t13 37v2v124h118v-124q0 -52 60 -52q39 0 52 12.5t13 37.5v2v124h119v-124v-4q0 -24 14.5 -36t44.5 -12q33 0 49.5 11.5
t16.5 39.5q0 16 -6 40l-40 149l121 36l40 -149q11 -42 11 -77zM339 641l67 67l67 -67l-67 -68zM225 496l81 82l83 -82l-83 -82zM424 496l81 82l83 -82l-83 -82z" />
    <glyph glyph-name="uniFEB8" unicode="&#x634;" horiz-adv-x="790" arabic-form="medial" 
d="M795 0q-82 0 -141 56q-24 -27 -58 -41.5t-75 -14.5q-71 0 -124 53q-50 -53 -129 -53q-69 0 -119 52q-52 -52 -125 -52h-29v142h29q40 0 52.5 13t12.5 39v124h119v-124q3 -52 60 -52q39 0 52 13.5t13 38.5v124h118v-124q1 -21 16 -35.5t45 -14.5q68 0 68 36q0 4 -2 12
l-33 123l114 34l33 -123q1 -2 1 -6q10 -36 38 -57t64 -21v-142zM330 617l67 67l67 -67l-67 -68zM216 472l81 82l83 -82l-83 -82zM415 472l81 82l83 -82l-83 -82z" />
    <glyph glyph-name="uniFEBA" unicode="&#x635;" horiz-adv-x="1319" arabic-form="final" 
d="M1324 142v-142h-14q-41 0 -75.5 14.5t-59.5 33.5q-56 -48 -129 -48h-318h-18q-17 0 -37 5q0 -70 -29.5 -116.5t-86.5 -75t-146 -49.5q-52 -11 -92 -11q-82 0 -142.5 37.5t-93 106t-32.5 158.5q0 99 38 210l120 -47q-33 -96 -33 -166q0 -76 36.5 -116.5t104.5 -40.5
q34 0 66 8q69 16 100.5 26.5t47.5 28.5t16 50q0 8 -2 26l-41 275l125 20l11 -74q9 -49 17 -73t19 -32t30 -8h22h1l63 86q55 76 90 116.5t74.5 62.5t89.5 22q58 0 105 -29.5t74 -80t27 -112.5q0 -21 -5 -44q9 -8 25 -14.5t38 -6.5h14zM1101.5 162.5q24.5 20.5 24.5 44.5
q0 35 -22.5 57.5t-57.5 22.5q-23 0 -43 -12.5t-43 -41t-64 -85.5l-4 -6h154q31 0 55.5 20.5z" />
    <glyph glyph-name="uniFEBB" unicode="&#x635;" horiz-adv-x="807" arabic-form="initial" 
d="M655.5 399.5q47.5 -29.5 74.5 -80t27 -112.5q0 -55 -28.5 -102.5t-76 -76t-102.5 -28.5h-318q-58 0 -101 41q-53 -39 -131 -41h-5v142h5q38 0 57.5 12.5t22.5 44.5l11 124l126 -12l-11 -123q-2 -25 4.5 -35.5t22.5 -10.5h1l62 86q56 77 91 117t74 62t89 22
q58 0 105.5 -29.5zM605.5 162.5q24.5 20.5 24.5 44.5q0 35 -22 57.5t-58 22.5q-23 0 -42.5 -12.5t-42.5 -40.5t-64 -86l-4 -6h153q31 0 55.5 20.5z" />
    <glyph glyph-name="uniFEBC" unicode="&#x635;" horiz-adv-x="823" arabic-form="medial" 
d="M828 142v-142h-14q-40 0 -74.5 14.5t-59.5 33.5q-58 -48 -130 -48h-318q-58 0 -101 41q-53 -39 -131 -41h-5v142h5q38 0 57.5 12.5t22.5 44.5l11 124l126 -12l-11 -123q-2 -25 4.5 -35.5t22.5 -10.5h1l62 86q56 77 91 117t74 62t89 22q58 0 105.5 -29.5t74.5 -80
t27 -112.5q0 -20 -5 -45q26 -20 62 -20h14zM605.5 162.5q24.5 20.5 24.5 44.5q0 35 -22 57.5t-58 22.5q-23 0 -42.5 -12.5t-42.5 -40.5t-64 -86l-4 -6h153q31 0 55.5 20.5z" />
    <glyph glyph-name="uniFEBE" unicode="&#x636;" horiz-adv-x="1319" arabic-form="final" 
d="M1324 142v-142h-14q-41 0 -75.5 14.5t-59.5 33.5q-56 -48 -129 -48h-318h-18q-17 0 -37 5q0 -70 -29.5 -116.5t-86.5 -75t-146 -49.5q-52 -11 -92 -11q-82 0 -142.5 37.5t-93 106t-32.5 158.5q0 99 38 210l120 -47q-33 -96 -33 -166q0 -76 36.5 -116.5t104.5 -40.5
q34 0 66 8q69 16 100.5 26.5t47.5 28.5t16 50q0 8 -2 26l-41 275l125 20l11 -74q9 -49 17 -73t19 -32t30 -8h22h1l63 86q55 76 90 116.5t74.5 62.5t89.5 22q58 0 105 -29.5t74 -80t27 -112.5q0 -21 -5 -44q9 -8 25 -14.5t38 -6.5h14zM1101.5 162.5q24.5 20.5 24.5 44.5
q0 35 -22.5 57.5t-57.5 22.5q-23 0 -43 -12.5t-43 -41t-64 -85.5l-4 -6h154q31 0 55.5 20.5zM935 594l92 93l93 -93l-93 -92z" />
    <glyph glyph-name="uniFEBF" unicode="&#x636;" horiz-adv-x="807" arabic-form="initial" 
d="M655.5 399.5q47.5 -29.5 74.5 -80t27 -112.5q0 -55 -28.5 -102.5t-76 -76t-102.5 -28.5h-318q-58 0 -101 41q-53 -39 -131 -41h-5v142h5q38 0 57.5 12.5t22.5 44.5l11 124l126 -12l-11 -123q-2 -25 4.5 -35.5t22.5 -10.5h1l62 86q56 77 91 117t74 62t89 22
q58 0 105.5 -29.5zM605.5 162.5q24.5 20.5 24.5 44.5q0 35 -22 57.5t-58 22.5q-23 0 -42.5 -12.5t-42.5 -40.5t-64 -86l-4 -6h153q31 0 55.5 20.5zM440 569l92 93l93 -93l-93 -92z" />
    <glyph glyph-name="uniFEC0" unicode="&#x636;" horiz-adv-x="823" arabic-form="medial" 
d="M828 142v-142h-14q-40 0 -74.5 14.5t-59.5 33.5q-58 -48 -130 -48h-318q-58 0 -101 41q-53 -39 -131 -41h-5v142h5q38 0 57.5 12.5t22.5 44.5l11 124l126 -12l-11 -123q-2 -25 4.5 -35.5t22.5 -10.5h1l62 86q56 77 91 117t74 62t89 22q58 0 105.5 -29.5t74.5 -80
t27 -112.5q0 -20 -5 -45q26 -20 62 -20h14zM605.5 162.5q24.5 20.5 24.5 44.5q0 35 -22 57.5t-58 22.5q-23 0 -42.5 -12.5t-42.5 -40.5t-64 -86l-4 -6h153q31 0 55.5 20.5zM434 580l92 93l93 -93l-93 -92z" />
    <glyph glyph-name="uniFEC2" unicode="&#x637;" horiz-adv-x="703" arabic-form="final" 
d="M708 142v-142h-14q-60 0 -119 37q-55 -37 -116 -37h-409v142h93l28 39l-20 506l127 6l14 -353q40 46 79 67.5t88 21.5q58 0 105.5 -29.5t74.5 -80t27 -112.5q0 -30 -9 -59q20 -6 37 -6h14zM514.5 162.5q24.5 20.5 24.5 44.5q0 35 -22 57.5t-58 22.5q-23 0 -42.5 -12.5
t-42.5 -40.5t-64 -86l-4 -6h153q31 0 55.5 20.5z" />
    <glyph glyph-name="uniFEC3" unicode="&#x637;" horiz-adv-x="661" arabic-form="initial" 
d="M509.5 399.5q47.5 -29.5 74.5 -80t27 -112.5q0 -55 -28.5 -102.5t-76 -76t-102.5 -28.5h-409v142h93l28 39l-20 506l127 6l14 -353q40 46 79 67.5t88 21.5q58 0 105.5 -29.5zM459.5 162.5q24.5 20.5 24.5 44.5q0 35 -22 57.5t-58 22.5q-23 0 -42.5 -12.5t-42.5 -40.5
t-64 -86l-4 -6h153q31 0 55.5 20.5z" />
    <glyph glyph-name="uniFEC4" unicode="&#x637;" horiz-adv-x="677" arabic-form="medial" 
d="M682 142v-142h-14q-40 0 -74.5 14.5t-59.5 33.5q-58 -48 -130 -48h-409v142h93l28 39l-20 506l127 6l14 -353q40 46 79 67.5t88 21.5q58 0 105.5 -29.5t74.5 -80t27 -112.5q0 -20 -5 -45q26 -20 62 -20h14zM459.5 162.5q24.5 20.5 24.5 44.5q0 35 -22 57.5t-58 22.5
q-23 0 -42.5 -12.5t-42.5 -40.5t-64 -86l-4 -6h153q31 0 55.5 20.5z" />
    <glyph glyph-name="uniFEC6" unicode="&#x638;" horiz-adv-x="703" arabic-form="final" 
d="M708 142v-142h-14q-60 0 -119 37q-55 -37 -116 -37h-409v142h93l28 39l-20 506l127 6l14 -353q40 46 79 67.5t88 21.5q58 0 105.5 -29.5t74.5 -80t27 -112.5q0 -30 -9 -59q20 -6 37 -6h14zM514.5 162.5q24.5 20.5 24.5 44.5q0 35 -22 57.5t-58 22.5q-23 0 -42.5 -12.5
t-42.5 -40.5t-64 -86l-4 -6h153q31 0 55.5 20.5zM384 601l92 93l93 -93l-93 -92z" />
    <glyph glyph-name="uniFEC7" unicode="&#x638;" horiz-adv-x="661" arabic-form="initial" 
d="M509.5 399.5q47.5 -29.5 74.5 -80t27 -112.5q0 -55 -28.5 -102.5t-76 -76t-102.5 -28.5h-409v142h93l28 39l-20 506l127 6l14 -353q40 46 79 67.5t88 21.5q58 0 105.5 -29.5zM459.5 162.5q24.5 20.5 24.5 44.5q0 35 -22 57.5t-58 22.5q-23 0 -42.5 -12.5t-42.5 -40.5
t-64 -86l-4 -6h153q31 0 55.5 20.5zM316 601l92 93l93 -93l-93 -92z" />
    <glyph glyph-name="uniFEC8" unicode="&#x638;" horiz-adv-x="677" arabic-form="medial" 
d="M682 142v-142h-14q-40 0 -74.5 14.5t-59.5 33.5q-58 -48 -130 -48h-409v142h93l28 39l-20 506l127 6l14 -353q40 46 79 67.5t88 21.5q58 0 105.5 -29.5t74.5 -80t27 -112.5q0 -20 -5 -45q26 -20 62 -20h14zM459.5 162.5q24.5 20.5 24.5 44.5q0 35 -22 57.5t-58 22.5
q-23 0 -42.5 -12.5t-42.5 -40.5t-64 -86l-4 -6h153q31 0 55.5 20.5zM311 601l92 93l93 -93l-93 -92z" />
    <glyph glyph-name="uniFECA" unicode="&#x639;" horiz-adv-x="622" arabic-form="final" 
d="M627 142v-142q-111 0 -161 3t-86 18t-63 50l-20 26q-120 -50 -120 -127q0 -29 16.5 -53.5t44 -37.5t58.5 -11l293 25l11 -142l-294 -25l-18 -1q-61 0 -113.5 30t-85.5 81.5t-38 114.5q-1 9 -1 25q0 80 44.5 132.5t129.5 86.5l-110 145l36 111l245 37q14 2 21 2
q42 0 76.5 -23.5t54.5 -61t20 -78.5q0 -39 -21 -74q-36 -69 -104 -105q43 -6 185 -6zM368 353q-95 -12 -96 -11l84 -107q46 15 69 42t27 61q2 6 2 9q0 8 -5.5 12t-13.5 3q-45 -6 -67 -9z" />
    <glyph glyph-name="uniFECB" unicode="&#x639;" horiz-adv-x="535" arabic-form="initial" 
d="M485 46l-172 -33q-50 -10 -306 -13h-12v142h10l82 1q-5 13 -11 39q-4 28 -4 41q0 50 21.5 94.5t59.5 74.5t88 39q16 2 27 2q58 0 149 -24l-34 -137q-75 20 -108 20t-54.5 -20t-21.5 -50q0 -28 21.5 -49t50.5 -22q10 0 20 2v-1l170 32z" />
    <glyph glyph-name="uniFECC" unicode="&#x639;" horiz-adv-x="522" arabic-form="medial" 
d="M527 0q-115 0 -177.5 7t-109.5 32q-115 -39 -227 -39h-18v142h18q74 0 123 4l-100 134l36 111l244 36q14 2 22 2q41 0 75.5 -22t54.5 -59t20 -78q0 -32 -12 -62q-13 -34 -46 -65q28 -1 97 -1v-142zM279 175q81 32 96 104l2 8q0 8 -5.5 12t-13.5 3l-164 -20z" />
    <glyph glyph-name="uniFECE" unicode="&#x63a;" horiz-adv-x="622" arabic-form="final" 
d="M627 142v-142q-111 0 -161 3t-86 18t-63 50l-20 26q-120 -50 -120 -127q0 -29 16.5 -53.5t44 -37.5t58.5 -11l293 25l11 -142l-294 -25l-18 -1q-61 0 -113.5 30t-85.5 81.5t-38 114.5q-1 9 -1 25q0 80 44.5 132.5t129.5 86.5l-110 145l36 111l245 37q14 2 21 2
q42 0 76.5 -23.5t54.5 -61t20 -78.5q0 -39 -21 -74q-36 -69 -104 -105q43 -6 185 -6zM368 353q-95 -12 -96 -11l84 -107q46 15 69 42t27 61q2 6 2 9q0 8 -5.5 12t-13.5 3q-45 -6 -67 -9zM249 619l92 93l93 -93l-93 -92z" />
    <glyph glyph-name="uniFECF" unicode="&#x63a;" horiz-adv-x="535" arabic-form="initial" 
d="M485 46l-172 -33q-50 -10 -306 -13h-12v142h10l82 1q-5 13 -11 39q-4 28 -4 41q0 50 21.5 94.5t59.5 74.5t88 39q16 2 27 2q58 0 149 -24l-34 -137q-75 20 -108 20t-54.5 -20t-21.5 -50q0 -28 21.5 -49t50.5 -22q10 0 20 2v-1l170 32zM156 572l92 93l93 -93l-93 -92z" />
    <glyph glyph-name="uniFED0" unicode="&#x63a;" horiz-adv-x="522" arabic-form="medial" 
d="M527 0q-115 0 -177.5 7t-109.5 32q-115 -39 -227 -39h-18v142h18q74 0 123 4l-100 134l36 111l244 36q14 2 22 2q41 0 75.5 -22t54.5 -59t20 -78q0 -32 -12 -62q-13 -34 -46 -65q28 -1 97 -1v-142zM279 175q81 32 96 104l2 8q0 8 -5.5 12t-13.5 3l-164 -20zM181 586
l92 93l93 -93l-93 -92z" />
    <glyph glyph-name="uniFED2" unicode="&#x641;" horiz-adv-x="975" arabic-form="final" 
d="M980 142v-142h-58q-91 0 -189 37q-49 -17 -101.5 -27t-99.5 -10h-52q-113 0 -169.5 2t-89 8t-62.5 19q-53 23 -80.5 68t-27.5 104q0 34 9 70l38 146l122 -37l-39 -151q-5 -18 -5 -29q0 -14 8 -23.5t25 -17.5q22 -9 73 -13t203 -4h47q23 0 35 1q-34 44 -30 82l6 59
q5 52 33 92.5t70.5 63.5t92.5 23q57 0 102.5 -31t69.5 -81.5t21 -106.5l-3 -46q-1 -27 -24 -56h17h58zM729 173q63 19 74 40l4 32q4 29 -16.5 53t-53.5 24q-27 0 -47.5 -17.5t-22.5 -44.5l-4 -41q20 -27 66 -46zM664 596l92 93l93 -93l-93 -92z" />
    <glyph glyph-name="uniFED3" unicode="&#x641;" horiz-adv-x="491" arabic-form="initial" 
d="M224 663l-92 92l92 93l93 -93zM440 174q0 -60 -24 -98t-80 -57t-152 -19h-189v142h191q63 0 90 3.5t35.5 14.5t6.5 36q-75 -3 -101 -3q-81 0 -130 45.5t-50 126.5q-1 99 49 164t144 65q53 0 96 -27.5t69.5 -77t30.5 -113.5l13 -173q1 -10 1 -29zM168 339.5
q16 -16.5 49 -16.5q48 0 90 4l-3 39q-5 48 -26 74t-54 26t-52.5 -23.5t-19.5 -57.5q0 -29 16 -45.5z" />
    <glyph glyph-name="uniFED4" unicode="&#x641;" horiz-adv-x="490" arabic-form="medial" 
d="M263 531l-92 93l92 92l92 -92zM495 142v-142h-58q-91 0 -189 37q-49 -17 -101.5 -27t-99.5 -10h-52v142h52q23 0 35 1q-34 44 -30 82l6 59q5 52 33 92.5t70.5 63.5t92.5 23q57 0 102.5 -31t69.5 -81.5t21 -106.5l-3 -46q-1 -27 -24 -56h17h58zM244 173q63 19 74 40l4 32
q4 29 -16.5 53t-53.5 24q-27 0 -47.5 -17.5t-22.5 -44.5l-4 -41q20 -27 66 -46z" />
    <glyph glyph-name="uniFED6" unicode="&#x642;" horiz-adv-x="740" arabic-form="final" 
d="M319 -247q-82 0 -142.5 37.5t-93 106t-32.5 158.5q0 99 38 210l120 -47q-33 -96 -33 -166q0 -76 36.5 -116.5t104.5 -40.5q34 0 66 8q91 20 141 39t48 47l-1 11h-104q-88 0 -140.5 55.5t-52.5 149.5q0 59 25.5 110.5t71 82.5t102.5 31q84 0 141 -64t68 -167l6 -56h57
v-142h-44v-18q-3 -63 -34.5 -103t-92 -66t-163.5 -49q-52 -11 -92 -11zM556 183q-5 51 -26.5 77.5t-55.5 26.5t-53.5 -23.5t-19.5 -58.5q0 -33 14.5 -48t51.5 -15h93zM287 544l81 82l83 -82l-83 -82zM487 544l81 82l83 -82l-83 -82z" />
    <glyph glyph-name="uniFED7" unicode="&#x642;" horiz-adv-x="491" arabic-form="initial" 
d="M124 651l-82 81l82 82l82 -82zM324 651l-82 81l82 82l82 -82zM440 174q0 -60 -24 -98t-80 -57t-152 -19h-189v142h191q63 0 90 3.5t35.5 14.5t6.5 36q-75 -3 -101 -3q-81 0 -130 45.5t-50 126.5q-1 99 49 164t144 65q53 0 96 -27.5t69.5 -77t30.5 -113.5l13 -173
q1 -10 1 -29zM168 339.5q16 -16.5 49 -16.5q48 0 90 4l-3 39q-5 48 -26 74t-54 26t-52.5 -23.5t-19.5 -57.5q0 -29 16 -45.5z" />
    <glyph glyph-name="uniFED8" unicode="&#x642;" horiz-adv-x="490" arabic-form="medial" 
d="M162 549l-82 81l82 82l82 -82zM362 549l-82 81l82 82l82 -82zM495 142v-142h-58q-91 0 -189 37q-49 -17 -101.5 -27t-99.5 -10h-52v142h52q23 0 35 1q-34 44 -30 82l6 59q5 52 33 92.5t70.5 63.5t92.5 23q57 0 102.5 -31t69.5 -81.5t21 -106.5l-3 -46q-1 -27 -24 -56h17
h58zM244 173q63 19 74 40l4 32q4 29 -16.5 53t-53.5 24q-27 0 -47.5 -17.5t-22.5 -44.5l-4 -41q20 -27 66 -46z" />
    <glyph glyph-name="uniFEDA" unicode="&#x643;" horiz-adv-x="997" arabic-form="final" 
d="M1002 142v-142h-14q-81 0 -148 64l-3 -4q-22 -28 -57.5 -44t-82.5 -16h-217q-113 0 -169.5 2t-89 8t-62.5 19q-53 23 -80.5 68t-27.5 104q0 34 9 70l38 146l122 -37l-39 -151q-5 -18 -5 -29q0 -14 8 -23.5t25 -17.5q22 -9 73 -13t203 -4h214q20 0 28 7q13 11 13 26
q0 13 -9 25l-220 312l28 107l362 133l44 -132l-276 -102l158 -233q5 -7 13 -21q43 -72 74 -97t74 -25h14z" />
    <glyph glyph-name="uniFEDB" unicode="&#x643;" horiz-adv-x="486" arabic-form="initial" 
d="M342 285q42 -64 42 -129q0 -56 -32 -96q-22 -28 -57.5 -44t-82.5 -16h-217v142h219q20 0 28 7q13 11 13 26q0 13 -9 25l-220 312l28 107l362 133l45 -132l-277 -102z" />
    <glyph glyph-name="uniFEDC" unicode="&#x643;" horiz-adv-x="512" arabic-form="medial" 
d="M517 142v-142h-14q-82 0 -147 65l-4 -5q-22 -28 -57.5 -44t-82.5 -16h-217v142h219q20 0 28 7q13 11 13 26q0 13 -9 25l-220 312l28 107l362 133l45 -132l-277 -102l158 -233q5 -7 13 -21q43 -72 74 -97t74 -25h14z" />
    <glyph glyph-name="uniFEDE" unicode="&#x644;" horiz-adv-x="743" arabic-form="final" 
d="M748 142v-142h-20q-29 0 -58 8q-3 -73 -33 -120t-85 -75t-142 -49q-51 -12 -95 -12q-81 0 -141.5 37.5t-92.5 106t-32 158.5q0 96 39 210l120 -48q-32 -92 -32 -165q0 -76 35.5 -117.5t102.5 -41.5q30 0 66 9q76 19 106.5 31t44.5 36t12 73l-25 646l127 6l19 -489
q1 -35 17 -48.5t47 -13.5h20z" />
    <glyph glyph-name="uniFEDF" unicode="&#x644;" horiz-adv-x="259" arabic-form="initial" 
d="M190 98q-22 -45 -66 -71.5t-106 -26.5h-25v142h25q39 0 52.5 13t12.5 37l-19 495l126 6l19 -495q3 -55 -19 -100z" />
    <glyph glyph-name="uniFEE0" unicode="&#x644;" horiz-adv-x="289" arabic-form="medial" 
d="M294 142v-142h-20q-74 0 -124 45q-51 -45 -132 -45h-25v142h25q39 0 52.5 13t12.5 37l-19 495l126 6l19 -489q1 -35 17.5 -48.5t47.5 -13.5h20z" />
    <glyph glyph-name="uniFEE2" unicode="&#x645;" horiz-adv-x="607" arabic-form="final" 
d="M612 142v-142q-78 0 -124 48q-20 -26 -47 -40t-57 -14t-60 15l-148 76l19 -380l-126 -5l-19 499l86 58l33 -17l44 86q23 44 62.5 68.5t84.5 24.5q43 0 79 -20q49 -26 75 -78.5t24 -116.5q5 -62 74 -62zM427 216q0 42 -33 61q-13 7 -26 7q-39 0 -65 -52l-25 -48l114 -58
q4 -3 5.5 -3.5t4.5 4.5q25 50 25 89z" />
    <glyph glyph-name="uniFEE3" unicode="&#x645;" horiz-adv-x="532" arabic-form="initial" 
d="M455.5 323q25.5 -50 25.5 -111q0 -76 -36 -142q-19 -35 -50.5 -55t-68.5 -20q-31 0 -61 15l-112 58q-59 -68 -147 -68h-11v142h11q25 0 44.5 10.5t30.5 28.5l74 143q24 45 64 70.5t85 25.5q40 0 79 -21q47 -26 72.5 -76zM371 214q0 43 -33 62q-14 8 -27 8q-39 0 -65 -52
l-25 -48l115 -58q4 -3 5.5 -3.5t3.5 4.5q26 50 26 87z" />
    <glyph glyph-name="uniFEE4" unicode="&#x645;" horiz-adv-x="551" arabic-form="medial" 
d="M556 142v-142q-77 0 -125 48q-20 -25 -47.5 -39t-57.5 -14q-31 0 -61 15l-112 58q-59 -68 -147 -68h-11v142h11q25 0 44.5 10.5t30.5 28.5l74 143q24 45 64 70.5t85 25.5q40 0 79 -21q47 -26 72.5 -76t25.5 -110h1q0 -71 74 -71zM371 214q0 43 -33 62q-14 8 -27 8
q-39 0 -65 -52l-25 -48l115 -58q4 -3 5.5 -3.5t3.5 4.5q26 50 26 87z" />
    <glyph glyph-name="uniFEE6" unicode="&#x646;" horiz-adv-x="729" arabic-form="final" 
d="M734 142v-142h-24q-17 0 -37 5q0 -70 -29.5 -116.5t-86.5 -75t-146 -49.5q-52 -11 -92 -11q-82 0 -142.5 37.5t-93 106t-32.5 158.5q0 99 38 210l120 -47q-33 -96 -33 -166q0 -76 36.5 -116.5t104.5 -40.5q34 0 66 8q69 16 100.5 26.5t47.5 28.5t16 50q0 8 -2 26l-41 275
l125 20l11 -74q9 -49 17 -73t19 -32t30 -8h28zM255 332l92 93l93 -93l-93 -92z" />
    <glyph glyph-name="uniFEE7" unicode="&#x646;" horiz-adv-x="334" arabic-form="initial" 
d="M74 142q43 0 63.5 12t20.5 42q0 15 -6 37l-40 149l122 36l40 -149q10 -39 10 -76q0 -88 -58 -140.5t-152 -52.5h-79v142h79zM35 565l92 93l93 -93l-93 -92z" />
    <glyph glyph-name="uniFEE8" unicode="&#x646;" horiz-adv-x="309" arabic-form="medial" 
d="M314 0q-78 0 -126 40q-51 -40 -130 -40h-63v142h63q39 0 53 10t12 34v2l-11 123l126 12l11 -123v-1q3 -34 16 -45.5t49 -11.5v-142zM41 485l92 93l93 -93l-93 -92z" />
    <glyph glyph-name="uniFEEA" unicode="&#x647;" horiz-adv-x="543" arabic-form="final" 
d="M548 142v-142h-19q-53 0 -98.5 24t-76.5 66l-101 -16q-6 -1 -18 -1q-55 0 -105.5 39t-69.5 95q-10 29 -10 62q0 62 35.5 114.5t93.5 71.5l130 42v35h126v-304q0 -36 27 -61t67 -25h19zM309 226v2v130l-90 -32q-21 -7 -31.5 -22t-10.5 -33q0 -23 19.5 -41.5t45.5 -14.5z
" />
    <glyph glyph-name="uniFEEB" unicode="&#x647;" horiz-adv-x="674" arabic-form="initial" 
d="M596 269.5q28 -48.5 28 -103.5q0 -42 -18 -81q-25 -52 -70 -81t-97 -29q-42 0 -77 17l-108 50q-89 -42 -198 -42h-61v142h61h23q-46 55 -46 128q0 45 20 88q25 53 72 83l41 88l353 -186q49 -25 77 -73.5zM255 191q20 20 32 49q6 14 6 27q0 17 -9.5 32t-25.5 24
q-18 9 -34 9q-17 0 -30.5 -8t-20.5 -22q-8 -13 -8 -31q0 -16 9 -30t27 -23zM490.5 195q-9.5 15 -27.5 24l-45 23q-5 -35 -17 -60q-10 -22 -29 -49l41 -20q14 -6 28 -6q24 0 41.5 15.5t17.5 41.5q0 16 -9.5 31z" />
    <glyph glyph-name="uniFEEC" unicode="&#x647;" horiz-adv-x="489" arabic-form="medial" 
d="M494 142v-142h-54q-20 0 -33 -11.5t-13 -27.5v-137l-63 -63q-63 -1 -119 29t-95 84.5t-52 125.5h-70v142h76q28 105 95 296l76 39l73 -21q54 -15 86 -68.5t32 -118.5q0 -46 -18 -87q-12 -26 -29 -49q24 9 54 9h54zM203 156q81 21 104 82q5 13 5 25q0 20 -9 36t-23 20
l-21 6q-35 -97 -56 -169zM272 -39q0 50 24 95q-52 -29 -107 -42q8 -42 28.5 -72t54.5 -44v63z" />
    <glyph glyph-name="uniFEEE" unicode="&#x648;" horiz-adv-x="522" arabic-form="final" 
d="M527 0h-44q1 -79 -33.5 -125t-107.5 -74.5t-210 -56.5l-25 138q117 24 164 37.5t66.5 31t18.5 49.5h-107q-88 0 -140.5 55.5t-52.5 149.5q0 59 25.5 110.5t71 82.5t102.5 31q84 0 141 -64t68 -167l6 -56h57v-142zM197.5 157q14.5 -15 51.5 -15h93l-4 41q-6 51 -27.5 77.5
t-54.5 26.5q-34 0 -53.5 -23.5t-19.5 -58.5q0 -33 14.5 -48z" />
    <glyph glyph-name="uniFEF0" unicode="&#x649;" horiz-adv-x="713" arabic-form="final" 
d="M718 0q-34 0 -48 1q4 -95 -58.5 -150t-200.5 -87q-52 -11 -92 -11q-82 0 -142.5 37.5t-93 106t-32.5 158.5q0 99 38 210l120 -47q-33 -96 -33 -166q0 -75 36.5 -116t105.5 -41q28 0 65 8q66 15 98.5 26t47.5 26t15 40q0 10 -1 15q-1 12 -37 26l-100 32l38 135
q146 -40 190.5 -50.5t83.5 -10.5v-142z" />
    <glyph glyph-name="uniFEF2" unicode="&#x64a;" horiz-adv-x="713" arabic-form="final" 
d="M718 0q-34 0 -48 1q4 -95 -58.5 -150t-200.5 -87q-52 -11 -92 -11q-82 0 -142.5 37.5t-93 106t-32.5 158.5q0 99 38 210l120 -47q-33 -96 -33 -166q0 -75 36.5 -116t105.5 -41q28 0 65 8q66 15 98.5 26t47.5 26t15 40q0 10 -1 15q-1 12 -37 26l-100 32l38 135
q146 -40 190.5 -50.5t83.5 -10.5v-142z" />
    <glyph glyph-name="uniFEF3" unicode="&#x64a;" horiz-adv-x="408" arabic-form="initial" 
d="M148 142q42 0 62.5 12t20.5 42q0 16 -6 37l-39 149l121 36l42 -156q10 -36 10 -70q0 -58 -27 -101.5t-75 -67t-109 -23.5h-153v142h153zM-77 -147l81 82l83 -82l-83 -82zM123 -147l81 82l83 -82l-83 -82z" />
    <glyph glyph-name="uniFEF4" unicode="&#x64a;" horiz-adv-x="422" arabic-form="medial" 
d="M427 0q-78 0 -126 40q-51 -40 -130 -40h-176v142h176q39 0 53 10t12 34v2l-11 123l126 12l11 -123v-6q4 -32 16.5 -42t48.5 -10v-142zM6 -148l81 82l83 -82l-83 -82zM206 -148l81 82l83 -82l-83 -82z" />
    <glyph glyph-name=".notdef" horiz-adv-x="300" 
d="M267 521v-542h-234v542h234zM233 479h-166v-458h166v458z" />
    <glyph glyph-name=".null" 
 />
    <glyph glyph-name="nonmarkingreturn" unicode="&#xd;" horiz-adv-x="300" 
 />
    <glyph glyph-name="space" unicode=" " horiz-adv-x="222" 
 />
    <glyph glyph-name="exclam" unicode="!" horiz-adv-x="284" 
d="M216 682l-15 -470h-118l-15 470h148zM83 -9q-24 24 -24 59q0 34 24 57.5t59 23.5q33 0 57 -23.5t24 -57.5t-24 -58.5t-57 -24.5q-35 0 -59 24z" />
    <glyph glyph-name="quotedbl" unicode="&#x22;" horiz-adv-x="395" 
d="M370 699l-17 -228h-117l-15 228h149zM174 699l-17 -228h-117l-15 228h149z" />
    <glyph glyph-name="numbersign" unicode="#" horiz-adv-x="678" 
d="M544 392l-15 -98h70v-127h-90l-21 -138l-148 1l21 137h-99l-21 -138l-148 1l21 137h-71v127h90l15 98h-69l1 127h88l21 138h148l-21 -138h100l21 138h148l-21 -138h71v-127h-91zM396 392h-100l-14 -98h99z" />
    <glyph glyph-name="dollar" unicode="$" horiz-adv-x="593" 
d="M513 46.5q-56 -52.5 -153 -60.5l2 -66h-130l1 74q-76 20 -119.5 71.5t-43.5 125.5v31h141v-24q0 -36 33.5 -61.5t89.5 -25.5q47 0 69 20t22 49q0 22 -14.5 37.5t-36.5 25.5t-82 35q-74 31 -113 51.5t-70 61.5t-31 104q0 71 42 120t113 67l-1 91h129l-1 -85
q92 -12 148.5 -69t56.5 -142v-25h-142v18q0 38 -31 66t-84 28q-42 0 -65 -17.5t-23 -49.5q0 -23 14 -40t44 -31.5t86 -34.5q62 -22 102 -42.5t71.5 -61t31.5 -102.5q0 -86 -56 -138.5z" />
    <glyph glyph-name="percent" unicode="%" horiz-adv-x="764" 
d="M119.5 410.5q-35.5 21.5 -56.5 58t-21 80.5q0 43 21 79.5t56.5 57.5t78.5 21q42 0 78 -21t57 -57.5t21 -79.5q0 -44 -21 -80.5t-56.5 -58t-78.5 -21.5t-78.5 21.5zM621 701l-377 -702h-105l377 702h105zM254 489.5q23 24.5 23 59.5t-23 59t-56 24t-56 -24t-23 -59
t23 -59.5t56 -24.5t56 24.5zM486.5 14q-35.5 21 -56.5 57.5t-21 80.5q0 43 21 79.5t56.5 58t78.5 21.5q42 0 78 -21.5t57 -58t21 -79.5t-21 -79.5t-56.5 -58t-78.5 -21.5t-78.5 21zM621 92.5q23 24.5 23 59.5t-23 59t-56 24t-56 -24t-23 -59t23 -59.5t56 -24.5t56 24.5z" />
    <glyph glyph-name="ampersand" unicode="&#x26;" horiz-adv-x="703" 
d="M500 0l-44 48q-96 -56 -199 -56q-93 0 -155 43.5t-62 130.5q0 66 35.5 111t96.5 80q-50 59 -65.5 92.5t-15.5 71.5q0 47 25.5 85.5t72 61t107.5 22.5t109.5 -23t76 -64t27.5 -95q0 -63 -35.5 -107.5t-95.5 -81.5l91 -101q46 43 80 94l101 -59q-46 -77 -97 -128l6 -6
q89 -97 108 -119h-167zM252.5 548.5q-16.5 -18.5 -16.5 -42.5q0 -12 10.5 -28.5t43.5 -56.5q35 20 54 39.5t19 43.5q0 27 -17 45t-49 18q-28 0 -44.5 -18.5zM369 142l-21 23l-37 39l-49 52q-37 -20 -57 -40t-20 -46q0 -27 22.5 -45.5t56.5 -18.5q46 0 105 36z" />
    <glyph glyph-name="quotesingle" unicode="'" horiz-adv-x="199" 
d="M174 699l-17 -228h-117l-15 228h149z" />
    <glyph glyph-name="parenleft" unicode="(" horiz-adv-x="389" 
d="M101 -17q-51 126 -51 262q0 137 52 264.5t147 222.5l90 -101q-80 -80 -121.5 -178.5t-41.5 -207.5q0 -108 40.5 -206t117.5 -177l-90 -99q-92 94 -143 220z" />
    <glyph glyph-name="parenright" unicode=")" horiz-adv-x="389" 
d="M172.5 39q40.5 98 40.5 206q0 110 -41.5 208.5t-121.5 177.5l90 101q95 -95 147 -222.5t52 -264.5q0 -136 -51 -262t-143 -220l-90 99q77 79 117.5 177z" />
    <glyph glyph-name="asterisk" unicode="*" horiz-adv-x="518" 
d="M361 381l66 -91l-102 -74l-66 91l-66 -91l-102 74l66 91l-107 34l40 120l106 -34v112h126v-112l106 34l40 -120z" />
    <glyph glyph-name="plus" unicode="+" horiz-adv-x="431" 
d="M407 248h-136v-136h-111v136h-136v110h136v136h111v-136h136v-110z" />
    <glyph glyph-name="comma" unicode="," horiz-adv-x="212" 
d="M183 153l-57 -253h-97l21 253h133z" />
    <glyph glyph-name="hyphen" unicode="-" horiz-adv-x="333" 
d="M310 357v-127h-287v127h287z" />
    <glyph glyph-name="period" unicode="." horiz-adv-x="345" 
d="M114 21q-24 24 -24 59q0 34 24 57.5t59 23.5q33 0 57 -23.5t24 -57.5t-24 -58.5t-57 -24.5q-35 0 -59 24z" />
    <glyph glyph-name="slash" unicode="/" horiz-adv-x="420" 
d="M389 684l-228 -683h-149l229 683h148z" />
    <glyph glyph-name="zero" unicode="0" horiz-adv-x="563" 
d="M457.5 131.5q-25.5 -45.5 -69.5 -72.5t-97 -27q-52 0 -96 27t-69.5 72.5t-25.5 99.5t25.5 99.5t69.5 72.5t96 27q53 0 97 -27t69.5 -72.5t25.5 -99.5t-25.5 -99.5zM342.5 278q-21.5 19 -51.5 19q-29 0 -50.5 -19.5t-21.5 -46.5t21.5 -46.5t50.5 -19.5q30 0 51.5 19
t21.5 47t-21.5 47z" />
    <glyph glyph-name="one" unicode="1" horiz-adv-x="360" 
d="M226 662l64 -655l-126 -14l-64 655z" />
    <glyph glyph-name="two" unicode="2" horiz-adv-x="609" 
d="M529 480q0 -48 -25 -89.5t-67 -66t-92 -24.5h-25q-27 0 -59 10l29 -300l-126 -14l-64 656l126 14l17 -176q4 -26 18 -37t39 -11h45q28 0 43.5 11.5t13.5 32.5l-17 166l126 14l17 -168q1 -6 1 -18z" />
    <glyph glyph-name="three" unicode="3" horiz-adv-x="840" 
d="M760 476q0 -48 -25.5 -89.5t-68 -65.5t-90.5 -24h-10q-68 0 -118 48q-53 -48 -122 -48h-20q-24 0 -45 6l29 -296l-126 -14l-64 655l126 14l16 -166q8 -57 58 -57h26q24 0 40.5 13.5t15.5 32.5v1l-14 139l127 14l14 -146q2 -26 17 -40t40 -14h10q24 0 41 14t16 33l-16 162
l126 14l16 -170q1 -5 1 -16z" />
    <glyph glyph-name="four" unicode="4" horiz-adv-x="747" 
d="M663 297h-364q-22 0 -38 4l28 -294l-126 -14l-46 482q-1 2 -1 7l-16 167l126 14l17 -175q4 -27 16.5 -37.5t37.5 -11.5q-12 33 -12 70q0 58 28 107t75.5 77t104.5 28q26 0 63 -12t66 -24.5t38 -17.5l-56 -126q-6 2 -49.5 18.5t-61.5 19.5q-5 1 -14 1q-29 0 -48.5 -21
t-19.5 -50q0 -30 18.5 -50t45.5 -20h188v-142z" />
    <glyph glyph-name="five" unicode="5" horiz-adv-x="794" 
d="M616 472.5q61 -76.5 79.5 -132.5t18.5 -153q0 -51 -23.5 -94t-64.5 -68t-91 -25h-11q-68 0 -116 45q-51 -45 -118 -45h-11q-50 0 -91 25t-64.5 68t-23.5 94q0 88 13 138.5t56 110t149 177.5l-28 31l94 94q171 -189 232 -265.5zM573.5 155q14.5 13 14.5 32q0 61 -10.5 96
t-45.5 82.5t-125 148.5q-94 -105 -128 -149.5t-43.5 -78.5t-9.5 -99q0 -19 14.5 -32t38.5 -13h11q23 0 38.5 13.5t15.5 31.5v61h126v-55q2 -25 16.5 -38t37.5 -13h11q24 0 38.5 13z" />
    <glyph glyph-name="six" unicode="6" horiz-adv-x="653" 
d="M476 355l-10 -14l-257 -380l-104 78l155 229q-35 9 -64 29q-45 29 -69.5 76t-24.5 101q0 68 36 120q13 19 52 49.5t86 62.5l63 -122q-83 -49 -97 -69q-15 -22 -15 -42q0 -31 33 -54q21 -15 48 -15q19 0 36.5 8t27.5 23l97 143l104 -78l-98 -145h1z" />
    <glyph glyph-name="seven" unicode="7" horiz-adv-x="727" 
d="M422 -6h-118l-224 621l119 47l164 -460l166 460l118 -47z" />
    <glyph glyph-name="eight" unicode="8" horiz-adv-x="727" 
d="M305 660h118l224 -624l-118 -48l-165 460l-165 -460l-119 48z" />
    <glyph glyph-name="nine" unicode="9" horiz-adv-x="644" 
d="M438 -6l-28 258h-103q-57 0 -104.5 28t-75 75.5t-27.5 105.5t27.5 107t75 77.5t104.5 28.5q54 0 99 -26.5t73.5 -73.5t34.5 -105l50 -461zM395 389l-7 66q-4 36 -26 58.5t-55 22.5q-35 0 -58 -22t-23 -53q0 -29 23.5 -50.5t57.5 -21.5h88z" />
    <glyph glyph-name="colon" unicode=":" horiz-adv-x="345" 
d="M114 297q-24 24 -24 59q0 34 24 57.5t59 23.5q33 0 57 -23.5t24 -57.5t-24 -58.5t-57 -24.5q-35 0 -59 24zM114 21q-24 24 -24 59q0 34 24 57.5t59 23.5q33 0 57 -23.5t24 -57.5t-24 -58.5t-57 -24.5q-35 0 -59 24z" />
    <glyph glyph-name="semicolon" unicode=";" horiz-adv-x="360" 
d="M254 153l-57 -253h-97l21 253h133zM129 297q-24 24 -24 59q0 34 24 57.5t59 23.5q33 0 57 -23.5t24 -57.5t-24 -58.5t-57 -24.5q-35 0 -59 24z" />
    <glyph glyph-name="equal" unicode="=" horiz-adv-x="426" 
d="M402 154h-379v116h379v-116zM402 342h-379v116h379v-116z" />
    <glyph glyph-name="question" unicode="?" horiz-adv-x="519" 
d="M197 312.5q12 26.5 28.5 43.5t42.5 39q5 4 26 21t31 35t10 38q0 30 -17.5 48.5t-46.5 18.5q-30 0 -49 -20.5t-19 -51.5v-24l-148 7v17q0 60 28 107t78 73.5t114 26.5q62 0 109.5 -24.5t73.5 -69t26 -101.5t-21.5 -91t-60.5 -66q-5 -4 -26.5 -22t-32.5 -36.5t-11 -39.5
v-26h-147v35q0 36 12 62.5zM202 21q-24 24 -24 59q0 34 24 57.5t59 23.5q34 0 58 -23.5t24 -57.5t-24 -58.5t-58 -24.5q-35 0 -59 24z" />
    <glyph glyph-name="at" unicode="@" horiz-adv-x="829" 
d="M641 633.5q74 -43.5 114.5 -117.5t40.5 -164q0 -23 -3 -47q-11 -94 -64 -149.5t-135 -55.5q-73 0 -111 44q-18 -23 -49 -33.5t-67 -10.5q-48 0 -79.5 26.5t-39.5 69.5q-3 18 -3 38q0 24 3 45q6 44 20 81q17 49 53.5 74.5t81.5 25.5q22 0 43.5 -6.5t37.5 -19.5l4 25h97
l-25 -190q-2 -14 -2 -21q0 -26 10 -41.5t31 -15.5q54 0 70 107q4 27 4 56q0 101 -57.5 153t-154.5 52q-79 0 -143.5 -34t-106 -97.5t-50.5 -149.5q-3 -24 -3 -45q0 -103 59 -157t160 -54q51 0 89.5 11.5t57.5 27.5l64 -95q-34 -30 -95 -47.5t-125 -17.5q-90 0 -166.5 42
t-122 118t-45.5 174q0 25 3 50q12 113 70.5 202t153 139.5t210.5 50.5q96 0 170 -43.5zM445 221q13 22 16 59q2 28 2 34q0 11 -2 25q-2 17 -14.5 27t-30.5 10t-32.5 -9.5t-22.5 -25.5q-9 -17 -17 -65q-3 -21 -3 -36q0 -26 13 -42t38 -16q34 0 53 39z" />
    <glyph glyph-name="A" unicode="A" horiz-adv-x="664" 
d="M447 124h-231l-36 -124h-160l218 684h187l218 -684h-159zM413 238l-82 274l-81 -274h163z" />
    <glyph glyph-name="B" unicode="B" horiz-adv-x="621" 
d="M569 193q0 -96 -66 -144t-173 -48h-267v683h259q116 0 176 -45t60 -144q0 -101 -89 -142q100 -46 100 -160zM211 407h111q43 0 67 19.5t24 54.5q0 36 -24 56t-67 20h-111v-150zM396.5 149q23.5 21 23.5 59q0 37 -23.5 57.5t-66.5 20.5h-119v-158h119q43 0 66.5 21z" />
    <glyph glyph-name="C" unicode="C" horiz-adv-x="642" 
d="M187.5 14q-60.5 31 -93.5 83.5t-33 113.5v250q0 61 33.5 114t93.5 84.5t138 31.5t138 -31.5t93.5 -84.5t33.5 -114v-11l-153 -8l-2 34q0 20 -12 40t-37 34t-61 14q-35 0 -60.5 -14t-38.5 -34.5t-13 -39.5v-272q0 -20 13 -42t38.5 -37t60.5 -15q53 0 81.5 25.5t29.5 56.5
l3 34l151 -5v-10q0 -63 -30 -114.5t-89.5 -82.5t-145.5 -31q-78 0 -138.5 31z" />
    <glyph glyph-name="D" unicode="D" horiz-adv-x="623" 
d="M320 684q75 0 132 -26t88 -73.5t31 -110.5v-264q0 -63 -31 -110.5t-88 -73.5t-132 -26h-257v684h257zM395 156.5q26 29.5 27 78.5v214q0 49 -26.5 78.5t-69.5 29.5h-115v-430h115q43 0 69 29.5z" />
    <glyph glyph-name="E" unicode="E" horiz-adv-x="591" 
d="M211 557v-148h220v-126h-220v-156h330v-127h-478v684h478v-127h-330z" />
    <glyph glyph-name="F" unicode="F" horiz-adv-x="539" 
d="M211 557v-147h220v-127h-220v-283h-148v684h454v-127h-306z" />
    <glyph glyph-name="G" unicode="G" horiz-adv-x="626" 
d="M183.5 11q-58.5 28 -90.5 76.5t-32 106.5v253q0 72 32 127.5t90 86t135 30.5q75 0 133.5 -24.5t90.5 -67.5t32 -98v-49h-148v33q0 37 -28.5 57.5t-79.5 20.5q-49 0 -79 -31t-30 -81v-228q0 -50 33 -81.5t82 -31.5q53 0 79 17t26 61v59h-121v119h266v-152
q0 -69 -31.5 -121t-89.5 -81t-135 -29q-76 0 -134.5 28z" />
    <glyph glyph-name="H" unicode="H" horiz-adv-x="641" 
d="M587 684v-684h-149v279h-218v-279h-149v684h149v-277h218v277h149z" />
    <glyph glyph-name="I" unicode="I" horiz-adv-x="274" 
d="M211 684v-684h-148v684h148z" />
    <glyph glyph-name="J" unicode="J" horiz-adv-x="602" 
d="M159 10q-56 28 -87 79t-31 118v71h149v-70q0 -45 27 -71.5t73 -26.5q45 0 74 27t29 71v476h147v-477q0 -67 -31.5 -118t-88.5 -79t-130 -28q-75 0 -131 28z" />
    <glyph glyph-name="K" unicode="K" horiz-adv-x="643" 
d="M211 684v-287l224 287h168l-227 -298l236 -385h-166l-172 284l-63 -82v-202h-148v683h148z" />
    <glyph glyph-name="L" unicode="L" horiz-adv-x="566" 
d="M211 684v-557h333v-127h-481v684h148z" />
    <glyph glyph-name="M" unicode="M" horiz-adv-x="715" 
d="M652 684v-684h-149v479l-105 -211h-81l-106 212v-480h-148v684h145l150 -241l149 241h145z" />
    <glyph glyph-name="N" unicode="N" horiz-adv-x="665" 
d="M602 684v-683h-141l-251 414l1 -414h-148v683h141l250 -414v414h148z" />
    <glyph glyph-name="O" unicode="O" horiz-adv-x="651" 
d="M187.5 14q-60.5 31 -93.5 83.5t-33 113.5v250q0 61 33.5 114t93.5 84.5t138 31.5t138 -31.5t93.5 -84.5t33.5 -114v-250q0 -61 -33 -113.5t-93.5 -83.5t-138.5 -31t-138.5 31zM387 125q25 15 37 37t12 42v272q0 20 -12 40t-37 34t-61 14q-35 0 -60.5 -14t-38 -34.5
t-12.5 -39.5v-272q0 -20 13 -42t38 -37t60 -15q36 0 61 15z" />
    <glyph glyph-name="P" unicode="P" horiz-adv-x="595" 
d="M468 657q50 -27 77.5 -75.5t27.5 -111.5q0 -62 -28.5 -110t-80 -74t-118.5 -26h-135v-260h-148v684h290q65 0 115 -27zM398.5 402q26.5 24 26.5 64q0 41 -26 66t-70 25h-118v-179h118q43 0 69.5 24z" />
    <glyph glyph-name="Q" unicode="Q" horiz-adv-x="651" 
d="M591 211q0 -67 -38 -120l35 -32l-89 -91l-45 41q-60 -26 -128 -26q-78 0 -138.5 31t-93.5 83.5t-33 113.5v250q0 61 33.5 114t93.5 84.5t138 31.5t138 -31.5t93.5 -84.5t33.5 -114v-250zM436 199v5v272q0 20 -12 40t-37 34t-61 14q-35 0 -60.5 -14t-38 -34.5t-12.5 -39.5
v-272q0 -20 13 -42t38 -37t60 -15q13 0 19 1l-53 49l89 90z" />
    <glyph glyph-name="R" unicode="R" horiz-adv-x="612" 
d="M535.5 346q-37.5 -52 -102.5 -73l130 -273h-158l-115 260h-79v-260h-148v684h290q65 0 115 -27t77.5 -75.5t27.5 -111.5q0 -72 -37.5 -124zM211 378h118q43 0 69.5 24t26.5 64q0 41 -26 66t-70 25h-118v-179z" />
    <glyph glyph-name="S" unicode="S" horiz-adv-x="627" 
d="M179.5 9.5q-59.5 25.5 -91.5 72.5t-32 109v31h146v-24q0 -36 34.5 -61.5t92.5 -25.5q48 0 71 20t23 49q0 21 -13 35.5t-35 25t-71 30.5q-15 5 -19 7q-76 30 -116 51t-72 62t-32 104q0 59 30.5 103.5t85.5 68.5t126 24q75 0 134 -26.5t92.5 -75.5t33.5 -112v-25h-146v18
q0 38 -32.5 66t-87.5 28q-43 0 -66.5 -17.5t-23.5 -49.5q0 -23 14.5 -40t45.5 -31.5t88 -34.5q64 -22 105 -42.5t74 -61t33 -102.5q0 -94 -69 -147.5t-184 -53.5q-79 0 -138.5 25.5z" />
    <glyph glyph-name="T" unicode="T" horiz-adv-x="573" 
d="M551 557h-178v-557h-149v557h-202v127h529v-127z" />
    <glyph glyph-name="U" unicode="U" horiz-adv-x="653" 
d="M188.5 14q-60.5 31 -93.5 83.5t-33 113.5v473h154v-480q0 -20 13 -42t38 -37t60 -15q36 0 61 15t37 37t12 42v480h155v-473q0 -61 -33 -113.5t-93.5 -83.5t-138.5 -31t-138.5 31z" />
    <glyph glyph-name="V" unicode="V" horiz-adv-x="609" 
d="M589 684l-208 -684h-154l-207 684h160l127 -485l126 485h156z" />
    <glyph glyph-name="W" unicode="W" horiz-adv-x="1023" 
d="M1003 684l-208 -684h-155l-129 428l-130 -428h-154l-207 684h160l127 -485l126 485h160l128 -487l126 487h156z" />
    <glyph glyph-name="X" unicode="X" horiz-adv-x="636" 
d="M31 684h161l126 -229l127 229h160l-194 -342l194 -342h-160l-127 228l-127 -228h-160l195 342z" />
    <glyph glyph-name="Y" unicode="Y" horiz-adv-x="607" 
d="M20 684h161l122 -271l122 271h161l-210 -428v-254h-147v254z" />
    <glyph glyph-name="Z" unicode="Z" horiz-adv-x="559" 
d="M356 557h-317v127h481v-135l-319 -422h319v-127h-481v135z" />
    <glyph glyph-name="bracketleft" unicode="[" horiz-adv-x="314" 
d="M259 784v-127h-82v-679h82v-127h-230v933h230z" />
    <glyph glyph-name="backslash" unicode="\" horiz-adv-x="421" 
d="M259 1l-228 683h149l228 -683h-149z" />
    <glyph glyph-name="bracketright" unicode="]" horiz-adv-x="288" 
d="M29 -23h82v679h-82v127h230v-933h-230v127z" />
    <glyph glyph-name="underscore" unicode="_" horiz-adv-x="426" 
d="M413 113v-112h-400v112h400z" />
    <glyph glyph-name="a" unicode="a" horiz-adv-x="574" 
d="M402 488.5q51 -21.5 80.5 -59.5t29.5 -85v-344h-149v69q-16 -39 -49.5 -58t-87.5 -19q-77 0 -123 35.5t-46 105.5q0 73 52.5 113t150.5 40h103v31q0 31 -19.5 48.5t-54.5 17.5q-31 0 -51 -13t-22 -34l-149 19q1 44 30 79t78.5 55.5t111.5 20.5q64 0 115 -21.5zM336.5 115
q26.5 20 26.5 56v39h-70q-41 0 -63.5 -15.5t-22.5 -43.5q0 -25 16.5 -40.5t47.5 -15.5q39 0 65.5 20z" />
    <glyph glyph-name="b" unicode="b" horiz-adv-x="553" 
d="M448.5 466q42.5 -46 42.5 -128v-173q0 -81 -42.5 -127.5t-129.5 -46.5q-66 0 -108 42v-33h-148v684h148v-214q42 42 107 42q88 0 130.5 -46zM349 338q0 31 -19.5 50t-49.5 19q-32 0 -50.5 -19t-18.5 -50v-173q0 -32 18.5 -50t50.5 -18q30 0 49.5 18.5t19.5 49.5v173z" />
    <glyph glyph-name="c" unicode="c" horiz-adv-x="568" 
d="M152.5 32.5q-58.5 39.5 -83.5 107.5q-18 53 -18 114q0 63 18 113q24 67 83 105.5t138 38.5t139.5 -39.5t80.5 -99.5q9 -25 9 -46l-146 -23q-3 22 -5 26q-6 24 -27.5 39.5t-51.5 15.5q-28 0 -48 -13.5t-29 -39.5q-11 -28 -11 -78q0 -48 11 -76q8 -27 28 -42t49 -15t50 15
t29 43l3 19l146 -24q0 -18 -7 -38q-22 -67 -82 -104.5t-138 -37.5q-79 0 -137.5 39.5z" />
    <glyph glyph-name="d" unicode="d" horiz-adv-x="566" 
d="M503 684v-684h-148v47q-21 -27 -51 -41.5t-68 -14.5q-89 0 -131.5 46t-42.5 128v173q0 81 43 127.5t130 46.5q38 0 68.5 -14.5t51.5 -41.5v228h148zM342 338q0 32 -18 50t-50 18q-31 0 -50 -18t-19 -50v-173q0 -31 19.5 -50t49.5 -19q31 0 49.5 19t18.5 50v173z" />
    <glyph glyph-name="e" unicode="e" horiz-adv-x="570" 
d="M195 215v-19q0 -33 25.5 -56.5t63.5 -23.5q32 0 56 16.5t31 42.5l128 -27q-8 -43 -37 -78.5t-75 -56t-103 -20.5q-58 0 -108.5 22.5t-82 67.5t-31.5 108v124q0 57 28 102.5t78 71.5t114 26q63 0 115 -26t82.5 -72t30.5 -102v-99zM220 367.5q-25 -22.5 -25 -58.5v-14h177
v14q0 36 -26 58.5t-64 22.5q-37 0 -62 -22.5z" />
    <glyph glyph-name="f" unicode="f" horiz-adv-x="368" 
d="M254 569q-11 -14 -11 -42v-88h102v-111h-102v-328h-149v328h-71v111h71v101q0 82 46 115t155 29h50v-100h-50q-30 -1 -41 -15z" />
    <glyph glyph-name="g" unicode="g" horiz-adv-x="553" 
d="M491 505v-457q0 -131 -76.5 -187t-193.5 -56q-46 0 -94 8l6 131q41 -9 79 -9q56 0 90.5 23.5t38.5 73.5q-41 -41 -105 -41q-89 0 -131.5 46t-42.5 128v173q0 81 43 127.5t130 46.5q64 0 107 -41v34h149zM323.5 115q18.5 19 18.5 50v173q0 32 -18 50t-50 18q-31 0 -50 -18
t-19 -50v-173q0 -31 19.5 -50t49.5 -19q31 0 49.5 19z" />
    <glyph glyph-name="h" unicode="h" horiz-adv-x="553" 
d="M448.5 466q42.5 -46 42.5 -128v-338h-142v338q0 31 -19.5 50t-49.5 19q-32 0 -50.5 -19t-18.5 -50v-338h-148v684h148v-214q42 42 107 42q88 0 130.5 -46z" />
    <glyph glyph-name="i" unicode="i" horiz-adv-x="323" 
d="M106.5 578.5q-23.5 23.5 -23.5 57.5q0 33 23.5 56t57.5 23q32 0 55.5 -23t23.5 -56q0 -34 -23.5 -57.5t-55.5 -23.5q-34 0 -57.5 23.5zM234 505v-505h-148v505h148z" />
    <glyph glyph-name="j" unicode="j" horiz-adv-x="322" 
d="M122.5 578.5q-23.5 23.5 -23.5 57.5q0 33 23.5 56t57.5 23q32 0 55.5 -23t23.5 -56q0 -34 -23.5 -57.5t-55.5 -23.5q-34 0 -57.5 23.5zM17 -82q50 0 69.5 18t19.5 62l-2 507h149v-505q0 -80 -20 -124t-69 -63t-140 -19l-33 1v124q9 -1 26 -1z" />
    <glyph glyph-name="k" unicode="k" horiz-adv-x="545" 
d="M211 684v-340l133 159h169l-138 -178l154 -324h-156l-100 234l-62 -82v-152h-148v683h148z" />
    <glyph glyph-name="l" unicode="l" horiz-adv-x="300" 
d="M278 127v-127h-215v684h148v-557h67z" />
    <glyph glyph-name="m" unicode="m" horiz-adv-x="833" 
d="M727.5 466q42.5 -46 42.5 -128v-338h-142v338q0 31 -19.5 50t-49.5 19q-32 0 -50 -19t-18 -50v-338h-143v338q0 31 -19.5 50t-49.5 19q-31 0 -49.5 -19t-18.5 -50v-338h-149v505h149v-34q43 41 106 41q108 0 150 -72q21 34 54 53t76 19q88 0 130.5 -46z" />
    <glyph glyph-name="n" unicode="n" horiz-adv-x="553" 
d="M448.5 466q42.5 -46 42.5 -128v-338h-143v338q0 31 -19.5 50t-49.5 19q-31 0 -49.5 -19t-18.5 -50v-338h-149v505h149v-34q43 41 106 41q89 0 131.5 -46z" />
    <glyph glyph-name="o" unicode="o" horiz-adv-x="571" 
d="M171 15.5q-51 24.5 -80 67t-29 92.5v156q0 50 30 91.5t81 65.5t112 24t112 -24t81 -65.5t30 -91.5v-156q0 -51 -29 -93t-80 -66.5t-114 -24.5t-114 24.5zM346 130q20 22 20 54v137q0 29 -22 50.5t-59 21.5q-35 0 -57.5 -22t-22.5 -50v-137q0 -31 20.5 -53.5t59.5 -22.5
q41 0 61 22z" />
    <glyph glyph-name="p" unicode="p" horiz-adv-x="553" 
d="M447.5 466q42.5 -46 42.5 -128v-173q0 -81 -42.5 -127.5t-129.5 -46.5q-64 0 -107 41v-237h-148v718h148v-42q43 41 106 41q88 0 130.5 -46zM348 338q0 31 -19.5 50t-49.5 19q-32 0 -50 -19t-18 -50v-173q0 -32 18 -50t50 -18q31 0 50 18t19 50v173z" />
    <glyph glyph-name="q" unicode="q" horiz-adv-x="554" 
d="M491 513v-718h-149v237q-43 -41 -106 -41q-89 0 -131.5 46t-42.5 128v173q0 81 43 127.5t130 46.5q64 0 107 -41v42h149zM323.5 115q18.5 19 18.5 50v173q0 32 -18 50t-50 18q-31 0 -50 -18t-19 -50v-173q0 -31 19.5 -50t49.5 -19q31 0 49.5 19z" />
    <glyph glyph-name="r" unicode="r" horiz-adv-x="418" 
d="M401 486l-25 -139q-6 4 -18 7t-27 3q-16 0 -24 -2q-32 -3 -55 -26t-24 -59v-270h-148v505h148v-84q43 82 111 82q39 0 62 -17z" />
    <glyph glyph-name="s" unicode="s" horiz-adv-x="554" 
d="M163 14.5q-49 20.5 -75.5 57.5t-26.5 85v9h136v-13q0 -22 22.5 -36t56.5 -14q30 0 49 12t19 31q0 18 -19.5 27t-62.5 18q-5 1 -38.5 8.5t-64.5 21.5q-46 20 -72.5 50t-26.5 79q0 74 58 117.5t152 43.5q64 0 112.5 -20.5t75 -58t26.5 -86.5v-10h-138v10q0 23 -20 36.5
t-53 13.5q-31 0 -50.5 -12t-19.5 -32q0 -19 20 -27.5t69 -19.5q52 -10 82 -20q58 -20 89 -51.5t31 -83.5q0 -75 -59 -115.5t-158 -40.5q-65 0 -114 20.5z" />
    <glyph glyph-name="t" unicode="t" horiz-adv-x="372" 
d="M239 384v-199q0 -60 51 -60h46v-125q-40 -3 -75 -3q-84 0 -123.5 27.5t-40.5 100.5v259h-73v111h73v142h142v-142h108v-111h-108z" />
    <glyph glyph-name="u" unicode="u" horiz-adv-x="553" 
d="M491 505v-505h-149v34q-43 -41 -106 -41q-89 0 -131.5 46t-42.5 128v338h143v-338q0 -31 19.5 -50t49.5 -19q31 0 49.5 19t18.5 50v338h149z" />
    <glyph glyph-name="v" unicode="v" horiz-adv-x="528" 
d="M184 505l80 -340l81 340h159l-159 -505h-161l-160 505h160z" />
    <glyph glyph-name="w" unicode="w" horiz-adv-x="822" 
d="M798 505l-160 -505h-141l-86 286l-86 -286h-142l-159 505h159l81 -340l81 340h132l81 -340l81 340h159z" />
    <glyph glyph-name="x" unicode="x" horiz-adv-x="554" 
d="M24 505h159l89 -140l89 140h169l-166 -252l166 -253h-159l-89 139l-89 -139h-169l166 252z" />
    <glyph glyph-name="y" unicode="y" horiz-adv-x="523" 
d="M62 -80q63 0 89.5 14t35.5 58l-163 507h158l81 -325l81 325h155l-171 -521q-25 -73 -51.5 -110t-75 -55t-137.5 -18h-13v125h11z" />
    <glyph glyph-name="z" unicode="z" horiz-adv-x="514" 
d="M278 371h-217v134h392v-135l-230 -236h236v-134h-404v135z" />
    <glyph glyph-name="braceleft" unicode="{" horiz-adv-x="379" 
d="M131 -117q-33 32 -33 89v201q0 86 -68 89v116q68 1 68 88v196q0 58 33 90t92 32h101v-127h-30q-20 0 -33.5 -17.5t-13.5 -43.5v-152q0 -100 -63 -124q63 -25 63 -126v-155q0 -27 13.5 -44t33.5 -17h30v-127h-101q-59 0 -92 32z" />
    <glyph glyph-name="bar" unicode="|" horiz-adv-x="335" 
d="M235 700v-806h-135v806h135z" />
    <glyph glyph-name="braceright" unicode="}" horiz-adv-x="379" 
d="M55 -22h30q20 0 33.5 17t13.5 44v155q0 101 63 126q-63 24 -63 124v152q0 26 -13.5 43.5t-33.5 17.5h-30v127h101q59 0 92 -32t33 -90v-196q0 -87 68 -88v-116q-68 -3 -68 -89v-201q0 -57 -33 -89t-92 -32h-101v127z" />
    <glyph glyph-name="uni00A0" unicode="&#xa0;" horiz-adv-x="222" 
 />
    <glyph glyph-name="guillemotleft" unicode="&#xab;" horiz-adv-x="482" 
d="M178.5 353.5q-14.5 -34.5 -14.5 -71.5t13.5 -70t38.5 -58l-79 -78q-40 41 -62 95t-22 111q0 60 24 115.5t68 96.5l75 -80q-27 -26 -41.5 -60.5zM378.5 354q-14.5 -34 -14.5 -72q0 -37 13.5 -69.5t39.5 -58.5l-80 -78q-40 41 -61.5 95t-21.5 111q0 59 24 115t67 97l76 -80
q-28 -26 -42.5 -60z" />
    <glyph glyph-name="guillemotright" unicode="&#xbb;" horiz-adv-x="484" 
d="M406 397q24 -56 24 -115q0 -57 -21.5 -111t-61.5 -95l-80 78q26 26 39.5 58.5t13.5 69.5q0 38 -14.5 72t-42.5 60l76 80q43 -41 67 -97zM204 397q24 -56 24 -115q0 -57 -21.5 -111t-61.5 -95l-80 78q26 26 39.5 58.5t13.5 69.5q0 38 -14.5 72t-42.5 60l76 80
q43 -41 67 -97z" />
    <glyph glyph-name="multiply" unicode="&#xd7;" horiz-adv-x="425" 
d="M291 303l96 -96l-78 -79l-96 97l-97 -97l-78 79l96 96l-96 96l78 78l97 -96l96 96l78 -78z" />
    <glyph glyph-name="divide" unicode="&#xf7;" horiz-adv-x="426" 
d="M155.5 424q-22.5 23 -22.5 56q0 32 22.5 54.5t55.5 22.5q32 0 54.5 -22.5t22.5 -54.5t-23 -55.5t-54 -23.5q-33 0 -55.5 23zM23 248v116h379v-116h-379zM155.5 67q-22.5 23 -22.5 56q0 32 22.5 54.5t55.5 22.5q32 0 54.5 -22.5t22.5 -54.5q0 -33 -22.5 -56t-54.5 -23
q-33 0 -55.5 23z" />
    <glyph glyph-name="uni060C" unicode="&#x60c;" horiz-adv-x="339" 
d="M233 132q18 -22 18 -51q0 -34 -24 -58.5t-57 -24.5q-35 0 -59 24t-24 59q0 22 11 41l74 162l60 -28l-44 -96q27 -6 45 -28z" />
    <glyph glyph-name="uni061B" unicode="&#x61b;" horiz-adv-x="339" 
d="M111 298q-24 24 -24 59q0 22 11 41l74 162l60 -28l-44 -96q27 -6 45 -28t18 -51q0 -34 -24 -58.5t-57 -24.5q-35 0 -59 24zM227 137.5q24 -23.5 24 -57.5t-24 -58.5t-57 -24.5q-35 0 -59 24t-24 59q0 34 24 57.5t59 23.5q33 0 57 -23.5z" />
    <glyph glyph-name="uni061F" unicode="&#x61f;" horiz-adv-x="546" 
d="M213 233q-1 27 -9.5 39t-42.5 40q-40 32 -61 54.5t-31 49t-10 64.5q0 60 28.5 110.5t77.5 80t108 29.5q58 0 107.5 -30t78 -81t28.5 -111v-40h-126v40q0 33 -25.5 56.5t-62.5 23.5t-62.5 -23t-25.5 -55q0 -28 16.5 -47t53.5 -45q42 -29 57.5 -44.5t21 -38t5.5 -72.5v-38
h-126v38zM216 -10q-24 24 -24 59q0 34 24 57.5t59 23.5q34 0 58 -23.5t24 -57.5t-24 -58.5t-58 -24.5q-35 0 -59 24z" />
    <glyph glyph-name="uni0640" unicode="&#x640;" horiz-adv-x="300" 
d="M305 142v-142h-310v142h310z" />
    <glyph glyph-name="uni064B" unicode="&#x64b;" 
d="M236 541l15 -69l-236 -57l-15 70zM236 671l15 -69l-236 -57l-15 70z" />
    <glyph glyph-name="uni064C" unicode="&#x64c;" 
d="M340 601q-28 -31 -78 -44l-218 -53l-14 62l8 2q19 7 29.5 20t10.5 29q0 21 -14 35.5t-37 14.5q-5 0 -15 -2l-12 56q15 3 29 3q45 0 74 -30t29 -70q0 -18 -4 -31l41 12l-14 56q-4 20 -4 28q0 34 20.5 59t57.5 34q20 4 30 4q46 0 77.5 -32t31.5 -80q0 -42 -28 -73zM305 676
q0 18 -12 30t-32 12q-46 0 -46 -30q0 -4 2 -12l13 -54l16 4q59 17 59 50z" />
    <glyph glyph-name="uni064D" unicode="&#x64d;" 
d="M236 -372l15 -69l-236 -57l-15 70zM236 -242l15 -69l-236 -57l-15 70z" />
    <glyph glyph-name="uni064E" unicode="&#x64e;" 
d="M236 627l15 -69l-236 -57l-15 70z" />
    <glyph glyph-name="uni064F" unicode="&#x64f;" 
d="M272 586.5q-29 -31.5 -80 -44.5l-177 -42l-15 70l90 21l-14 54q-3 14 -3 26q0 35 22.5 61.5t60.5 34.5q20 4 31 4q47 0 80.5 -31.5t33.5 -79.5q0 -42 -29 -73.5zM218 631.5q15 13.5 15 30.5q0 18 -12.5 30t-33.5 12q-22 0 -34.5 -9.5t-12.5 -24.5q0 -3 2 -11l14 -53l20 5
q27 7 42 20.5z" />
    <glyph glyph-name="uni0650" unicode="&#x650;" 
d="M236 -256l15 -69l-236 -57l-15 70z" />
    <glyph glyph-name="uni0651" unicode="&#x651;" 
d="M72 652l-11 -50q-1 -3 -1 -9q0 -21 28 -21q14 0 21 5.5t7 11.5l2 66h52l3 -66q0 -6 7 -11.5t20 -5.5q35 0 29 27l-17 70l55 17l21 -73q4 -12 4 -27q0 -37 -26 -61.5t-66 -24.5q-17 0 -32 5.5t-23 15.5q-21 -21 -57 -21q-38 0 -63 24t-25 61q0 15 4 27l13 55z" />
    <glyph glyph-name="uni0652" unicode="&#x652;" 
d="M63.5 517.5q-29.5 17.5 -46.5 47t-17 64.5q0 34 17 63.5t46.5 47t63.5 17.5q33 0 62 -17.5t46.5 -47t17.5 -63.5q0 -35 -17 -64.5t-46 -47t-63 -17.5t-63.5 17.5zM171 586.5q18 17.5 18 42.5t-18 42.5t-44 17.5t-44.5 -17.5t-18.5 -42.5t18.5 -42.5t44.5 -17.5t44 17.5z
" />
    <glyph glyph-name="uni0653" unicode="&#x653;" 
d="M25.5 677q25.5 26 66.5 26q7 0 23 -2l101 -19q4 -1 12 -1q27 0 27 24v4l64 5v-23q0 -43 -25.5 -69t-66.5 -26q-7 0 -23 2l-101 19q-4 1 -12 1q-27 0 -27 -24v-4l-64 -5v23q0 43 25.5 69z" />
    <glyph glyph-name="uni0654" unicode="&#x654;" 
d="M183 536q-8 -2 -11 -2l-157 -37l-15 69l70 17q-12 19 -16 37q-3 14 -3 28q0 45 31.5 77.5t77.5 32.5q25 0 85 -12l-12 -69q-49 9 -74 9q-20 0 -32.5 -11.5t-12.5 -28.5q0 -18 15 -30.5t35 -10.5l112 27l15 -70z" />
    <glyph glyph-name="uni0655" unicode="&#x655;" 
d="M183 -382q-8 -2 -11 -2l-157 -37l-15 69l70 17q-12 19 -16 37q-3 14 -3 28q0 45 31.5 77.5t77.5 32.5q25 0 85 -12l-12 -69q-49 9 -74 9q-20 0 -32.5 -11.5t-12.5 -28.5q0 -18 15 -30.5t35 -10.5l112 27l15 -70z" />
    <glyph glyph-name="uni0656" unicode="&#x656;" 
d="M62 -238v-162h-60v162h60z" />
    <glyph glyph-name="uni0660" unicode="&#x660;" horiz-adv-x="563" 
d="M457.5 131.5q-25.5 -45.5 -69.5 -72.5t-97 -27q-52 0 -96 27t-69.5 72.5t-25.5 99.5t25.5 99.5t69.5 72.5t96 27q53 0 97 -27t69.5 -72.5t25.5 -99.5t-25.5 -99.5zM342.5 278q-21.5 19 -51.5 19q-29 0 -50.5 -19.5t-21.5 -46.5t21.5 -46.5t50.5 -19.5q30 0 51.5 19
t21.5 47t-21.5 47z" />
    <glyph glyph-name="uni0661" unicode="&#x661;" horiz-adv-x="360" 
d="M226 662l64 -655l-126 -14l-64 655z" />
    <glyph glyph-name="uni0662" unicode="&#x662;" horiz-adv-x="609" 
d="M529 480q0 -48 -25 -89.5t-67 -66t-92 -24.5h-25q-27 0 -59 10l29 -300l-126 -14l-64 656l126 14l17 -176q4 -26 18 -37t39 -11h45q28 0 43.5 11.5t13.5 32.5l-17 166l126 14l17 -168q1 -6 1 -18z" />
    <glyph glyph-name="uni0663" unicode="&#x663;" horiz-adv-x="840" 
d="M760 476q0 -48 -25.5 -89.5t-68 -65.5t-90.5 -24h-10q-68 0 -118 48q-53 -48 -122 -48h-20q-24 0 -45 6l29 -296l-126 -14l-64 655l126 14l16 -166q8 -57 58 -57h26q24 0 40.5 13.5t15.5 32.5v1l-14 139l127 14l14 -146q2 -26 17 -40t40 -14h10q24 0 41 14t16 33l-16 162
l126 14l16 -170q1 -5 1 -16z" />
    <glyph glyph-name="uni0664" unicode="&#x664;" horiz-adv-x="747" 
d="M663 297h-364q-22 0 -38 4l28 -294l-126 -14l-46 482q-1 2 -1 7l-16 167l126 14l17 -175q4 -27 16.5 -37.5t37.5 -11.5q-12 33 -12 70q0 58 28 107t75.5 77t104.5 28q26 0 63 -12t66 -24.5t38 -17.5l-56 -126q-6 2 -49.5 18.5t-61.5 19.5q-5 1 -14 1q-29 0 -48.5 -21
t-19.5 -50q0 -30 18.5 -50t45.5 -20h188v-142z" />
    <glyph glyph-name="uni0665" unicode="&#x665;" horiz-adv-x="794" 
d="M616 472.5q61 -76.5 79.5 -132.5t18.5 -153q0 -51 -23.5 -94t-64.5 -68t-91 -25h-11q-68 0 -116 45q-51 -45 -118 -45h-11q-50 0 -91 25t-64.5 68t-23.5 94q0 88 13 138.5t56 110t149 177.5l-28 31l94 94q171 -189 232 -265.5zM573.5 155q14.5 13 14.5 32q0 61 -10.5 96
t-45.5 82.5t-125 148.5q-94 -105 -128 -149.5t-43.5 -78.5t-9.5 -99q0 -19 14.5 -32t38.5 -13h11q23 0 38.5 13.5t15.5 31.5v61h126v-55q2 -25 16.5 -38t37.5 -13h11q24 0 38.5 13z" />
    <glyph glyph-name="uni0666" unicode="&#x666;" horiz-adv-x="653" 
d="M476 355l-10 -14l-257 -380l-104 78l155 229q-35 9 -64 29q-45 29 -69.5 76t-24.5 101q0 68 36 120q13 19 52 49.5t86 62.5l63 -122q-83 -49 -97 -69q-15 -22 -15 -42q0 -31 33 -54q21 -15 48 -15q19 0 36.5 8t27.5 23l97 143l104 -78l-98 -145h1z" />
    <glyph glyph-name="uni0667" unicode="&#x667;" horiz-adv-x="727" 
d="M422 -6h-118l-224 621l119 47l164 -460l166 460l118 -47z" />
    <glyph glyph-name="uni0668" unicode="&#x668;" horiz-adv-x="727" 
d="M305 660h118l224 -624l-118 -48l-165 460l-165 -460l-119 48z" />
    <glyph glyph-name="uni0669" unicode="&#x669;" horiz-adv-x="644" 
d="M438 -6l-28 258h-103q-57 0 -104.5 28t-75 75.5t-27.5 105.5t27.5 107t75 77.5t104.5 28.5q54 0 99 -26.5t73.5 -73.5t34.5 -105l50 -461zM395 389l-7 66q-4 36 -26 58.5t-55 22.5q-35 0 -58 -22t-23 -53q0 -29 23.5 -50.5t57.5 -21.5h88z" />
    <glyph glyph-name="uni066A" unicode="&#x66a;" horiz-adv-x="529" 
d="M452 684l-228 -683h-149l229 683h148zM43 544q-24 24 -24 59q0 34 24 57.5t59 23.5q33 0 57 -23.5t24 -57.5t-24 -58.5t-57 -24.5q-35 0 -59 24zM369 25q-24 24 -24 59q0 34 24 57.5t59 23.5q33 0 57 -23.5t24 -57.5t-24 -58.5t-57 -24.5q-35 0 -59 24z" />
    <glyph glyph-name="uni066B" unicode="&#x66b;" horiz-adv-x="404" 
d="M256 462l88 -38l-216 -536l-88 38z" />
    <glyph glyph-name="uni066C" unicode="&#x66c;" horiz-adv-x="315" 
d="M154 138l91 -32l-84 -238l-91 32z" />
    <glyph glyph-name="uni066D" unicode="&#x66d;" horiz-adv-x="518" 
d="M361 381l66 -91l-102 -74l-66 91l-66 -91l-102 74l66 91l-107 34l40 120l106 -34v112h126v-112l106 34l40 -120z" />
    <glyph glyph-name="uni066E" unicode="&#x66e;" horiz-adv-x="968" 
d="M689 146q49 4 71 13q19 9 26.5 17.5t7.5 24.5q0 13 -8 42l-38 139l122 36l38 -139q11 -42 11 -77q0 -60 -28 -105t-81 -68q-30 -13 -62.5 -19t-90 -8t-172.5 -2v142q155 0 204 4zM312 2q-58 2 -90.5 8t-62.5 19q-53 23 -80.5 68t-27.5 104q0 34 9 70l38 146l122 -37
l-39 -151q-5 -18 -5 -29q0 -14 8 -23.5t25 -17.5q22 -9 73 -13t203 -4v-142q-115 0 -173 2z" />
    <glyph glyph-name="uni066F" unicode="&#x66f;" horiz-adv-x="753" 
d="M319 -247q-82 0 -142.5 37.5t-93 106t-32.5 158.5q0 99 38 210l120 -47q-33 -96 -33 -166q0 -76 36.5 -116.5t104.5 -40.5q34 0 66 8q103 21 147.5 41t42.5 55l-1 18q-48 -8 -105 -8q-55 0 -99 26t-69 72t-25 105q0 60 25.5 111.5t71.5 82.5t103 31q85 0 141.5 -63.5
t67.5 -166.5l17 -161q2 -16 2 -44q0 -70 -29.5 -114t-91.5 -72t-170 -52q-52 -11 -92 -11zM561 159l-3 31q-5 51 -28 78.5t-58 27.5q-32 0 -51 -24t-19 -59q0 -30 16 -46.5t49 -16.5q49 0 94 9z" />
    <glyph glyph-name="uni0670" unicode="&#x670;" 
d="M62 662v-162h-60v162h60z" />
    <glyph glyph-name="uni06A1" unicode="&#x6a1;" horiz-adv-x="975" 
d="M924 174q0 -60 -24 -98t-80 -57t-152 -19h-189q-113 0 -169.5 2t-89 8t-61.5 19q-53 23 -80.5 68t-27.5 104q0 34 9 70l38 146l122 -37l-39 -151q-5 -18 -5 -29q0 -14 8 -23.5t25 -17.5q22 -9 73 -13t203 -4h185q63 0 90 3.5t35.5 14.5t6.5 36q-75 -3 -101 -3
q-81 0 -130 45.5t-50 126.5q-1 99 49 164t144 65q53 0 96 -27.5t69.5 -77t30.5 -113.5l13 -173q1 -10 1 -29zM652 339.5q16 -16.5 49 -16.5q48 0 90 4l-3 39q-5 48 -26 74t-54 26t-52.5 -23.5t-19.5 -57.5q0 -29 16 -45.5z" />
    <glyph glyph-name="uni06BA" unicode="&#x6ba;" horiz-adv-x="723" 
d="M319 -247q-82 0 -142.5 37.5t-93 106t-32.5 158.5q0 99 38 210l120 -47q-33 -96 -33 -166q0 -76 36.5 -116.5t104.5 -40.5q34 0 66 8q69 16 100.5 26.5t47.5 28.5t16 50q0 8 -2 26l-41 275l125 20q34 -229 40 -275q4 -25 4 -52q0 -69 -30 -114.5t-86.5 -74t-145.5 -49.5
q-52 -11 -92 -11z" />
    <glyph glyph-name="uni06F0" unicode="&#x6f0;" horiz-adv-x="563" 
d="M457.5 131.5q-25.5 -45.5 -69.5 -72.5t-97 -27q-52 0 -96 27t-69.5 72.5t-25.5 99.5t25.5 99.5t69.5 72.5t96 27q53 0 97 -27t69.5 -72.5t25.5 -99.5t-25.5 -99.5zM342.5 278q-21.5 19 -51.5 19q-29 0 -50.5 -19.5t-21.5 -46.5t21.5 -46.5t50.5 -19.5q30 0 51.5 19
t21.5 47t-21.5 47z" />
    <glyph glyph-name="uni06F1" unicode="&#x6f1;" horiz-adv-x="360" 
d="M226 662l64 -655l-126 -14l-64 655z" />
    <glyph glyph-name="uni06F2" unicode="&#x6f2;" horiz-adv-x="609" 
d="M529 480q0 -48 -25 -89.5t-67 -66t-92 -24.5h-25q-27 0 -59 10l29 -300l-126 -14l-64 656l126 14l17 -176q4 -26 18 -37t39 -11h45q28 0 43.5 11.5t13.5 32.5l-17 166l126 14l17 -168q1 -6 1 -18z" />
    <glyph glyph-name="uni06F3" unicode="&#x6f3;" horiz-adv-x="840" 
d="M760 476q0 -48 -25.5 -89.5t-68 -65.5t-90.5 -24h-10q-68 0 -118 48q-53 -48 -122 -48h-20q-24 0 -45 6l29 -296l-126 -14l-64 655l126 14l16 -166q8 -57 58 -57h26q24 0 40.5 13.5t15.5 32.5v1l-14 139l127 14l14 -146q2 -26 17 -40t40 -14h10q24 0 41 14t16 33l-16 162
l126 14l16 -170q1 -5 1 -16z" />
    <glyph glyph-name="uni06F4" unicode="&#x6f4;" horiz-adv-x="747" 
d="M663 297h-364q-22 0 -38 4l28 -294l-126 -14l-46 482q-1 2 -1 7l-16 167l126 14l17 -175q4 -27 16.5 -37.5t37.5 -11.5q-12 33 -12 70q0 58 28 107t75.5 77t104.5 28q26 0 63 -12t66 -24.5t38 -17.5l-56 -126q-6 2 -49.5 18.5t-61.5 19.5q-5 1 -14 1q-29 0 -48.5 -21
t-19.5 -50q0 -30 18.5 -50t45.5 -20h188v-142z" />
    <glyph glyph-name="uni06F5" unicode="&#x6f5;" horiz-adv-x="794" 
d="M616 472.5q61 -76.5 79.5 -132.5t18.5 -153q0 -51 -23.5 -94t-64.5 -68t-91 -25h-11q-68 0 -116 45q-51 -45 -118 -45h-11q-50 0 -91 25t-64.5 68t-23.5 94q0 88 13 138.5t56 110t149 177.5l-28 31l94 94q171 -189 232 -265.5zM573.5 155q14.5 13 14.5 32q0 61 -10.5 96
t-45.5 82.5t-125 148.5q-94 -105 -128 -149.5t-43.5 -78.5t-9.5 -99q0 -19 14.5 -32t38.5 -13h11q23 0 38.5 13.5t15.5 31.5v61h126v-55q2 -25 16.5 -38t37.5 -13h11q24 0 38.5 13z" />
    <glyph glyph-name="uni06F6" unicode="&#x6f6;" horiz-adv-x="653" 
d="M476 355l-10 -14l-257 -380l-104 78l155 229q-35 9 -64 29q-45 29 -69.5 76t-24.5 101q0 68 36 120q13 19 52 49.5t86 62.5l63 -122q-83 -49 -97 -69q-15 -22 -15 -42q0 -31 33 -54q21 -15 48 -15q19 0 36.5 8t27.5 23l97 143l104 -78l-98 -145h1z" />
    <glyph glyph-name="uni06F7" unicode="&#x6f7;" horiz-adv-x="727" 
d="M422 -6h-118l-224 621l119 47l164 -460l166 460l118 -47z" />
    <glyph glyph-name="uni06F8" unicode="&#x6f8;" horiz-adv-x="727" 
d="M305 660h118l224 -624l-118 -48l-165 460l-165 -460l-119 48z" />
    <glyph glyph-name="uni06F9" unicode="&#x6f9;" horiz-adv-x="644" 
d="M438 -6l-28 258h-103q-57 0 -104.5 28t-75 75.5t-27.5 105.5t27.5 107t75 77.5t104.5 28.5q54 0 99 -26.5t73.5 -73.5t34.5 -105l50 -461zM395 389l-7 66q-4 36 -26 58.5t-55 22.5q-35 0 -58 -22t-23 -53q0 -29 23.5 -50.5t57.5 -21.5h88z" />
    <glyph glyph-name="uni2009" unicode="&#x2009;" horiz-adv-x="150" 
 />
    <glyph glyph-name="uni200A" unicode="&#x200a;" horiz-adv-x="75" 
 />
    <glyph glyph-name="uni200B" unicode="&#x200b;" 
 />
    <glyph glyph-name="uni200C" unicode="&#x200c;" 
 />
    <glyph glyph-name="uni200D" unicode="&#x200d;" 
 />
    <glyph glyph-name="uni200E" unicode="&#x200e;" horiz-adv-x="135" 
 />
    <glyph glyph-name="uni200F" unicode="&#x200f;" horiz-adv-x="135" 
 />
    <glyph glyph-name="quoteleft" unicode="&#x2018;" horiz-adv-x="213" 
d="M86 800h97l-21 -253h-133z" />
    <glyph glyph-name="quoteright" unicode="&#x2019;" horiz-adv-x="212" 
d="M183 801l-57 -253h-97l21 253h133z" />
    <glyph glyph-name="quotedblleft" unicode="&#x201c;" horiz-adv-x="425" 
d="M86 800h97l-21 -253h-133zM298 800h97l-21 -253h-133z" />
    <glyph glyph-name="quotedblright" unicode="&#x201d;" horiz-adv-x="425" 
d="M183 801l-57 -253h-97l21 253h133zM395 801l-57 -253h-97l21 253h133z" />
    <glyph glyph-name="quotedblbase" unicode="&#x201e;" horiz-adv-x="425" 
d="M183 153l-57 -253h-97l21 253h133zM395 153l-57 -253h-97l21 253h133z" />
    <glyph glyph-name="guilsinglleft" unicode="&#x2039;" horiz-adv-x="293" 
d="M183.5 354q-14.5 -34 -14.5 -72q0 -37 13.5 -69.5t39.5 -58.5l-80 -78q-40 41 -61.5 95t-21.5 111q0 59 24 115t67 97l76 -80q-28 -26 -42.5 -60z" />
    <glyph glyph-name="guilsinglright" unicode="&#x203a;" horiz-adv-x="293" 
d="M210 397q24 -56 24 -115q0 -57 -21.5 -111t-61.5 -95l-80 78q26 26 39.5 58.5t13.5 69.5q0 38 -14.5 72t-42.5 60l76 80q43 -41 67 -97z" />
    <glyph glyph-name="minus" unicode="&#x2212;" horiz-adv-x="426" 
d="M402 248h-379v116h379v-116z" />
    <glyph glyph-name="notequal" unicode="&#x2260;" horiz-adv-x="426" 
d="M292 342l-28 -72h138v-116h-184l-30 -78h-116l30 78h-79v116h125l28 72h-153v116h198l29 75h116l-29 -75h65v-116h-110z" />
    <glyph glyph-name="dotabove-ar" unicode="&#xfbb2;" 
d="M0 432l92 93l93 -93l-93 -92z" />
    <glyph glyph-name="dotbelow-ar" unicode="&#xfbb3;" 
d="M0 -143l92 93l93 -93l-93 -92z" />
    <glyph glyph-name="twodotshorizontalabove-ar" unicode="&#xfbb4;" 
d="M0 533l81 82l83 -82l-83 -82zM200 533l81 82l83 -82l-83 -82z" />
    <glyph glyph-name="twodotshorizontalbelow-ar" unicode="&#xfbb5;" 
d="M0 -111l81 82l83 -82l-83 -82zM200 -111l81 82l83 -82l-83 -82z" />
    <glyph glyph-name="threedotsupabove-ar" unicode="&#xfbb6;" 
d="M114 678l67 67l67 -67l-67 -68zM0 533l81 82l83 -82l-83 -82zM199 533l81 82l83 -82l-83 -82z" />
    <glyph glyph-name="threedotsdownbelow-ar" unicode="&#xfbb9;" 
d="M114 -293l67 67l67 -67l-67 -68zM0 -149l81 82l83 -82l-83 -82zM199 -149l81 82l83 -82l-83 -82z" />
    <glyph glyph-name="uniFD3E" unicode="&#xfd3e;" horiz-adv-x="389" 
d="M101 -17q-51 126 -51 262q0 137 52 264.5t147 222.5l90 -101q-80 -80 -121.5 -178.5t-41.5 -207.5q0 -108 40.5 -206t117.5 -177l-90 -99q-92 94 -143 220z" />
    <glyph glyph-name="uniFD3F" unicode="&#xfd3f;" horiz-adv-x="389" 
d="M172.5 39q40.5 98 40.5 206q0 110 -41.5 208.5t-121.5 177.5l90 101q95 -95 147 -222.5t52 -264.5q0 -136 -51 -262t-143 -220l-90 99q77 79 117.5 177z" />
    <glyph glyph-name="uniFEFF" unicode="&#xfeff;" 
 />
    <glyph glyph-name="b.bowl" horiz-adv-x="328" 
d="M43 39q-43 48 -43 126v173q0 78 42.5 126t112.5 48q89 0 131 -46t42 -128v-173q0 -81 -42.5 -127.5t-129.5 -46.5q-70 0 -113 48zM167 115q19 18 19 50v173q0 31 -19.5 50t-49.5 19q-31 0 -49.5 -19t-18.5 -50v-173q0 -32 18 -50t50 -18q31 0 50 18z" />
    <glyph glyph-name="d.bowl" horiz-adv-x="328" 
d="M285.5 464q42.5 -48 42.5 -126v-173q0 -78 -42.5 -126t-112.5 -48q-88 0 -130.5 46t-42.5 128v173q0 81 42.5 127.5t129.5 46.5q71 0 113.5 -48zM161.5 387.5q-19.5 -18.5 -19.5 -49.5v-173q0 -31 19.5 -50t49.5 -19q32 0 50.5 19t18.5 50v173q0 32 -18.5 50t-50.5 18
q-30 0 -49.5 -18.5z" />
    <glyph glyph-name="n.curve" horiz-adv-x="328" 
d="M166.5 388q-19.5 19 -49.5 19q-31 0 -49.5 -19t-18.5 -50v-59h-49v59q0 78 42.5 126t112.5 48q89 0 131 -46t42 -128v-338h-142v338q0 31 -19.5 50z" />
    <glyph glyph-name="uni0627.001" horiz-adv-x="175" 
d="M138 693l18 -496l-124 -61l-21 551z" />
    <glyph glyph-name="uni0627.002" horiz-adv-x="318" 
d="M218 593l22 -591l-126 -6l-23 591z" />
    <glyph glyph-name="uniFE8E.001" horiz-adv-x="287" 
d="M167.5 22q-42.5 22 -63 71.5t-23.5 133.5l-14 360l126 6l14 -366q2 -43 6 -59t18 -21t51 -5h10v-142h-10q-72 0 -114.5 22z" />
    <glyph glyph-name="uniFE8E.002" horiz-adv-x="333" 
d="M174 654l82 -441l-124 -25l-82 440zM338 142v-142h-236v142h236z" />
    <glyph glyph-name="uni066E.001" horiz-adv-x="483" 
d="M204 146q49 4 71 13q19 9 26.5 17.5t7.5 24.5q0 13 -8 42l-38 139l122 36l38 -139q11 -42 11 -77q0 -60 -28 -105t-81 -68q-30 -13 -62.5 -19t-90 -8t-172.5 -2v142q155 0 204 4z" />
    <glyph glyph-name="uni066E.fina.001" horiz-adv-x="485" 
d="M312 2q-58 2 -90.5 8t-62.5 19q-53 23 -80.5 68t-27.5 104q0 34 9 70l38 146l122 -37l-39 -151q-5 -18 -5 -29q0 -14 8 -23.5t25 -17.5q22 -9 73 -13t203 -4v-142q-115 0 -173 2z" />
    <glyph glyph-name="uni066E.fina.001.003" horiz-adv-x="486" 
d="M102.5 51q-52.5 48 -52.5 127q0 15 1 22l11 123l126 -12l-11 -123q-2 -24 12 -34.5t53 -11.5h244v-142h-244q-87 3 -139.5 51z" />
    <glyph glyph-name="uni066E.fina.002" horiz-adv-x="492" 
d="M497 0q-78 0 -127 40q-51 -40 -129 -40h-241v142h241q38 0 52.5 10.5t12.5 33.5v2l-11 123l126 12l11 -123v-1q3 -34 16 -45.5t49 -11.5v-142z" />
    <glyph glyph-name="uni066E.medi.001" horiz-adv-x="422" 
d="M427 0q-78 0 -126 40q-51 -40 -130 -40h-176v142h176q39 0 53 10t12 34v2l-11 123l126 12l11 -123v-6q4 -32 16.5 -42t48.5 -10v-142z" />
    <glyph glyph-name="uni066E.init.001" horiz-adv-x="408" 
d="M148 142q42 0 62.5 12t20.5 42q0 16 -6 37l-39 149l121 36l42 -156q10 -36 10 -70q0 -58 -27 -101.5t-75 -67t-109 -23.5h-153v142h153z" />
    <glyph glyph-name="uni066E.init.002" horiz-adv-x="334" 
d="M274 269q10 -39 10 -76q0 -88 -58 -140.5t-152 -52.5h-79v142h79q43 0 63.5 12t20.5 42q0 15 -6 37l-40 149l122 36z" />
    <glyph glyph-name="uniFE92.alt" horiz-adv-x="309" 
d="M314 0q-78 0 -126 40q-51 -40 -130 -40h-63v142h63q39 0 53 10t12 34v2l-11 123l126 12l11 -123v-1q3 -34 16 -45.5t49 -11.5v-142zM-22 -147l92 93l93 -93l-93 -92z" />
    <glyph glyph-name="uniFE91.alt" horiz-adv-x="373" 
d="M323 193q0 -88 -58 -140.5t-152 -52.5h-118v142h118q43 0 63.5 12t20.5 42q0 15 -6 37l-40 149l122 36l40 -149q10 -39 10 -76zM149 -55l92 -92l-92 -93l-93 93z" />
    <glyph glyph-name="uniFB59.alt" horiz-adv-x="422" 
d="M427 0q-78 0 -126 40q-51 -40 -130 -40h-176v142h176q39 0 53 10t12 34v2l-11 123l126 12l11 -123v-6q4 -32 16.5 -42t48.5 -10v-142zM42 -289l67 67l67 -67l-67 -68zM-72 -145l81 82l83 -82l-83 -82zM127 -145l81 82l83 -82l-83 -82z" />
    <glyph glyph-name="uniFB58.alt" horiz-adv-x="447" 
d="M-5 142h191q42 0 62.5 12t20.5 41q0 16 -6 38l-39 149l122 36l41 -156q10 -36 10 -72q0 -57 -27 -100t-75 -66.5t-109 -23.5h-191v142zM166 -147l-83 -82l-81 82l81 82zM282 -65l83 -82l-83 -82l-81 82zM184 -224l66 -67l-66 -67l-68 67z" />
    <glyph glyph-name="uniFEA2.001" horiz-adv-x="730" 
d="M675 -274l-258 -71q-39 -10 -79 -10q-98 0 -174 57.5t-103 155.5q-11 42 -11 80q0 99 65 178.5t186 112.5l212 54l-165 83q-22 12 -48 12q-25 0 -47 -12.5t-37 -36.5l-17 -32l-110 69l19 36q34 57 83.5 87.5t106.5 30.5t112 -30l261 -146l-18 -164l-319 -88
q-81 -21 -119 -62.5t-38 -92.5q0 -17 5 -39q13 -50 56.5 -81t100.5 -31q21 0 51 7l252 70z" />
    <glyph glyph-name="uniFEA2.002" horiz-adv-x="252" 
d="M105 31.5q-49 31.5 -77 85t-28 117.5h126q0 -40 24 -66t65 -26h37v-142h-37q-61 0 -110 31.5z" />
    <glyph glyph-name="uniFEAE.001" horiz-adv-x="183" 
d="M91.5 26q-34.5 26 -55.5 85t-36 165l119 19q10 -72 17.5 -103t17 -40.5t28.5 -9.5h6v-142h-6q-56 0 -90.5 26z" />
    <glyph glyph-name="uniFEBC.001" horiz-adv-x="16" 
d="M-76 18q-40 18 -69 44l85 104q11 -10 28.5 -17t38.5 -7h14v-142h-14q-43 0 -83 18z" />
    <glyph glyph-name="uniFEBC.002" horiz-adv-x="233" 
d="M233 0q-61 0 -102 41q-53 -39 -131 -41h-5v142h5q38 0 57.5 12.5t22.5 44.5l11 124l126 -12l-11 -123q-2 -25 4.5 -35.5t22.5 -10.5v-142z" />
    <glyph glyph-name="uniFEBC.003" horiz-adv-x="574" 
d="M422.5 399.5q47.5 -29.5 74.5 -80t27 -112.5q0 -55 -28.5 -102.5t-76 -76t-102.5 -28.5h-318v100l-17 16l17 24v2h2l62 86q56 77 91 117t74 62t89 22q58 0 105.5 -29.5zM372.5 162.5q24.5 20.5 24.5 44.5q0 35 -22 57.5t-58 22.5q-23 0 -42.5 -12.5t-42.5 -40.5t-64 -86
l-4 -6h153q31 0 55.5 20.5z" />
    <glyph glyph-name="uniFEDC.001" horiz-adv-x="256" 
d="M112 53q-59 53 -112 156l96 61q31 -52 54 -79t45.5 -38t51.5 -11h14v-142h-14q-76 0 -135 53z" />
    <glyph glyph-name="uniFEDB.001" horiz-adv-x="486" 
d="M342 285q42 -64 42 -129q0 -56 -32 -96q-22 -28 -57.5 -44t-82.5 -16h-217v142h219q20 0 28 7q13 11 13 26q0 13 -9 25l-220 312l28 107l362 133l45 -132l-277 -102z" />
    <glyph glyph-name="uniFEDE.001" horiz-adv-x="204" 
d="M56.5 53.5q-52.5 53.5 -56.5 143.5l125 7q1 -35 17 -48.5t47 -13.5h20v-142h-20q-80 0 -132.5 53.5z" />
    <glyph glyph-name="uniFEE0.001" horiz-adv-x="289" 
d="M294 142v-142h-20q-74 0 -124 45q-51 -45 -132 -45h-23v142h23q39 0 52.5 13t12.5 37l-19 495l126 6l19 -489q1 -35 17.5 -48.5t47.5 -13.5h20z" />
    <glyph glyph-name="uniFEDF.001" horiz-adv-x="259" 
d="M18 142q39 0 52.5 13t12.5 37l-19 495l126 6l19 -495q3 -55 -19 -100t-66 -71.5t-106 -26.5h-23v142h23z" />
    <glyph glyph-name="uniFEE4.001" horiz-adv-x="177" 
d="M47.5 58.5q-47.5 58.5 -47.5 154.5h107q0 -71 75 -71v-142q-87 0 -134.5 58.5z" />
    <glyph glyph-name="uniFB9F.001" horiz-adv-x="225" 
d="M74.5 78.5q-52.5 78.5 -73.5 230.5l124 19q12 -86 21 -123.5t21 -50t35 -12.5h28v-142h-24q-79 0 -131.5 78.5z" />
    <glyph glyph-name="uniFEF4.alt" horiz-adv-x="422" 
d="M427 0q-78 0 -126 40q-51 -40 -130 -40h-176v142h176q39 0 53 10t12 34v2l-11 123l126 12l11 -123v-6q4 -32 16.5 -42t48.5 -10v-142zM-79 -148l81 82l83 -82l-83 -82zM121 -148l81 82l83 -82l-83 -82z" />
    <glyph glyph-name="uniFEF3.alt" horiz-adv-x="447" 
d="M397 190q0 -57 -27 -100t-75 -66.5t-109 -23.5h-191v142h191q42 0 62.5 12t20.5 41q0 16 -6 38l-39 149l122 36l41 -156q10 -36 10 -72zM81 -66l82 -82l-82 -81l-82 81zM281 -66l82 -82l-82 -81l-82 81z" />
    <glyph glyph-name="uniFBFF.alt" horiz-adv-x="422" 
d="M427 0q-78 0 -126 40q-51 -40 -130 -40h-176v142h176q39 0 53 10t12 34v2l-11 123l126 12l11 -123v-6q4 -32 16.5 -42t48.5 -10v-142zM-79 -148l81 82l83 -82l-83 -82zM121 -148l81 82l83 -82l-83 -82z" />
    <glyph glyph-name="uniFBFE.alt" horiz-adv-x="447" 
d="M397 190q0 -57 -27 -100t-75 -66.5t-109 -23.5h-191v142h191q42 0 62.5 12t20.5 41q0 16 -6 38l-39 149l122 36l41 -156q10 -36 10 -72zM81 -66l82 -82l-82 -81l-82 81zM281 -66l82 -82l-82 -81l-82 81z" />
    <glyph glyph-name="uni0640.001" horiz-adv-x="160" 
d="M160 142v-142h-160v142h160z" />
    <glyph glyph-name="uni0640.002" horiz-adv-x="65" 
d="M70 142v-142h-70v142h70z" />
    <glyph glyph-name="uni0640.003" 
d="M2 142v-142h-4v142h4z" />
    <glyph glyph-name="uni0640.004" horiz-adv-x="39" 
d="M44 142v-142h-49v142h49z" />
    <glyph glyph-name="period.001" horiz-adv-x="345" 
d="M115.5 22.5q-23.5 23.5 -23.5 57.5q0 33 23.5 56t57.5 23q32 0 55.5 -23t23.5 -56q0 -34 -23.5 -57.5t-55.5 -23.5q-34 0 -57.5 23.5z" />
    <glyph glyph-name="sareyaar" 
d="M53 559q36 2 69.5 5t33.5 8q0 4 -11.5 7t-25.5 5.5t-23 4.5q-48 8 -70 23.5t-22 43.5q0 20 13 56q16 42 45 63.5t67 21.5q23 0 45 -7l37 -12l-19 -69l-38 12q-15 5 -27 5q-38 0 -54 -42l-2 -8q0 -7 8 -10.5t31 -8.5q42 -8 63.5 -16.5t32.5 -24t11 -43.5q0 -36 -19 -53.5
t-58.5 -24t-124.5 -11.5l-6 72z" />
    <glyph glyph-name="dotcenterar" 
d="M0 -47l92 93l93 -93l-93 -92z" />
    <glyph glyph-name="threedotsdownbelowar.002" 
d="M85 -245l67 67l67 -67l-67 -68zM0 -149l67 67l67 -67l-67 -68zM169 -149l67 67l67 -67l-67 -68z" />
    <glyph glyph-name="threedotsupabovear.001" 
d="M0 533l81 82l83 -82l-83 -82z" />
    <glyph glyph-name="threedotsupabovear.002" 
d="M0 678l67 67l67 -67l-67 -68z" />
    <glyph glyph-name="waslaar" 
d="M310.5 685q28.5 -31 28.5 -78q0 -41 -30 -71t-70 -30h-139q-13 0 -21 -6t-25 -29l-54 41q24 33 41.5 47.5t40.5 18.5l33 45q34 46 60 69.5t64 23.5q43 0 71.5 -31zM265.5 587.5q11.5 8.5 11.5 23.5q0 16 -11 26t-27 10q-17 0 -30.5 -11.5t-36.5 -41.5l-11 -15h78
q15 0 26.5 8.5z" />
    <glyph glyph-name="miniKehehar" 
d="M56 57q8 0 8 4t-5 8l-48 49l11 47l98 33l18 -53l-55 -19l38 -40q15 -14 15 -37q0 -20 -13 -34.5t-34 -14.5h-89v57h56z" />
    <glyph glyph-name="gafsarkashabovear" 
d="M238 686l31 -87l-244 -88l-31 87z" />
    <glyph glyph-name="uni0654064F" 
d="M189 536q-8 -2 -11 -2l-157 -37l-15 69l70 17q-12 19 -16 37q-3 14 -3 28q0 45 31.5 77.5t77.5 32.5q25 0 85 -12l-12 -69q-49 9 -74 9q-20 0 -32.5 -11.5t-12.5 -28.5q0 -18 15 -30.5t35 -10.5l112 27l15 -70zM271 871.5q-29 -31.5 -80 -44.5l-177 -42l-15 70l90 21
l-14 54q-3 14 -3 26q0 35 22.5 61.5t60.5 34.5q20 4 31 4q47 0 80.5 -31.5t33.5 -79.5q0 -42 -29 -73.5zM217 916.5q15 13.5 15 30.5q0 18 -12.5 30t-33.5 12q-22 0 -34.5 -9.5t-12.5 -24.5q0 -3 2 -11l14 -53l20 5q27 7 42 20.5z" />
    <glyph glyph-name="uni0654064C" 
d="M236 536q-8 -2 -11 -2l-157 -37l-15 69l70 17q-12 19 -16 37q-3 14 -3 28q0 45 31.5 77.5t77.5 32.5q25 0 85 -12l-12 -69q-49 9 -74 9q-20 0 -32.5 -11.5t-12.5 -28.5q0 -18 15 -30.5t35 -10.5l112 27l15 -70zM364 880q-28 -31 -78 -44l-218 -53l-14 62l8 2
q19 7 29.5 20t10.5 29q0 21 -14 35.5t-37 14.5q-5 0 -15 -2l-12 56q15 3 29 3q45 0 74 -30t29 -70q0 -18 -4 -31l41 12l-14 56q-4 20 -4 28q0 34 20.5 59t57.5 34q20 4 30 4q46 0 77.5 -32t31.5 -80q0 -42 -28 -73zM329 955q0 18 -12 30t-32 12q-46 0 -46 -30q0 -4 2 -12
l13 -54l16 4q59 17 59 50z" />
    <glyph glyph-name="uni0654064E" 
d="M183 536q-8 -2 -11 -2l-157 -37l-15 69l70 17q-12 19 -16 37q-3 14 -3 28q0 45 31.5 77.5t77.5 32.5q25 0 85 -12l-12 -69q-49 9 -74 9q-20 0 -32.5 -11.5t-12.5 -28.5q0 -18 15 -30.5t35 -10.5l112 27l15 -70zM250 913l15 -69l-236 -57l-15 70z" />
    <glyph glyph-name="uni0654064B" 
d="M183 536q-8 -2 -11 -2l-157 -37l-15 69l70 17q-12 19 -16 37q-3 14 -3 28q0 45 31.5 77.5t77.5 32.5q25 0 85 -12l-12 -69q-49 9 -74 9q-20 0 -32.5 -11.5t-12.5 -28.5q0 -18 15 -30.5t35 -10.5l112 27l15 -70zM256 903l15 -69l-236 -57l-15 70zM256 1033l15 -69
l-236 -57l-15 70z" />
    <glyph glyph-name="uni06540652" 
d="M183 536q-8 -2 -11 -2l-157 -37l-15 69l70 17q-12 19 -16 37q-3 14 -3 28q0 45 31.5 77.5t77.5 32.5q25 0 85 -12l-12 -69q-49 9 -74 9q-20 0 -32.5 -11.5t-12.5 -28.5q0 -18 15 -30.5t35 -10.5l112 27l15 -70zM82.5 820.5q-29.5 17.5 -46.5 47t-17 64.5q0 34 17 63.5
t46.5 47t63.5 17.5q33 0 62 -17.5t46.5 -47t17.5 -63.5q0 -35 -17 -64.5t-46 -47t-63 -17.5t-63.5 17.5zM190 889.5q18 17.5 18 42.5t-18 42.5t-44 17.5t-44.5 -17.5t-18.5 -42.5t18.5 -42.5t44.5 -17.5t44 17.5z" />
    <glyph glyph-name="uni06550650" 
d="M183 -382q-8 -2 -11 -2l-157 -37l-15 69l70 17q-12 19 -16 37q-3 14 -3 28q0 45 31.5 77.5t77.5 32.5q25 0 85 -12l-12 -69q-49 9 -74 9q-20 0 -32.5 -11.5t-12.5 -28.5q0 -18 15 -30.5t35 -10.5l112 27l15 -70zM262 -429l15 -69l-236 -57l-15 70z" />
    <glyph glyph-name="uni0655064D" 
d="M183 -382q-8 -2 -11 -2l-157 -37l-15 69l70 17q-12 19 -16 37q-3 14 -3 28q0 45 31.5 77.5t77.5 32.5q25 0 85 -12l-12 -69q-49 9 -74 9q-20 0 -32.5 -11.5t-12.5 -28.5q0 -18 15 -30.5t35 -10.5l112 27l15 -70zM262 -542l15 -69l-236 -57l-15 70zM262 -412l15 -69
l-236 -57l-15 70z" />
    <glyph glyph-name="uni0653.001" 
d="M25.5 677q25.5 26 66.5 26q7 0 23 -2l101 -19q4 -1 12 -1q27 0 27 24v4l64 5v-23q0 -43 -25.5 -69t-66.5 -26q-7 0 -23 2l-101 19q-4 1 -12 1q-27 0 -27 -24v-4l-64 -5v23q0 43 25.5 69z" />
    <glyph glyph-name="uni06510670" 
d="M72 652l-11 -50q-1 -3 -1 -9q0 -21 28 -21q14 0 21 5.5t7 11.5l2 66h52l3 -66q0 -6 7 -11.5t20 -5.5q35 0 29 27l-17 70l55 17l21 -73q4 -12 4 -27q0 -37 -26 -61.5t-66 -24.5q-17 0 -32 5.5t-23 15.5q-21 -21 -57 -21q-38 0 -63 24t-25 61q0 15 4 27l13 55zM176 857
v-162h-60v162h60z" />
    <glyph glyph-name="uni0651064F" 
d="M74 652l-11 -50q-1 -3 -1 -9q0 -21 28 -21q14 0 21 5.5t7 11.5l2 66h52l3 -66q0 -6 7 -11.5t20 -5.5q35 0 29 27l-17 70l55 17l21 -73q4 -12 4 -27q0 -37 -26 -61.5t-66 -24.5q-17 0 -32 5.5t-23 15.5q-21 -21 -57 -21q-38 0 -63 24t-25 61q0 15 4 27l13 55zM266 803.5
q-29 -31.5 -80 -44.5l-177 -42l-15 70l90 21l-14 54q-3 14 -3 26q0 35 22.5 61.5t60.5 34.5q20 4 31 4q47 0 80.5 -31.5t33.5 -79.5q0 -42 -29 -73.5zM212 848.5q15 13.5 15 30.5q0 18 -12.5 30t-33.5 12q-22 0 -34.5 -9.5t-12.5 -24.5q0 -3 2 -11l14 -53l20 5q27 7 42 20.5
z" />
    <glyph glyph-name="uni0651064C" 
d="M117 652l-11 -50q-1 -3 -1 -9q0 -21 28 -21q14 0 21 5.5t7 11.5l2 66h52l3 -66q0 -6 7 -11.5t20 -5.5q35 0 29 27l-17 70l55 17l21 -73q4 -12 4 -27q0 -37 -26 -61.5t-66 -24.5q-17 0 -32 5.5t-23 15.5q-21 -21 -57 -21q-38 0 -63 24t-25 61q0 15 4 27l13 55zM335 798
q-28 -31 -78 -44l-218 -53l-14 62l8 2q19 7 29.5 20t10.5 29q0 21 -14 35.5t-37 14.5q-5 0 -15 -2l-12 56q15 3 29 3q45 0 74 -30t29 -70q0 -18 -4 -31l41 12l-14 56q-4 20 -4 28q0 34 20.5 59t57.5 34q20 4 30 4q46 0 77.5 -32t31.5 -80q0 -42 -28 -73zM300 873
q0 18 -12 30t-32 12q-46 0 -46 -30q0 -4 2 -12l13 -54l16 4q59 17 59 50z" />
    <glyph glyph-name="uni0651064E" 
d="M72 652l-11 -50q-1 -3 -1 -9q0 -21 28 -21q14 0 21 5.5t7 11.5l2 66h52l3 -66q0 -6 7 -11.5t20 -5.5q35 0 29 27l-17 70l55 17l21 -73q4 -12 4 -27q0 -37 -26 -61.5t-66 -24.5q-17 0 -32 5.5t-23 15.5q-21 -21 -57 -21q-38 0 -63 24t-25 61q0 15 4 27l13 55zM248 845
l15 -69l-236 -57l-15 70z" />
    <glyph glyph-name="uni0651064B.1" 
d="M72 652l-11 -50q-1 -3 -1 -9q0 -21 28 -21q14 0 21 5.5t7 11.5l2 66h52l3 -66q0 -6 7 -11.5t20 -5.5q35 0 29 27l-17 70l55 17l21 -73q4 -12 4 -27q0 -37 -26 -61.5t-66 -24.5q-17 0 -32 5.5t-23 15.5q-21 -21 -57 -21q-38 0 -63 24t-25 61q0 15 4 27l13 55zM254 835
l15 -69l-236 -57l-15 70zM254 965l15 -69l-236 -57l-15 70z" />
    <glyph glyph-name="uni06510650" 
d="M260 627l15 -69l-236 -57l-15 70zM76 799l-11 -50q-1 -3 -1 -9q0 -21 28 -21q14 0 21 5.5t7 11.5l2 66h52l3 -66q0 -6 7 -11.5t20 -5.5q35 0 29 27l-17 70l55 17l21 -73q4 -12 4 -27q0 -37 -26 -61.5t-66 -24.5q-17 0 -32 5.5t-23 15.5q-21 -21 -57 -21q-38 0 -63 24
t-25 61q0 15 4 27l13 55z" />
    <glyph glyph-name="uni0651064D" 
d="M74 924l-11 -50q-1 -3 -1 -9q0 -21 28 -21q14 0 21 5.5t7 11.5l2 66h52l3 -66q0 -6 7 -11.5t20 -5.5q35 0 29 27l-17 70l55 17l21 -73q4 -12 4 -27q0 -37 -26 -61.5t-66 -24.5q-17 0 -32 5.5t-23 15.5q-21 -21 -57 -21q-38 0 -63 24t-25 61q0 15 4 27l13 55zM258 624
l15 -69l-236 -57l-15 70zM258 754l15 -69l-236 -57l-15 70z" />
    </font>
</defs>
</svg>
