<svg width="64" height="64" viewBox="0 0 64 64" fill="none" xmlns="http://www.w3.org/2000/svg">
<g filter="url(#filter0_d_1718_7142)">
<circle cx="32" cy="28" r="23.5" fill="white" stroke="black"/>
<path d="M36.8198 18H27.1798C25.0498 18 23.3198 19.74 23.3198 21.86V35.95C23.3198 37.75 24.6098 38.51 26.1898 37.64L31.0698 34.93C31.5898 34.64 32.4298 34.64 32.9398 34.93L37.8198 37.64C39.3998 38.52 40.6898 37.76 40.6898 35.95V21.86C40.6798 19.74 38.9498 18 36.8198 18ZM34.4998 27.4H32.7498V29.21C32.7498 29.62 32.4098 29.96 31.9998 29.96C31.5898 29.96 31.2498 29.62 31.2498 29.21V27.4H29.4998C29.0898 27.4 28.7498 27.06 28.7498 26.65C28.7498 26.24 29.0898 25.9 29.4998 25.9H31.2498V24.21C31.2498 23.8 31.5898 23.46 31.9998 23.46C32.4098 23.46 32.7498 23.8 32.7498 24.21V25.9H34.4998C34.9098 25.9 35.2498 26.24 35.2498 26.65C35.2498 27.06 34.9098 27.4 34.4998 27.4Z" fill="black"/>
</g>
<defs>
<filter id="filter0_d_1718_7142" x="0" y="0" width="64" height="64" filterUnits="userSpaceOnUse" color-interpolation-filters="sRGB">
<feFlood flood-opacity="0" result="BackgroundImageFix"/>
<feColorMatrix in="SourceAlpha" type="matrix" values="0 0 0 0 0 0 0 0 0 0 0 0 0 0 0 0 0 0 127 0" result="hardAlpha"/>
<feOffset dy="4"/>
<feGaussianBlur stdDeviation="4"/>
<feComposite in2="hardAlpha" operator="out"/>
<feColorMatrix type="matrix" values="0 0 0 0 0.101961 0 0 0 0 0.101961 0 0 0 0 0.101961 0 0 0 0.12 0"/>
<feBlend mode="normal" in2="BackgroundImageFix" result="effect1_dropShadow_1718_7142"/>
<feBlend mode="normal" in="SourceGraphic" in2="effect1_dropShadow_1718_7142" result="shape"/>
</filter>
</defs>
</svg>
