<svg width="36" height="36" viewBox="0 0 36 36" fill="none" xmlns="http://www.w3.org/2000/svg">
<path d="M31.5 11.625H4.5C3.885 11.625 3.375 11.115 3.375 10.5C3.375 9.885 3.885 9.375 4.5 9.375H31.5C32.115 9.375 32.625 9.885 32.625 10.5C32.625 11.115 32.115 11.625 31.5 11.625Z" fill="black"/>
<path d="M31.5 19.125H4.5C3.885 19.125 3.375 18.615 3.375 18C3.375 17.385 3.885 16.875 4.5 16.875H31.5C32.115 16.875 32.625 17.385 32.625 18C32.625 18.615 32.115 19.125 31.5 19.125Z" fill="black"/>
<path d="M31.5 26.625H4.5C3.885 26.625 3.375 26.115 3.375 25.5C3.375 24.885 3.885 24.375 4.5 24.375H31.5C32.115 24.375 32.625 24.885 32.625 25.5C32.625 26.115 32.115 26.625 31.5 26.625Z" fill="black"/>
</svg>
